<?xml version="1.0" encoding="utf-8"?>
<!-- Generator: Adobe Illustrator 16.0.0, SVG Export Plug-In . SVG Version: 6.00 Build 0)  -->
<!DOCTYPE svg PUBLIC "-//W3C//DTD SVG 1.1//EN" "http://www.w3.org/Graphics/SVG/1.1/DTD/svg11.dtd">
<svg version="1.1" id="Camada_1" xmlns="http://www.w3.org/2000/svg" xmlns:xlink="http://www.w3.org/1999/xlink" x="0px" y="0px"
	 width="319.339px" height="60.495px" viewBox="0 0 319.339 60.495" enable-background="new 0 0 319.339 60.495"
	 xml:space="preserve">
<g>
	<g>
		<path fill="#FFFFFF" d="M54.917,54.769c-0.015-0.001-0.029-0.004-0.044-0.006c-0.01-0.001-0.021,0-0.03-0.001L54.917,54.769z"/>
		<polygon fill="#FFFFFF" points="80.302,53.276 80.294,53.271 80.287,53.268 		"/>
		<polygon fill="#FFFFFF" points="118.661,53.843 118.658,53.844 118.645,53.849 		"/>
		<path fill="#FFFFFF" d="M122.421,14.712c0.002-0.01,0.005-0.019,0.007-0.028c0.001-0.01,0.002-0.02,0.004-0.029L122.421,14.712z"
			/>
		<polygon fill="#FFFFFF" points="125.708,24.67 125.706,24.668 125.705,24.667 		"/>
		<path fill="#FFFFFF" d="M137.948,0.276c0.018-0.004,0.037-0.007,0.055-0.01c0.006-0.001,0.012-0.003,0.017-0.004L137.948,0.276z"
			/>
		<polygon fill="#FFFFFF" points="128.712,26.986 128.71,26.984 128.708,26.983 		"/>
		<path fill="#FFFFFF" d="M201.756,3.87c0.006-0.001,0.012-0.002,0.018-0.004c0.001,0,0.003,0,0.004-0.001L201.756,3.87z"/>
		<polygon fill="#FFFFFF" points="251.825,53.937 251.824,53.937 251.82,53.938 		"/>
		<polygon fill="#FFFFFF" points="265.822,17.697 265.826,17.696 265.831,17.694 		"/>
		<path fill="#FFFFFF" d="M272.106,53.841c-0.003,0.001-0.006,0.002-0.009,0.003c-0.012,0.004-0.021,0.008-0.033,0.012
			L272.106,53.841z"/>
		<path fill="#FFFFFF" d="M318.2,41.553c0-0.001,0-0.001,0-0.002c0-0.099,0-0.24,0-0.418V41.12c0-1.146,0-2.376,0-3.69v-0.005
			c0-1.513,0-2.999,0-4.458v-0.009c0-0.354,0.152-0.711,0.152-1.074c-0.008-1.434-0.044-2.854-0.467-4.45
			c-0.293-1.106-0.742-2.204-1.376-3.181c-0.637-0.989-1.403-1.848-2.235-2.548l0.007-0.001c-1.076-0.907-2.306-1.572-3.688-2.182
			c-1.166-0.514-2.442-0.973-3.868-0.973h-0.007c-0.484,0-0.958-0.264-1.689-0.268c-0.375,0.003-0.813-0.061-1.488,0.047
			c-0.34,0.058-0.742,0.104-1.255,0.274c-0.229,0.078-0.486,0.158-0.765,0.283c-0.863-0.229-1.615-0.336-2.246-0.336
			c-0.3,0-0.574,0-0.828,0h-0.005c-0.674,0-1.333,0.191-1.843,0.301c-0.426,0.094-0.398,0.234-1.398,0.351v-0.003
			c0,0.006,0.096,0.014,0.073,0.021c-0.056,0.015-0.04,0.026-0.097,0.042l0.275,0.007c-0.541,0.148-1.252,0.325-1.252,0.521v-0.004
			c-1,0.02-0.34,0.045-0.395,0.066c-0.09,0.038-0.308,0.071-0.396,0.111l-0.057,0.006c-0.353,0.143-0.732,0.286-1.072,0.445
			c-0.609-0.385-1.268-0.735-1.948-1.035c-1.166-0.514-2.452-0.924-3.876-1.117l-0.013-0.001c-0.484-0.061-0.96-0.119-1.691-0.123
			c-0.375,0.003-0.814,0.011-1.489,0.12c-0.339,0.058-0.742,0.141-1.256,0.311c-0.229,0.078-0.486,0.176-0.765,0.301
			c-0.863-0.229-1.616-0.325-2.246-0.327c-0.3,0-0.574,0.009-0.828,0.009h-0.005c-0.673,0-1.189,0.191-1.699,0.301
			c-0.428,0.094-1.264,0.235-1.264,0.352v-0.003c0,0.006,0.068,0.015,0.045,0.021c-0.054,0.015-0.045,0.025-0.045,0.041v0.007
			c0,0.008-0.172,0.018-0.203,0.026c-0.449-0.411-1.069-0.837-1.813-1.213c-0.291-0.146-0.766-0.329-1.075-0.431
			c-0.888-0.283-1.414-0.333-1.837-0.382c-0.414-0.04-0.726,0.108-0.996,0.107c-0.268,0-0.507,0.175-0.728,0.175h-0.022
			c-0.991,0-1.87,0.076-2.699,0.301c-0.034,0.009-0.068-0.054-0.103-0.044c-0.452-0.134-0.911-0.284-1.372-0.339l-0.036-0.024
			c-0.413-0.05-0.911-0.08-1.279-0.08c-1.059,0.003-1.836,0.151-2.836,0.354v-0.002c0,0.009,0.04-0.084,0.007-0.075
			c-0.014,0.004,0.024-0.091,0.011-0.091h0.026c-0.254,0-0.405,0.225-0.554,0.273c-0.254,0.086-0.441,0.209-0.644,0.287
			c-0.2,0.077-0.398,0.182-0.616,0.271l-0.011,0.018c-1.102,0.453-2.003,0.966-2.928,1.536l-0.011,0.01
			c-0.844,0.526-1.627,1.122-2.393,1.748c-0.123-0.105-0.246-0.208-0.366-0.305l-0.004-0.003c-1.021-0.817-2.118-1.462-3.236-1.97
			c-1.168-0.532-2.421-0.93-3.714-1.158c-0.626-0.11-1.298-0.18-2.019-0.181c-1.201-0.002-2.576,0.206-3.929,0.77l-0.179,0.076
			c-0.065,0.029-0.122,0.061-0.186,0.09c-0.835-0.442-1.702-0.823-2.596-1.101l-0.007-0.002c-1.061-0.323-2.24-0.589-3.71-0.596
			c-0.899-0.001-1.771,0.133-2.553,0.353c-0.634,0.178-1.202,0.409-1.72,0.665c-0.644-0.249-1.278-0.41-1.853-0.493l-0.021-0.003
			c-0.762-0.11-1.402-0.136-2.022-0.138c-0.618,0-1.212,0.031-1.819,0.081l-0.121,0.022c-0.693,0.079-1.836,0.211-1.836,0.366
			v-0.004c0,0.012-0.43,0.027-0.479,0.039c-0.062,0.016,0.479,0.028-0.521,0.044v0.005c0,0.149-0.934,0.32-1.479,0.517l0.104,0.003
			c-0.469,0.17-0.862,0.366-1.304,0.573c-0.397-0.216-0.774-0.421-1.195-0.602l0.006-0.003c-0.816-0.348-1.675-0.649-2.623-0.866
			c0.054-0.972,0.1-1.818,0.132-2.542c0.041-0.75,0.075-1.401,0.098-1.962c0.022-0.578,0.037-1.05,0.037-1.516
			c0-0.154-0.001-0.309-0.007-0.486c-0.006-0.181-0.012-0.376-0.04-0.675l-0.095-0.675c-0.12-0.658-0.337-1.354-0.653-2.016
			c-0.549-1.167-1.411-2.177-2.269-2.849c-0.645-0.512-1.277-0.859-1.84-1.104c-0.849-0.365-1.544-0.519-2.122-0.611
			c-0.579-0.088-1.05-0.109-1.464-0.11c-0.836,0.003-1.458,0.086-2.05,0.183c-0.58,0.098-1.117,0.218-1.664,0.357
			c-0.639,0.162-1.213,0.369-1.759,0.592l-0.002-0.004c-0.596,0.224-1.149,0.473-1.684,0.739c-0.424,0.212-0.875,0.448-1.356,0.711
			c-2.512,1.375-4.078,4.042-4.057,6.904c0.009,1.125,0.017,2.192,0.024,3.212c-0.314-0.02-0.625-0.033-0.93-0.033
			c-0.169,0-0.338,0.003-0.507,0.008l-0.138,0.006c-1.725,0.087-3.463,0.393-5.145,0.973c-1.362,0.468-2.675,1.13-3.883,1.944
			c-0.04-0.029-0.083-0.063-0.123-0.091c-0.623-0.427-1.185-0.708-1.69-0.924l-0.017-0.007c-1.5-0.637-3.111-0.921-4.602-0.917
			c-1.491-0.004-3.077,0.28-4.536,0.878l1.091,2.679c-0.001,0-0.001-0.001-0.002-0.001l-1.09-2.677
			c-0.448,0.183-0.936,0.435-1.441,0.748c-0.262-0.134-0.526-0.253-0.789-0.356c-0.742-0.294-1.322-0.468-2-0.565
			c-0.029-0.234,0.061-0.471,0.061-0.704v-0.008c-1-2.573-1.614-4.981-3.048-6.998l-0.079-0.01c-0.842-1.186-1.864-2.226-2.93-3.126
			c-1.067-0.902-2.232-1.671-3.438-2.341l-0.014-0.002c-2.854-1.57-5.937-2.365-9.254-2.788l-0.065-0.008
			c-0.979-0.114-1.938-0.186-2.887-0.235c-0.383-0.25-0.752-0.449-1.092-0.611l-0.01-0.004c-0.816-0.382-1.563-0.584-2.214-0.701
			c-0.651-0.116-1.215-0.149-1.718-0.15c-0.978,0.004-1.741,0.123-2.449,0.266c-0.9,0.181-1.828,0.467-2.739,0.889
			c-0.916,0.423-1.812,0.986-2.612,1.669l-0.003,0.003c-0.354,0.305-0.721,0.652-1.088,1.061c-1.646,0.771-3.204,1.752-4.612,3.024
			c-1.04,0.943-2.011,2.043-2.815,3.354c-0.798,1.296-1.414,2.814-1.705,4.418c-0.118,0.635-0.187,1.306-0.187,1.994
			c-0.006,1.391,0.292,2.859,0.852,4.149l0.002,0.005c0.622,1.458,1.551,2.781,2.611,3.837c0.901,0.903,1.922,1.683,3.004,2.316
			c0.097,0.057,0.2,0.109,0.3,0.165c-0.006,1.726-0.009,3.463-0.009,5.22c0,2.399-0.024,4.677-0.064,6.875
			c-1.752,0.941-3.076,2.492-3.71,4.392c-0.052,0.155-0.098,0.323-0.146,0.487c-0.123-0.912-0.407-1.808-0.854-2.639
			c-0.192-0.358-0.419-0.69-0.661-1.01c0.019-0.6,0.041-1.252,0.07-1.965c0.054-1.33,0.117-2.749,0.189-4.253
			c0.073-1.532,0.139-2.958,0.194-4.28c0.058-1.373,0.089-2.545,0.089-3.57c-0.002-0.548-0.006-1.001-0.053-1.612
			c-0.013-0.157-0.029-0.328-0.057-0.537c-0.021-0.158-0.048-0.336-0.091-0.563c-0.034-0.17-0.076-0.366-0.144-0.613
			c-0.109-0.375-0.238-0.849-0.646-1.637c-0.211-0.395-0.496-0.878-0.997-1.465c-0.5-0.577-1.243-1.289-2.399-1.88
			c-0.291-0.147-0.781-0.351-1.09-0.452c-0.886-0.282-1.396-0.331-1.818-0.38c-0.413-0.04-0.717,0.108-0.987,0.107
			c-0.268,0-0.499,0.175-0.721,0.175h-0.022c-0.994,0-1.875,0.077-2.698,0.3c-0.034,0.01-0.069-0.053-0.104-0.043
			c-0.452-0.134-0.911-0.283-1.372-0.339l-0.033-0.023c-0.414-0.051-0.699-0.081-1.067-0.081c-1.055,0.003-1.61,0.15-2.61,0.352
			v-0.002c0,0.01-0.182-0.082-0.219-0.072c-0.014,0.004-0.082-0.091-0.096-0.091h-0.027c-0.25,0-0.428,0.224-0.576,0.271
			c-0.256,0.086-0.458,0.21-0.661,0.288c-0.201,0.077-0.407,0.183-0.624,0.271l-0.02,0.02c-1.096,0.452-1.998,0.964-2.923,1.534
			l-0.007,0.007c-0.039,0.024-0.074,0.054-0.113,0.079c-0.034-0.033-0.065-0.07-0.1-0.103l-0.007-0.006
			c-0.938-0.903-2.136-1.661-3.382-2.12c-1.249-0.467-2.509-0.646-3.629-0.644c-1.129-0.001-2.305,0.158-3.437,0.496
			c-0.308,0.091-0.61,0.198-0.909,0.314c-0.255-0.07-0.5-0.128-0.72-0.171c-0.682-0.125-1.218-0.206-1.681-0.208
			c-0.267,0-0.508-0.029-0.73-0.029h-0.01c-1.396,0-2.641,0.478-3.78,0.89c-0.265,0.096-0.523,0.239-0.784,0.346
			c-0.902-0.735-1.928-1.365-3.045-1.833c-1.528-0.646-3.175-0.941-4.73-0.958c-0.064-0.978-0.203-1.966-0.462-2.988
			c-0.336-1.313-0.884-2.693-1.777-4.011l-0.013-0.018c-0.557-0.815-1.206-1.609-1.978-2.349c-0.771-0.739-1.667-1.421-2.677-1.977
			l-0.163-0.087c-1.88-0.984-3.94-1.5-5.922-1.633l-0.541-0.019c-1.295,0-2.622,0.143-3.939,0.475
			c-1.975,0.49-3.913,1.438-5.521,2.74c-0.212,0.17-0.401,0.358-0.601,0.538c-0.401-0.474-0.833-0.936-1.331-1.357
			c-0.378-0.32-0.748-0.564-1.151-0.794c-0.036-0.022-0.066-0.039-0.101-0.059c-0.47-0.323-0.951-0.604-1.501-0.823l-0.216-0.092
			L47.053,3.52c-0.966-0.439-2.226-0.789-3.626-0.787c-0.556,0-1.123,0.055-1.676,0.165c-1.671,0.331-3.125,1.187-4.215,2.37
			c-0.283-0.384-0.603-0.752-0.952-1.088c-1.046-1.022-2.319-1.708-3.449-2.067c-1.141-0.366-1.983-0.46-2.84-0.462
			C29.059,1.651,28.2,1.862,27.2,2.144V2.142c0,0.015-0.397,0.034-0.453,0.05C26.664,2.217,26.2,2.24,26.2,2.267V2.27
			c0,0.194-1.123,0.408-1.734,0.65l0.063,0.001c-1.129,0.454-2.104,1.007-3.066,1.629c-0.333,0.216-0.622,0.462-0.915,0.722
			c-0.293-0.398-0.608-0.786-0.983-1.139c-0.91-0.874-2.021-1.52-3.065-1.889l-0.032-0.012c-0.751-0.263-1.373-0.381-1.915-0.454
			c-0.543-0.07-1.007-0.09-1.435-0.09c-0.338,0-0.653,0.014-0.955,0.035l-0.164,0.014c-0.775,0.071-1.549,0.213-2.308,0.408
			L9.688,2.137C9.649,2.146,9.614,2.16,9.577,2.169C9.534,2.181,9.49,2.187,9.447,2.199l0.002,0.007
			C7.784,2.637,6.284,3.339,4.95,4.188c-2.902,1.847-4.477,5.36-3.574,8.645C1.388,12.913,1.2,13.149,1.2,13.499v-0.016
			c1,0.8,1,1.784,1,2.926v-0.005c0,0.392-0.19,0.791-0.19,1.195c0,0.798-0.345,1.633-0.366,2.503
			C1.606,21.511,2.2,22.873,1.2,24.187v-0.012c0,1.351,0,2.924,0,4.737v-0.009c0,0.857,0.172,1.731,0.158,2.618
			c-1.564,2.233-1.782,5.166-0.628,7.705c0.158,0.348,0.32,0.701,0.521,1.055C1.241,40.604,1.2,40.936,1.2,41.244v-0.007
			c0,1.033-0.014,1.897-0.07,2.556l0.037-0.018c-0.065,0.736-0.128,1.471-0.224,2.209L0.68,46.201
			C0.615,46.831,1.2,47.475,0.2,48.133v0.01c0,0.766,0.049,1.405-0.025,1.934c-0.312,2.209,0.446,4.408,1.882,6.113
			c1.436,1.707,3.558,2.705,5.786,2.775c0.301,0.01,0.632,0.014,0.934,0.014c1.21-0.001,2.414-0.076,3.664-0.305l0.021-0.002
			c0.718-0.135,1.456-0.316,2.227-0.588c0.769-0.273,1.582-0.635,2.42-1.17l0.006-0.003c0.64-0.409,1.288-0.909,1.905-1.526
			c0.371-0.371,0.722-0.799,1.054-1.254c0.484,0.609,0.993,1.201,1.549,1.756c0.937,0.938,2.077,1.818,3.45,2.484
			c1.365,0.669,2.965,1.088,4.549,1.142l0.293,0.005c0.881,0,1.719-0.065,2.556-0.168l0.231-0.188
			c0.751-0.116,1.492-0.612,2.263-0.612h0.006c1.165,0,2.274-0.533,3.321-1.025c1.367-0.643,2.479-1.584,3.261-2.817
			c0.845-0.069,1.7-0.163,2.559-0.39c1.32-0.346,2.64-0.887,3.839-1.658c0.241-0.154,0.473-0.318,0.707-0.484
			c0.626,0.608,1.348,1.131,2.166,1.509c1.215,0.564,2.605,0.963,4.052,1.078c0.306,0.026,0.611,0.042,0.92,0.042
			c1.121,0.001,2.173-0.172,3.117-0.436l0.023-0.006c1.237-0.348,2.333-0.934,3.206-1.587c0.358-0.268,0.676-0.546,0.972-0.827
			c0.863,0.634,1.789,1.187,2.764,1.605c2.129,0.928,4.374,1.297,6.521,1.294c1.276,0,2.597-0.143,3.919-0.491
			c1.178-0.309,2.35-0.798,3.44-1.444c0.176,0.125,0.354,0.248,0.539,0.36c0.757,0.461,1.611,0.837,2.493,1.078
			c0.884,0.246,1.79,0.357,2.644,0.356c0.488,0,0.959-0.035,1.408-0.097l0.014-0.002c1.419-0.195,2.813-0.649,4.057-1.297
			l-0.011,0.006c0.377-0.195,0.747-0.398,1.144-0.642c0.398-0.247,0.818-0.522,1.35-0.962c0.727-0.607,1.316-1.323,1.766-2.107
			c0.514,0.629,1.071,1.235,1.711,1.773c0.867,0.73,1.842,1.352,2.865,1.828c1.68,0.793,3.61,1.225,5.477,1.218
			c0.353,0,0.703-0.015,1.052-0.042l0.17-0.016c1.289-0.127,2.546-0.477,3.71-0.965c0.405,0.183,0.818,0.358,1.257,0.496
			c1.05,0.331,2.188,0.511,3.313,0.509c0.549-0.001,1.104-0.021,1.729-0.089c0.626-0.074,1.319-0.181,2.217-0.475
			c0.681-0.229,1.216-0.479,1.627-0.711c0.348-0.2,0.915-0.389,0.915-0.57v0.002c0-0.01-0.016-0.019-0.002-0.028
			c0.033-0.024,0.053-0.05,0.085-0.074l-0.014-0.006c0.935-0.702,1.525-1.394,1.982-2.005c0.475-0.646,0.8-1.229,1.081-1.787
			c0.127-0.252,0.231-0.512,0.328-0.773c0.042,0.637,0.135,1.313,0.299,2.028l-0.01,0.002c0.011,0.049,0.027,0.293,0.039,0.342
			c0.008,0.032,0.01,0.286,0.019,0.286h0.006c0.242,1,0.649,1.93,1.409,3.068c0.691,1.027,1.604,1.754,2.68,2.354
			c1.17,2.567,3.685,4.356,6.675,4.519c0.269,0.014,0.541-0.002,0.816-0.002c1.018,0,2.034-0.129,3.021-0.331l0.002,0.004
			c0.047-0.009,0.091-0.026,0.138-0.035c0.036-0.008,0.074-0.012,0.11-0.02l-0.002-0.009c0.995-0.201,1.951-0.477,2.87-0.818
			l0.008-0.003c0.465-0.172,0.915-0.379,1.355-0.602c2.148-0.077,4.284-0.41,6.334-1.086l0.004-0.002
			c2.451-0.806,4.786-2.02,6.811-3.68c0.671-0.547,1.292-1.156,1.888-1.792c0.649,0.498,1.334,0.957,2.069,1.33l-0.003-0.002
			c1.921,0.992,4.111,1.47,6.162,1.46c1.044,0,2.138-0.128,3.219-0.418c0.536-0.144,1.067-0.328,1.583-0.549
			c0.241,0.078,0.481,0.146,0.719,0.204c0.959,0.235,1.874,0.322,2.723,0.322c0.622,0,1.236-0.04,1.834-0.113l0.165-0.022
			c0.172-0.024,0.382-0.052,0.619-0.079l0.039-0.005c0.921-0.109,1.843-0.334,2.706-0.656c0.389-0.145,0.756-0.327,1.11-0.527
			c0.688,0.349,1.396,0.654,2.121,0.889c1.702,0.556,3.449,0.791,5.146,0.789c1.276,0.001,2.596-0.143,3.918-0.49
			c1.247-0.327,2.49-0.853,3.636-1.559c0.245,0.22,0.495,0.434,0.755,0.615c0.945,0.664,1.924,1.053,2.764,1.266
			c0.848,0.213,1.571,0.168,2.188,0.17c0.49,0,0.918-0.189,1.304-0.189h0.012c1.193,0,2.298-0.402,3.287-0.832l0.019,0.042
			c0.241-0.105,0.484-0.21,0.727-0.331c0.45,0.346,0.968,0.686,1.563,0.973l-0.004,0.015c0.24,0.118,0.449,0.218,0.674,0.304
			c0.013,0.005,0.015,0.015,0.015,0.02v-0.003c1,0.197,1.021,0.321,1.441,0.399c0.611,0.111,1.128,0.14,1.56,0.141
			c0.646-0.002,1.138-0.064,1.557-0.133c0.365-0.062,0.675-0.134,0.961-0.207c0.637-0.152,1.191-0.317,1.869-0.527l0.011-0.004
			c0.567-0.18,1.175-0.39,1.839-0.631c0.183,0.064,0.365,0.126,0.542,0.176l0.062,0.018c0.993,0.271,2.015,0.4,2.995,0.398
			c0.325,0,0.647-0.014,0.965-0.039l0.018-0.002c0.646-0.055,1.295-0.135,1.945-0.243c0.32-0.054,0.454-0.083,0.768-0.168
			c0.926-0.252,2.008-0.709,3.063-1.49c0.52,0.408,1.054,0.72,1.564,0.972c1.488,0.752,3.151,1.154,4.667,1.154h0.028
			c0.125,0,0.26,0.03,0.407,0.03c1.286,0.002,2.686-0.198,4.043-0.71l-0.004,0.008c0.335-0.126,0.707-0.283,1.124-0.501
			c0.772,0.519,1.613,0.917,2.429,1.163c1.017,0.311,1.757,0.417,2.608,0.417c1.108-0.007,2.539-0.164,2.539-0.356v0.002
			c0-0.005,0.264-0.012,0.285-0.017c0.088-0.022,0.293-0.043,0.379-0.065l0.054-0.006c0.651-0.165,1.284-0.354,1.878-0.577
			c0.537-0.202,1.047-0.428,1.514-0.669c1.646,0.751,3.521,1.164,5.334,1.157c0.353,0,0.707-0.015,1.055-0.042l0.172-0.016
			c1.289-0.127,2.546-0.477,3.711-0.965c0.404,0.182,0.818,0.357,1.256,0.495c1.051,0.332,2.191,0.512,3.315,0.51
			c0.548-0.001,1.104-0.021,1.729-0.089c0.626-0.074,1.316-0.18,2.217-0.475c0.188-0.063,0.359-0.128,0.521-0.193
			c0.675,0.315,1.307,0.504,1.859,0.62c0.717,0.147,1.317,0.186,1.837,0.187c0.515,0,0.952-0.04,1.346-0.093l0.016-0.002
			c1.16-0.16,2.189-0.47,3.122-0.841l0.004-0.002c0.295-0.118,0.591-0.251,0.888-0.392c0.756,0.598,1.686,1.137,2.73,1.482
			l0.591,0.171c0.856,0.209,1.489,0.24,2.011,0.244c0.775-0.004,1.447-0.088,1.896-0.172c0.443-0.086,0.281-0.182,1.281-0.28v-0.002
			c0-0.134,0.797-0.274,1.331-0.45l-0.049-0.009c0.466-0.157,0.881-0.33,1.343-0.519c0.717,0.348,1.37,0.555,1.952,0.677
			c0.716,0.147,1.308,0.278,1.825,0.278c0.516,0,0.944,0,1.339,0h0.011c1.162,0,2.193-0.563,3.126-0.935l0.004-0.048
			c0.292-0.117,0.584-0.286,0.876-0.425c0.758,0.601,1.69,1.133,2.742,1.48l0.602,0.169c0.847,0.205,1.478,0.233,1.999,0.237
			c0.775-0.004,1.31-0.089,1.758-0.173c0.444-0.086,1.142-0.184,1.142-0.282v-0.002c0-0.134,0.938-0.275,1.474-0.452l0.013-0.006
			c0.969-0.326,1.874-0.709,2.916-1.186c2.512-1.15,4.382-3.514,4.677-6.262C319.476,44.832,319.2,43.04,318.2,41.553z
			 M39.577,11.123L39.577,11.123L39.577,11.123L39.577,11.123z M21.575,7.008l0.016,0.036c-0.003-0.006-0.007-0.013-0.01-0.02
			C21.579,7.019,21.577,7.014,21.575,7.008z M2.495,41.948c0.004,0.005,0.009,0.01,0.013,0.015c0.004,0.004,0.007,0.009,0.011,0.014
			L2.495,41.948z M20.69,53.207c0.002-0.004,0.004-0.009,0.006-0.013c0.001-0.001,0.001-0.001,0.001-0.001L20.69,53.207z
			 M27.359,54.535c0.001,0.001,0.003,0.002,0.004,0.003c0.001,0.002,0.003,0.004,0.005,0.006L27.359,54.535z M97.528,44.633
			c0,0,0.001,0.001,0.001,0.002c0.001,0.001,0.001,0.003,0.002,0.004L97.528,44.633z M310.58,24.429
			c-0.002-0.001-0.004-0.003-0.006-0.005c-0.001-0.001-0.002-0.001-0.003-0.002L310.58,24.429z M186.563,19.832
			C186.563,19.832,186.563,19.832,186.563,19.832c-0.002,0.001-0.003,0.001-0.004,0.002L186.563,19.832z M127.741,13.22
			c-0.001,0.001-0.001,0.002-0.002,0.003c0,0.001-0.001,0.002-0.002,0.003L127.741,13.22z M241.075,52.988l-0.004-0.003
			C241.072,52.986,241.073,52.986,241.075,52.988C241.075,52.988,241.075,52.988,241.075,52.988z M299.457,50.1L299.457,50.1
			c0.001,0.001,0.001,0.003,0.002,0.004L299.457,50.1z"/>
		<path fill="#FFFFFF" d="M317.943,27.406c0.003,0.01,0.004,0.019,0.007,0.028c0.002,0.01,0.006,0.02,0.009,0.03L317.943,27.406z"/>
	</g>
	<g>
		<polygon fill="#211915" points="16.776,50.954 16.772,50.96 16.772,50.96 		"/>
		<polygon fill="#211915" points="17.432,8.804 17.435,8.813 17.438,8.819 		"/>
		<polygon fill="#211915" points="35.34,20.189 35.34,20.188 35.339,20.187 		"/>
		<polygon fill="#211915" points="49.222,11.628 49.223,11.63 49.224,11.632 		"/>
		<path fill="#211915" d="M55.269,50.267c-0.006-0.001-0.012-0.002-0.019-0.002c-0.005-0.001-0.009-0.001-0.014-0.001L55.269,50.267
			z"/>
		<polygon fill="#211915" points="82.644,49.415 82.64,49.412 82.638,49.411 		"/>
		<polygon fill="#211915" points="96.472,42.316 96.472,42.313 96.471,42.313 		"/>
		<polygon fill="#211915" points="96.101,37.407 96.101,37.403 96.102,37.389 		"/>
		<polygon fill="#211915" points="117.234,49.559 117.229,49.561 117.228,49.561 		"/>
		<path fill="#211915" d="M119.2,42.358c0-0.014,0-0.024,0-0.038c0-0.151,0-0.324,0-0.516v-0.008c0-0.972-0.038-2.131,0.016-3.47
			c0.055-1.344,0.072-2.774,0.146-4.288c0.073-1.525,0.116-2.942,0.171-4.252c0.055-1.331,0.073-2.45,0.073-3.38
			c-0.001-0.48-0.014-0.86-0.044-1.248c-0.019-0.202-0.036-0.392-0.106-0.716c-0.041-0.168-0.087-0.369-0.241-0.715
			c-0.08-0.174-0.19-0.39-0.403-0.668c-0.214-0.271-0.547-0.633-1.128-0.932c-0.123-0.062-0.329-0.147-0.459-0.19
			c-0.395-0.125-0.639-0.152-0.852-0.176c-0.21-0.021-0.38-0.125-0.544-0.125c-0.162,0-0.316-0.087-0.473-0.087h-0.009
			c-0.61,0-1.193,0.246-1.773,0.403c-0.489,0.133-0.965,0.362-1.427,0.573c-0.01-0.006-0.017,0.011-0.026,0.004
			c-0.512-0.332-1.145-0.557-1.776-0.634L110.33,21.9c-0.217-0.026-0.37-0.034-0.571-0.034c-0.588,0.001-1.559,0.096-1.559,0.229
			v-0.003c0,0.004-0.088,0.229-0.104,0.234c-0.006,0.001-0.04,0.224-0.046,0.224h-0.014c-0.274,0-0.437-0.087-0.639-0.014
			c-0.208,0.077-0.438,0.057-0.704,0.165l-0.009-0.052c-0.748,0.307-1.468,0.673-2.25,1.157l-0.004-0.012
			c-0.863,0.537-1.703,1.169-2.544,1.904c-0.345,0.301-0.663,0.637-0.983,0.973c-0.144-0.412-0.311-0.816-0.504-1.205l-0.006-0.012
			c-0.422-0.842-0.996-1.619-1.682-2.273l-0.003-0.003c-0.517-0.497-1.16-0.904-1.842-1.156c-0.683-0.255-1.387-0.36-2.05-0.359
			c-1.439-0.01-2.915,0.427-4.114,1.227l-0.005,0.003c-0.039,0.026-0.075,0.056-0.114,0.083c-0.033-0.025-0.063-0.063-0.097-0.086
			c-0.535-0.387-1.025-0.544-1.416-0.633c-0.395-0.086-0.713,0.088-1,0.086c-0.145,0-0.28,0.207-0.41,0.207h-0.005
			c-0.885,0-1.732,0.081-2.563,0.382c-0.749,0.272-1.456,0.493-2.119,0.86l-0.003-0.046c-0.359,0.204-0.688,0.372-1.094,0.713
			c-0.026,0.023-0.056,0.038-0.083,0.063c-0.324-0.563-0.712-1.098-1.17-1.563l-0.003-0.006c-0.747-0.763-1.648-1.4-2.651-1.82
			c-1.002-0.423-2.088-0.625-3.157-0.623c-1.957-0.006-3.893,0.523-5.603,1.497c-0.739,0.417-1.429,0.915-2.08,1.464
			c-0.248-0.888-0.841-1.651-1.68-2.068c-0.017-0.008-0.035-0.013-0.053-0.021c0.403-0.097,0.81-0.208,1.224-0.346
			c0.923-0.308,1.772-0.775,2.553-1.347c0.868-0.637,1.367-1.652,1.342-2.729c-0.023-0.984-0.132-1.923-0.363-2.832
			c-0.231-0.906-0.592-1.789-1.138-2.593l-0.005-0.008c-0.806-1.181-1.826-2.215-3.105-2.92L65.836,8.57
			c-1.28-0.669-2.7-1.035-4.149-1.134l-0.228-0.008c-1.923-0.005-3.775,0.44-5.414,1.41c-1.643,0.963-2.845,2.406-3.845,4.088v0.002
			c-1,1.626-1.605,3.469-2.053,5.515c-0.291,1.326-0.505,2.75-0.636,4.256c-0.099,0.026-0.312,0.051-0.312,0.078v0.001
			c0,0.021-0.162,0.028-0.249,0.057c-0.146,0.048-0.305,0.117-0.459,0.194c-0.024-0.025-0.047-0.054-0.071-0.079l-0.003-0.002
			c-0.747-0.763-1.649-1.398-2.651-1.818c-0.1-0.042-0.202-0.071-0.302-0.108c0.161-0.158,0.317-0.31,0.484-0.477l0.005-0.004
			c0.647-0.65,1.264-1.304,1.845-1.966c0.326-0.372,0.615-0.728,0.88-1.113c0.241-0.36,0.473-0.734,0.675-1.274l0.004,0.001
			c0.005-0.013,0.007-0.029,0.013-0.042c0.013-0.036,0.026-0.065,0.039-0.102l-0.01-0.003c0.221-0.613,0.354-1.279,0.353-1.949
			c0.001-0.875-0.204-1.721-0.529-2.463c-0.464-1.069-1.133-2.078-2.072-2.874c-0.21-0.178-0.402-0.305-0.648-0.429l-0.025-0.014
			l-0.001,0c-0.26-0.208-0.524-0.363-0.834-0.487c-0.137-0.054-0.279-0.115-0.426-0.182l-0.02-0.009
			c-0.49-0.223-1.102-0.389-1.77-0.388c-0.266,0-0.534,0.026-0.798,0.079c-1.462,0.29-2.525,1.528-2.628,2.996
			c-0.091,0.173-0.183,0.343-0.278,0.499l-0.601,0.899c-0.338,0.469-0.746,1.071-1.264,1.856l-0.002,0.002
			c-0.52,0.789-1.238,1.863-2.148,3.211c-0.245,0.363-0.407,0.746-0.495,1.175c-0.06,0.287-0.091,0.585-0.091,0.88
			c-0.001,0.453,0.075,0.919,0.218,1.343c0.099,0.297,0.219,0.601,0.372,0.906l0.006,0.012c0.168,0.331,0.362,0.638,0.577,0.925
			l0.086,0.11c0.047,0.057,0.106,0.108,0.155,0.165c-1.471,0.913-2.771,2.095-3.849,3.506c-1.202,1.571-1.962,3.384-2.628,5.381
			C29.372,33.253,29.2,35.44,29.2,37.7c0,0.008,0,0.016,0,0.024c-1-0.432-0.658-0.85-0.918-1.302
			c-0.92-1.604-1.901-3.227-2.783-4.868l-0.042-0.003c-0.458-0.849-0.903-1.637-1.3-2.369c0.814-0.998,1.61-2.007,2.395-3.042
			c1.241-1.636,2.371-3.213,3.399-4.737c1.015-1.503,1.894-2.878,2.647-4.131c0.771-1.293,1.331-2.347,1.72-3.385l0.049-0.144
			c0.273-0.861,0.667-1.761,0.667-2.687c0-0.328,0.166-0.659,0.166-0.989v-0.002c-1-0.482-0.434-1.012-0.707-1.539
			c-0.203-0.394-0.599-0.779-0.936-1.105c-0.507-0.494-1.184-0.831-1.758-1.015c-0.579-0.186-1.145-0.217-1.637-0.218
			c-0.744,0.001-1.441,0.36-2.086,0.36h-0.008c-0.011,0,0.131-0.018,0.12-0.015C28.143,6.549,28.2,6.537,28.2,6.552v0.002
			c-1,0.15-1.201,0.333-1.77,0.56c-0.795,0.319-1.638,0.508-2.402,1.003c-0.902,0.584-1.531,1.432-1.566,2.432h-0.008
			c0.004,0-0.104,0.582-0.303,1.088c-0.197,0.512-0.951,1.422-0.951,2.243v-0.001c-1,1.634-2.031,3.625-3.637,5.89
			c0.016-0.392,0.229-0.774,0.246-1.146c0.074-1.536,0.391-2.853,0.391-3.947v-0.003c0-1.127,0.058-1.908,0.059-2.472
			c0-0.488-0.059-0.936-0.059-1.347v-0.019c0-0.628-0.307-1.312-0.611-2.021c-0.207-0.488-0.612-0.992-1.051-1.406
			c-0.437-0.418-1.008-0.729-1.523-0.911L14.981,6.49c-0.738-0.251-1.311-0.279-1.855-0.286c-0.215,0-0.43,0.008-0.642,0.023
			l0.159,0.005C12.083,6.284,11.2,6.387,11.2,6.532V6.529c0,0.003-0.479,0.009-0.494,0.013C10.688,6.547,10.2,6.55,10.2,6.555v0.003
			c-1,0.289-2.02,0.661-3.045,1.313c-1.271,0.808-1.718,2.677-1.247,3.677h0.054c0.002,0,0.07,0.271,0.104,0.509
			C6.102,12.297,6.2,12.754,6.2,13.161v-0.006c0,0.909,0,1.976,0,3.188V16.34c0,0.412,0.068,0.832,0.068,1.258
			c0,0.84,0.026,1.714,0.003,2.622C6.234,21.63,6.2,22.994,6.2,24.311v-0.005c0,1.312,0,2.859,0,4.651v-0.003
			c0,1.368-0.086,2.785-0.111,4.229c-0.076,0.088-0.185,0.171-0.258,0.262l-0.021,0.01c-0.075,0.095-0.146,0.166-0.193,0.213
			c-0.971,0.967-1.243,2.443-0.676,3.69c0.259,0.569,0.759,1.119,1.16,1.634c-0.024,0.834,0.1,1.643,0.1,2.396v-0.003
			c0,1.093,0,2.029-1,2.794v-0.007c0,0.798,0.093,1.595-0.011,2.393l0.13,0.092C5.249,47.346,5.2,48.052,5.2,48.774v0.004
			c0,0.768-0.216,1.408-0.289,1.928c-0.131,0.931,0.127,1.856,0.732,2.575c0.605,0.72,1.469,1.141,2.408,1.17
			c0.257,0.008,0.508,0.17,0.758,0.17c1.004,0,1.932-0.072,2.824-0.072h0.006c1.058-1,2.061-1,3.036-1h0.002
			c0.798-1,1.562-1.437,2.095-2.369c0.498-0.854,0.591-1.998,0.584-2.982c0-0.281-0.156-0.936-0.156-1.705v-0.008
			c0-0.82,0.211-1.813,0.211-2.986c0-0.932,0.084-1.965,0.072-3.054c0.346,0.677,0.514,1.349,0.849,2.011
			c0.754,1.49,1.868,2.826,1.868,4.005v0.003c1,0.602,0.802,1.111,1.035,1.539c0.235,0.43,0.539,0.768,0.736,1.08l0,0
			c0.771,1.342,1.733,2.559,2.786,3.611c0.644,0.644,1.411,1.204,2.258,1.615c0.843,0.411,1.807,0.658,2.761,0.691l0.13,0.002
			c0.646,0,1.312-0.049,2.003-0.135l0.099,0.025c0.592-0.092,1.22-0.344,1.894-0.344h0.002c0.842,0,1.664-0.542,2.466-0.919
			c1.072-0.505,1.79-1.567,1.879-2.749c0.018-0.232,0.003-0.471-0.027-0.696c0.646,0.098,1.303,0.151,1.97,0.151
			c0.94,0,1.869-0.107,2.769-0.346c0.898-0.234,1.766-0.607,2.552-1.112c1.257-0.806,2.36-1.793,3.238-2.956
			c0.687-0.909,1.242-1.88,1.647-2.909c0.126,1.291,0.268,2.612,0.434,3.986c0.138,1.134,0.849,2.11,1.886,2.589
			c0.786,0.364,1.648,0.605,2.534,0.677c0.181,0.015,0.361,0.023,0.543,0.023c0.659,0,1.3-0.101,1.905-0.271l0.01-0.002
			c0.653-0.184,1.243-0.496,1.736-0.863c0.494-0.369,0.9-0.791,1.248-1.232c0.486-0.62,0.737-1.411,0.698-2.197
			c-0.074-1.465-0.147-2.904-0.221-4.318c-0.072-1.396,0.042-2.793-0.013-4.188c-0.054-1.396,0.043-2.827,0.043-4.292v-0.004
			c0-0.46-0.201-0.947-0.212-1.427c0.083,0.008,0.072,0.012,0.159,0.022c0.177,0.021,0.268,0.048,0.355,0.072l0.102,0.042
			c0.116,0.058,0.226,0.095,0.346,0.139c-0.566,1.893-0.861,3.88-0.86,5.933c0,1.665,0.204,3.255,0.665,4.749
			c0.459,1.49,1.18,2.881,2.15,4.078c1.002,1.247,2.303,2.251,3.772,2.885c1.469,0.641,3.071,0.92,4.718,0.919
			c0.94,0,1.869-0.27,2.768-0.507c0.898-0.235,1.766-0.275,2.551-1.275h0.003c1.076,0,2.031-1.359,2.838-2.313
			c0.065,0.281,0.148,0.649,0.271,0.947c0.16,0.383,0.382,0.822,0.686,1.199c0.302,0.375,0.69,0.743,1.129,1.009
			c0.826,0.512,1.845,1.004,2.791,0.996c0.271,0,0.536,0.161,0.794,0.161h0.006c0.904-1,1.789-0.619,2.599-1.04l-0.004-0.101
			c0.302-0.156,0.581-0.362,0.852-0.528c0.271-0.168,0.532-0.201,0.819-0.44c1.185-0.99,1.511-2.891,0.805-3.891H91.2l0,0h0.039
			c-0.006,0-0.039-0.48-0.039-0.702v-0.006c0-0.496-0.119-0.968-0.147-1.41l-0.008-0.149c-0.035-0.316-0.051-0.643-0.051-0.984
			c0-0.166,0.007-0.338,0.015-0.514l0.006-0.17c-0.001-0.703,0.096-1.597,0.316-2.654c0.085-0.407,0.19-0.792,0.298-1.174
			c0.749,0.778,1.833,1.149,2.901,0.972c0.58-0.098,1.104-0.279,1.587-0.506c-0.004,0.052-0.013,0.101-0.017,0.153
			c-0.036,0.468-0.055,0.93-0.055,1.384c0,1.216,0.133,2.397,0.426,3.527c0.373,1.454,0.956,2.808,1.809,3.989l-0.005-0.008
			c0.856,1.203,2.024,2.199,3.368,2.82c1.108,0.521,2.342,0.797,3.566,0.793c0.231,0,0.463-0.009,0.694-0.027l0.079-0.006
			c1.126-0.111,2.217-0.475,3.217-1.012v0.002c0-0.014-0.069-0.031-0.04-0.046c0.055-0.03,0.04-0.054,0.04-0.085v-0.003
			c1-0.161,0.731-0.341,1.021-0.536c0.109,0.111,0.276,0.223,0.404,0.33c0.104,0.088,0.229,0.158,0.345,0.232
			c1.062,0.697,2.391,1.141,3.727,1.134c0.422-0.001,0.831-0.017,1.237-0.062c0.404-0.047,0.818-0.287,1.29-0.441
			c0.599-0.205,0.954,0.16,1.267-0.84h0.002c0.004,0,0.008,0.166,0.012,0.163c0.016-0.012,0.033,0.063,0.049,0.052l-0.002,0.04
			c0.471-0.352,0.795-0.698,1.061-1.054c0.273-0.373,0.486-0.732,0.679-1.116c0.478-0.953,0.556-2.079,0.052-3.019
			C120.055,43.078,119.2,42.66,119.2,42.358z M107.384,37.363l0.003-0.073c0.216-1.21,0.813-2.142,0.813-2.78v-0.002
			c0-0.089,0.098-0.167,0.143-0.251c-0.023,0.276-0.043,0.563-0.067,0.857C107.96,36.089,107.651,36.851,107.384,37.363z
			 M42.493,13.631L42.493,13.631l-0.02-0.008C42.48,13.626,42.486,13.628,42.493,13.631z M39.412,24.021L39.412,24.021l-0.003,0
			C39.41,24.02,39.411,24.021,39.412,24.021z M49.417,36.23c-0.19-0.121-0.39-0.213-0.59-0.292c0.324-0.534,0.624-1.084,0.882-1.659
			c0.003,0.036,0.005,0.069,0.008,0.105l-0.002-0.032c0.047,0.688,0.101,1.433,0.157,2.215
			C49.732,36.445,49.581,36.331,49.417,36.23z M68.748,41.836l-0.003-0.001C68.746,41.835,68.747,41.835,68.748,41.836
			L68.748,41.836z M59.945,20.627l0.015-0.001c-0.002,0-0.004,0-0.006,0C59.951,20.627,59.948,20.627,59.945,20.627z M45.958,13.128
			c0.001-0.002,0.002-0.005,0.003-0.007c0.001-0.002,0.002-0.003,0.003-0.005L45.958,13.128z M28.22,10.927v-0.002V10.927
			L28.22,10.927z M22.421,24.336l-0.013,0.018c0.003-0.004,0.005-0.007,0.008-0.011C22.418,24.341,22.419,24.338,22.421,24.336z
			 M12.634,32.097c0.003,0.001,0.005,0.002,0.008,0.003c-0.003,0.002-0.005,0.005-0.008,0.007
			C12.634,32.103,12.634,32.1,12.634,32.097z M6.007,39.108c0.002,0.002,0.004,0.004,0.006,0.006
			c0.001,0.002,0.002,0.004,0.004,0.006L6.007,39.108z M49.835,40.758L49.835,40.758l0.004,0.002L49.835,40.758z M84.727,44.854
			c0,0.002,0.001,0.003,0.001,0.004s0,0.001,0,0.002L84.727,44.854z M114.522,47.414c0.001,0.001,0.002,0.001,0.003,0.002
			c0.001,0,0.001,0.001,0.001,0.001L114.522,47.414z"/>
		<path fill="#211915" d="M126.865,15.517c0-0.001,0.001-0.003,0.001-0.005c0.001-0.006,0.002-0.013,0.003-0.02L126.865,15.517z"/>
		<polygon fill="#211915" points="138.877,4.696 138.891,4.693 138.906,4.689 		"/>
		<polygon fill="#211915" points="172.333,49.085 172.331,49.083 172.33,49.083 		"/>
		<polygon fill="#211915" points="160.101,46.787 160.1,46.786 160.096,46.781 		"/>
		<polygon fill="#211915" points="198.869,48.209 198.868,48.208 198.863,48.202 		"/>
		<polygon fill="#211915" points="209.312,48.262 209.31,48.258 209.31,48.258 		"/>
		<polygon fill="#211915" points="202.874,8.245 202.877,8.245 202.883,8.243 		"/>
		<polygon fill="#211915" points="267.012,22.053 267.015,22.053 267.016,22.052 		"/>
		<path fill="#211915" d="M270.677,49.557C270.677,49.557,270.677,49.557,270.677,49.557c-0.007,0.002-0.012,0.005-0.018,0.007
			L270.677,49.557z"/>
		<polygon fill="#211915" points="273.479,48.83 273.471,48.821 273.46,48.813 		"/>
		<polygon fill="#211915" points="283.153,47.955 283.151,47.949 283.147,47.944 		"/>
		<path fill="#211915" d="M313.799,43.65c-0.057-0.207-0.129-0.414-0.225-0.605c0-0.001-0.022-0.047-0.046-0.163
			c-0.027-0.134-0.061-0.263-0.104-0.393l-0.003-0.009c-0.021-0.063-0.162-0.404-0.16-0.93c0-0.201-0.061-0.432-0.061-0.687v-0.006
			c0-1.203,0-2.485,0-3.845v-0.002c1-1.442,1-2.853,1-4.231v-0.004c0-0.302-0.107-0.599-0.107-0.893
			c-0.003-1.163-0.16-2.225-0.438-3.269c-0.345-1.351-1.201-2.593-2.244-3.458c-0.793-0.669-1.679-1.326-2.622-1.742
			c-0.852-0.376-1.746-0.866-2.665-0.866h-0.002c-0.363,0-0.69,0.011-1.094,0.01c-0.206,0.001-0.431,0.054-0.746,0.104
			c-0.159,0.027-0.343,0.338-0.57,0.413c-0.142,0.048-0.309-0.527-0.489,0.473h-0.003c-0.385,0-0.616,0.138-0.805,0.299
			c-0.206,0.182-0.351,0.216-0.482,0.37c-0.326-0.297-0.693-0.604-1.055-0.752c-0.611-0.258-1.158-0.348-1.604-0.349
			c-0.149,0-0.434-0.008-0.566,0.004c-0.79,0.078-1.508,0.236-2.508,0.482v0.003c0,0.108-1,0.248-1,0.411v-0.002
			c0,0.009,0.04,0.023,0.015,0.033c-0.035,0.015-0.015,0.026-0.015,0.042v0.002c0,0.134-0.723,0.276-1.078,0.445
			c-0.412,0.195-0.832,0.401-1.222,0.617c-0.38,0.21-0.712,0.493-0.975,0.821c-0.253-0.296-0.526-0.574-0.819-0.816
			c-0.796-0.67-1.668-1.327-2.609-1.742c-0.852-0.376-1.732-0.866-2.65-0.866h-0.004c-0.363,0-0.689,0.011-1.093,0.01
			c-0.206,0.001-0.431,0.054-0.746,0.104c-0.159,0.027-0.343-0.16-0.571-0.085c-0.139,0.047-0.304-0.029-0.48-0.029l-0.003,1
			c-0.388,0-0.621,0.138-0.812,0.3c-0.207,0.183-0.352,0.216-0.483,0.37c-0.326-0.297-0.692-0.604-1.054-0.752
			c-0.612-0.259-1.159-0.349-1.604-0.351c-0.149,0-0.29-0.008-0.423,0.004c-0.76,0.075-1.438,0.232-2.271,0.464l0,0
			c-0.002,0-0.008-0.002-0.01-0.002c-0.03,0.008-0.093,0.011-0.093,0.02v0.002c0,0.108-1,0.248-1,0.41v-0.001
			c0,0.007,0.055,0.017,0.036,0.024c-0.042,0.019-0.036,0.033-0.036,0.052v0.003c-1,0.134-0.864,0.276-1.219,0.444
			c-0.283,0.134-0.644,0.281-0.917,0.425c-0.016-0.144-0.081-0.3-0.13-0.525c-0.041-0.17-0.108-0.373-0.266-0.722
			c-0.082-0.175-0.205-0.393-0.421-0.671c-0.217-0.272-0.558-0.63-1.136-0.924c-0.123-0.062-0.313-0.139-0.443-0.182
			c-0.396-0.126-0.641-0.152-0.855-0.177c-0.209-0.021-0.38-0.125-0.544-0.125c-0.162,0-0.317-0.087-0.474-0.087h-0.01
			c-0.607,0-1.189,0.245-1.771,0.403c-0.49,0.133-0.966,0.362-1.429,0.573c-0.009-0.006-0.015,0.011-0.024,0.005
			c-0.511-0.332-1.146-0.558-1.777-0.635l-0.016,0.005c-0.216-0.026-0.586-0.034-0.787-0.034c-0.589,0.001-0.781,0.097-1.781,0.229
			v-0.003c0,0.004,0.129,0.229,0.113,0.234c-0.004,0.001,0.071,0.223,0.067,0.223h0.04c-0.274,0-0.368-0.086-0.571-0.013
			c-0.207,0.077-0.649-0.053-0.649,0.054v0.002c-1,0.308-1.507,0.702-2.29,1.186l-0.022,0.002c-0.861,0.537-1.711,1.175-2.552,1.91
			c-0.952,0.833-1.814,1.803-2.598,2.89c-0.196,0.273-0.362,0.575-0.542,0.862c-0.029-0.256-0.063-0.504-0.101-0.74
			c-0.063-0.38-0.133-0.735-0.249-1.126l-0.031-0.097c-0.217-0.64-0.536-1.137-0.865-1.542c-0.332-0.406-0.684-0.73-1.05-1.025
			l-0.001-0.001c-0.696-0.556-1.466-1.014-2.286-1.387c-0.843-0.383-1.726-0.663-2.63-0.822c-0.399-0.07-0.81-0.112-1.233-0.112
			c-0.707-0.001-1.466,0.12-2.195,0.423l-0.075,0.032c-0.834,0.381-1.423,0.867-1.977,1.4c-0.006-0.004-0.011-0.01-0.016-0.014
			c-0.551-0.472-1.149-0.889-1.784-1.256l-0.003,0.162c-0.688-0.397-1.421-0.788-2.179-0.788h-0.003
			c-0.754-1-1.521-0.555-2.374-0.558c-0.935-0.001-1.794,0.197-2.479,0.573c-0.676,0.37-1.22,0.787-1.711,1.285
			c-0.237-0.301-0.52-0.481-0.849-0.708c-0.564-0.397-1.202-0.591-1.756-0.591h-0.009c-0.463,0-0.904-0.212-1.364-0.213
			c-0.459,0-0.937-0.038-1.446,0.004l0.016-0.022c-0.488,0.055-1.346,0.124-1.346,0.25v-0.001c0,0.005,0.025,0.013,0.003,0.018
			c-0.024,0.007-0.003,0.011-0.003,0.018v0.002c-1,0.108-1.077,0.243-1.535,0.409l-0.094,0.001c-0.57,0.207-1.169,0.46-1.705,0.752
			c-0.5,0.272-0.926,0.678-1.223,1.153c-0.138-0.136-0.281-0.279-0.43-0.401l-0.007-0.002c-0.792-0.664-1.677-1.219-2.629-1.626
			l-0.005,0.206c-0.848-0.361-1.702-0.548-2.603-0.548h-0.003c-0.362,0-0.698-0.292-1.102-0.293c-0.204,0-0.426-0.096-0.709-0.054
			c-0.285,0.048-0.637,0.06-1.134,0.304l-0.062,0.016c0.082-1.616,0.238-3.042,0.238-4.196v-0.002c0-1.274,0.113-2.335,0.15-3.199
			c0.082-1.516,0.118-2.559,0.119-3.273c-0.001-0.245-0.005-0.437-0.031-0.733l-0.042-0.285c-0.101-0.584-0.401-1.225-0.813-1.69
			c-0.306-0.353-0.65-0.609-0.967-0.786c-0.477-0.265-0.887-0.374-1.229-0.439c-0.345-0.063-0.633-0.078-0.899-0.079
			c-0.472,0.001-0.88,0.051-1.303,0.121c-0.42,0.071-1.047,0.166-1.507,0.283c-0.443,0.112-0.478,0.265-1.478,0.439V8.682
			c0,0.005,0.172,0.013,0.158,0.018c-0.045,0.019,0.009,0.034-0.035,0.054l0.052,0.005c-0.36,0.142-0.692,0.294-1.052,0.473
			c-0.369,0.185-0.759,0.395-1.195,0.634c-1.058,0.579-1.711,1.703-1.702,2.909c0.029,3.885,0.057,7.14,0.074,9.786
			c-0.405-0.366-0.835-0.703-1.3-0.979l-0.001-0.001c-1.293-0.776-2.762-1.079-4.188-1.076c-0.119,0-0.237,0.002-0.357,0.006
			l-0.058,0.002c-1.353,0.068-2.663,0.304-3.901,0.731c-1.237,0.426-2.398,1.046-3.432,1.841c-1.078,0.825-2.021,1.788-2.844,2.843
			c0.002-0.04,0.006-0.069,0.006-0.112c0.002-0.481-0.097-1-0.287-1.459c-0.284-0.697-0.74-1.22-1.163-1.567
			c-0.429-0.353-0.836-0.565-1.215-0.728l-0.008-0.003c-0.907-0.385-1.889-0.563-2.845-0.561c-0.957-0.002-1.933,0.176-2.834,0.545
			l1.24,3.045l-1.24-3.045c-0.593,0.244-1.273,0.629-1.861,1.341c-0.289,0.352-0.58,0.781-0.738,1.24
			c-0.162,0.458-0.273,0.935-0.273,1.371v1.022c0,0.756,0,1.669,0,2.747V29.76c0,1.016,0,2.086,0,3.211v-0.002
			c-1,1.129-0.529,2.272-0.771,3.428c-0.136,0.654-0.378,1.242-0.54,1.776c-0.049-0.614,0.067-1.184,0.067-1.682
			c0-0.667,0.243-1.422,0.243-2.262v-0.007c0-0.829,0-1.682,0-2.559v-0.006c0-0.9,0-1.771,0-2.613v-0.003
			c1-0.842,0.535-1.551,0.691-2.11c0.248-0.894,0.203-1.861-0.294-2.644c-0.396-0.633-0.954-1.22-1.646-1.591
			c-0.69-0.377-1.394-0.544-2.047-0.586c-0.184-0.012-0.354,0.074-0.536,0.074c-0.733,0-1.448,0.365-2.155,0.365h-0.005
			c-0.297,0-0.586,0.164-0.874,0.257c0.018-0.086,0.041-0.257,0.057-0.257h0.002c0.002,0,0.003,0.02,0.006,0.008
			c0.003-0.017,0.008-0.008,0.011-0.008h-0.003c0.149-1,0.101-1.672,0.101-2.461c0-0.749-0.308-1.64-0.308-2.406v-0.003
			c0-1.826-0.914-3.556-2.006-5.095l0.059-0.004c-1.201-1.691-2.825-3.04-4.791-4.132l0.014-0.001
			c-2.156-1.191-4.686-1.887-7.61-2.255l-0.022-0.003c-1.403-0.164-2.741-0.245-4.033-0.257c-0.061-0.067-0.119-0.136-0.181-0.195
			c-0.396-0.381-0.798-0.622-1.163-0.795l-0.004-0.002c-0.784-0.36-1.445-0.416-2.01-0.422c-0.563,0.001-1.061,0.074-1.562,0.177
			c-1.178,0.234-2.352,0.748-3.311,1.569c-0.42,0.36-0.824,0.776-1.184,1.321c-1.673,0.674-3.163,1.542-4.416,2.674
			c-0.777,0.705-1.457,1.486-1.997,2.367c-0.539,0.876-0.932,1.858-1.117,2.886c-0.07,0.379-0.131,0.77-0.131,1.166
			c-0.002,0.803,0.465,1.628,0.465,2.369v0.002c0,0.912,0.988,1.97,1.68,2.659c0.623,0.624,1.351,0.841,2.114,1.841h-0.002
			c0.732,0,1.508,0.549,2.33,0.783c0.072,0.021,0.145-0.084,0.217-0.069c-0.015,2.703-0.022,5.381-0.022,8.165
			c0,2.8-0.027,5.441-0.081,7.979c-0.02,0.896-0.04,1.72-0.063,2.529c-0.717-0.168-1.466-0.114-2.144,0.204
			c-0.818,0.385-1.434,1.074-1.721,1.931c-0.213,0.644-0.363,1.334-0.364,2.104c0,0.106,0.003,0.001,0.008,0.089
			c0.026,0.489,0.093,1.286,0.213,1.286h-0.004c0.005,0,0.012,0.492,0.017,0.514c0.004,0.013,0.005-0.514,0.008,0.486h0.002
			c0.144,0,0.377,0.994,0.785,1.605c0.32,0.477,0.75,0.731,1.264,0.988c0.46,0.229,0.936,0.356,1.436,0.524l0.153-0.027
			c0.011,0.004,0.175-0.023,0.175-0.021c0,0.01,0,0.02,0,0.029c0,1.746,1.223,3.188,2.965,3.283c0.189,0.01,0.517,0.016,0.709,0.016
			c0.734,0,1.326-0.083,2.326-0.235v0.004c0-0.004-0.015-0.01,0.004-0.014c0.017-0.003-0.004-0.004-0.004-0.008v-0.003
			c0-0.149,1.363-0.366,2.119-0.646l-0.074-0.002c0.597-0.221,1.123-0.516,1.657-0.857c0.101,0.002,0.183,0.006,0.283,0.006
			c2.046,0,4.001-0.286,5.842-0.893c1.999-0.658,3.81-1.615,5.362-2.887c1.525-1.246,2.783-2.763,3.701-4.485
			c0.256-0.477,0.474-0.97,0.668-1.472c0.352,0.832,0.786,1.621,1.342,2.331c0.847,1.09,1.92,2.008,3.155,2.636
			c1.264,0.65,2.689,0.969,4.105,0.965c1.364,0.007,2.776-0.352,3.966-1.086c0.233-0.143,0.46-0.295,0.681-0.455
			c0.107,0.08,0.209,0.169,0.323,0.237c1.043,0.636,2.207,0.866,3.273,0.863c0.432,0,0.859-0.027,1.281-0.079l0.069-0.01
			c0.221-0.031,0.474-0.064,0.755-0.098l0.016-0.002c0.568-0.066,1.131-0.203,1.665-0.403c1.024-0.382,1.765-1.252,2.023-2.303
			c0.282,0.287,0.575,0.565,0.89,0.818c0.977,0.79,2.099,1.396,3.295,1.784c1.196,0.391,2.459,0.567,3.746,0.566
			c0.94,0,1.868-0.105,2.768-0.342c0.897-0.236,1.764-0.607,2.55-1.111l0.003-0.002c1.188-0.762,2.233-1.692,3.087-2.775
			c0.013,0.051,0.017,0.101,0.031,0.151c0.192,0.671,0.506,1.394,1.085,2.066c0.179,0.207,0.33,0.382,0.462,0.528
			c0.138,0.152,0.237,0.266,0.389,0.417l0.004-0.004c0.419,0.428,0.928,0.745,1.393,0.913c0.57,0.21,1.068,0.396,1.49,0.397
			c0.252,0,0.482,0.089,0.698,0.089h0.005c0.736,0,1.44-0.45,2.101-0.737l0.009-0.071c0.585-0.256,1.154-0.597,1.694-0.967
			c0.364-0.255,0.753-0.574,1.15-1.089c0.159-0.211,0.313-0.482,0.451-0.781c0.152,0.454,0.327,0.893,0.596,1.358
			c0.236,0.402,0.519,0.806,0.914,1.204c0.328,0.329,0.775,0.641,1.303,0.889l-0.01,0.021c0.078,0.037,0.146,0.057,0.219,0.087
			c0.033,0.013,0.056,0.033,0.089,0.046l0.003-0.009c0.574,0.22,0.873,0.254,1.227,0.261c0.553-0.007,1.146-0.086,1.146-0.179v0.227
			c1-0.113,1.349-0.259,2.039-0.259h0.005c0.739-1,1.634-0.777,2.733-1.195c0.238-0.09,0.455-0.329,0.662-0.468
			c0.072,0.06,0.135,0.073,0.21,0.127c0.437,0.313,0.911,0.494,1.356,0.619l0.025-0.008c0.594,0.162,1.205,0.095,1.805,0.095
			c0.199,0,0.398-0.17,0.596-0.17h0.007c0.526,0,1.054,0.028,1.583-0.06c0.135-0.023,0.19,0.034,0.323-0.003
			c0.536-0.145,0.97-0.364,1.522-0.802c0.553-0.432,1.133-1.042,1.133-1.693v0.01c1-0.705,0.575-1.339,0.677-2.019
			c0.01-0.07,0.136-0.153,0.142-0.239c0.033-0.184,0.182-0.365,0.182-0.558c0-0.015,0-0.035,0-0.051
			c0-0.064-0.004-0.128,0.002-0.191c0.068-0.771,0.318-1.928,0.842-3.361c0.262-0.72,0.681-1.428,0.949-2.132
			c0.018,0.989,0.207,1.936,0.207,2.834v-0.003c0,0.9,0,1.706,0,2.409c0,0.733,0,1.283,0,1.649c0,0.719,0.018,1.583,0.486,2.354
			c0.459,0.775,1.095,1.592,1.767,1.919c0.882,0.444,1.787,0.937,2.733,0.937h0.013c0.083,0,0.17-0.229,0.262-0.229
			c0.813,0.002,1.654-0.247,2.456-0.548c0.422-0.166,0.884-0.418,1.455-0.9c0.281-0.244,0.594-0.609,0.854-1.088
			c0.26-0.471,0.438-1.234,0.433-1.844c0-0.076-0.015-0.391-0.021-0.391h0.01c-0.035,0-0.061-0.98-0.078-1.533
			c-0.009-0.262-0.015-0.479-0.019-0.767c0.024-0.164,0.048-0.298,0.048-0.468c-0.002-0.28,0.038-0.852,0.139-1.633
			c0.021-0.17,0.275-0.358,0.303-0.54c-0.02,0.376,0.16,0.754,0.16,1.087v-0.003c0,0.899-0.078,1.536-0.078,2.054
			c0,0.504-0.922,1.005,0.078,1.502v0.008c0,0.714,0.008,1.5,0.314,2.189c0.33,0.75,0.64,1.104,1.35,2.104h-0.002
			c0.457,0,0.988,0.571,1.51,0.729c0.524,0.159,0.811,0.191,1.286,0.191c0.647-0.004,1.542-0.136,1.542-0.278v0.004
			c0-0.006,0.482-0.015,0.509-0.021c0.021-0.005,0.491-0.008,0.491-0.013v-0.003c0-0.115,0.538-0.609,1.038-0.609h-0.003
			c0.724,0,1.392-0.551,2.053-0.975c0.338-0.217,0.609-0.463,0.842-0.774c0.59,0.511,1.244,0.968,1.953,1.295
			c1.109,0.521,2.343,0.808,3.567,0.804c0.231,0,0.463-0.004,0.694-0.022l-0.141-0.004c1.125-0.111,1.996-0.472,2.996-1.009v0.002
			c0-0.021,0.457-0.047,0.5-0.067c0.041-0.023,0.5-0.042,0.5-0.065V48.73c0-0.161,0.451-0.341,0.74-0.536
			c0.111,0.113,0.141,0.226,0.271,0.335c0.105,0.088,0.155,0.154,0.271,0.229c1.059,0.697,2.355,1.141,3.691,1.134
			c0.422-0.001,0.813-0.017,1.219-0.062c0.407-0.047,0.813-0.115,1.289-0.273c0.599-0.207,0.95-0.445,1.255-0.665l-0.001,0.001
			c0.004-0.003,0.007-0.006,0.011-0.009c0.016-0.011,0.032-0.022,0.048-0.034l-0.002-0.003c0.336-0.25,0.598-0.51,0.816-0.768
			c0.068,0.082,0.146,0.177,0.21,0.251c0.148,0.171,0.28,0.319,0.453,0.491c0.499,0.5,1.086,0.791,1.571,0.937
			c0.496,0.149,0.912,0.012,1.273,0.014c0.27,0,0.512-0.223,0.741-0.223h0.006c0.723,0,1.404-0.129,2.063-0.391
			c0.647-0.26,1.267-0.491,1.848-0.889c0.345-0.238,0.701-0.477,1.065-0.906c0.187-0.223,0.38-0.481,0.547-0.817
			c0.145,0.463,0.31,0.92,0.565,1.393c0.243,0.449,0.555,0.912,0.995,1.34c0.438,0.426,1.025,0.82,1.705,1.045l0.249,0.074
			c0.381,0.094,0.673,0.109,0.922,0.111c0.37-0.002,0.51-0.042,0.76-0.089c0.199-0.039,0.418-0.088,0.418-0.138v0.003
			c0-0.008,0.199,0.132,0.229,0.124c0.014-0.004,0.097,0.14,0.11,0.14h0.034c0.396,0,0.837-0.387,1.372-0.564l0.019-0.079
			c0.723-0.242,1.524-0.61,2.473-1.045c0.304-0.14,0.571-0.35,0.813-0.564c0.014,0.016,0.031,0.027,0.045,0.043
			c0.148,0.172,0.281,0.315,0.455,0.487c0.5,0.502,1.087,0.788,1.572,0.934c0.496,0.149,0.911,0.011,1.272,0.013
			c0.27,0,0.512-0.224,0.742-0.224h0.004c0.724,0,1.406-0.129,2.065-0.391c0.648-0.26,1.268-0.492,1.845-0.886l0.002,0.04
			c0.347-0.24,0.704-0.5,1.069-0.932c0.186-0.222,0.378-0.489,0.543-0.823c0.146,0.464,0.311,0.916,0.564,1.389
			c0.243,0.445,0.554,0.903,0.995,1.332c0.437,0.427,1.025,0.822,1.706,1.047l0.254,0.074c0.377,0.092,0.668,0.108,0.917,0.11
			c0.37-0.002,0.871-0.043,1.122-0.09c0.198-0.039-0.223-0.088,0.777-0.138v0.003c0-0.008-0.162,0.132-0.131,0.124
			c0.014-0.004-0.085,0.14-0.071,0.14h-0.057c0.395,0,0.793-0.387,1.328-0.564l-0.007-0.078c0.727-0.244,1.515-0.611,2.463-1.046
			c1.058-0.484,1.771-1.5,1.896-2.657C314.723,45.267,314.411,44.336,313.799,43.65z M214.364,47.045l-0.004-0.006
			c0.001,0.001,0.002,0.002,0.002,0.003C214.363,47.043,214.363,47.044,214.364,47.045z M190.111,40.497
			c-0.147-0.104-0.28-0.229-0.446-0.501l-0.003-0.004c-0.181-0.303-0.344-0.694-0.462-1.221c-0.131-0.59-0.195-1.179-0.195-1.786
			c-0.001-0.667,0.039-1.258,0.097-1.809c0.348,0.289,0.714,0.545,1.093,0.754c0.982,0.546,2.225,0.74,3.203,0.739
			c0.209,0-0.197-0.014,0.803-0.03v0.003c0,0-0.15-0.005-0.137-0.005c0.012-0.001-0.066-0.001-0.055-0.002
			c-0.348,0.332-0.678,0.709-0.854,1.073l-0.105,0.178c-0.038,0.093-0.213,0.433-0.463,0.896c-0.119,0.222-0.326,0.514-0.645,0.856
			l-0.005,0.002c-0.227,0.243-0.524,0.484-0.944,0.724c-0.146,0.077-0.312,0.144-0.714,0.148
			C190.171,40.513,190.125,40.501,190.111,40.497z M187.923,33.896l-0.007-0.009C187.918,33.891,187.921,33.894,187.923,33.896
			L187.923,33.896z M193.377,30.085l-0.005,0c0.003-0.004,0.004-0.008,0.007-0.012l0.048-0.078l0.011-0.015
			C193.417,30.02,193.397,30.056,193.377,30.085z M197.543,35.293c0.003,0.133,0.002,0.259,0.004,0.391
			c-0.169-0.043-0.335-0.073-0.494-0.092c0.176-0.121,0.328-0.267,0.489-0.404v0.04L197.543,35.293z M205.189,27.512l0.001-0.002v0
			C205.19,27.511,205.189,27.511,205.189,27.512z M162.628,30.664l0.001-0.006c0,0.001,0,0.002-0.001,0.004
			C162.628,30.662,162.628,30.663,162.628,30.664z M147.482,41.807c-0.377,0.596-0.88,1.044-1.396,1.418
			c-0.32,0.231-0.575,0.415-0.946,0.576c-0.012-0.715,0.06-1.461,0.06-2.273v-0.002c0-1.497-0.188-2.944-0.224-4.646
			c0.623,0.1,1.054-0.331,1.565,0.669h-0.003c0.476,0,0.793,0.352,1.127,0.856c0.045,0.071,0.098,0.092,0.146,0.285
			c0.049,0.192,0.252,0.431,0.252,0.807c0,0.178,0.136,0.332,0.136,0.547v-0.004C148.2,40.804,147.772,41.336,147.482,41.807z
			 M148.654,18.314c0.608,0.371,1.007,0.758,1.315,1.205c0.209,0.329,0.299,0.578,0.31,1.09c-0.01,0.838-0.192,1.455-0.627,2.144
			c-0.552,0.851-1.241,1.584-2.134,2.246c-0.881,0.65-1.85,1.169-2.914,1.585c-0.041-2.209-0.06-4.258-0.06-6.14
			c0-1.193,0.009-2.3,0.024-3.334c0.576,0.059,1.141,0.146,1.688,0.272C147.23,17.608,148.015,17.929,148.654,18.314z M158.2,30.823
			v-0.002c0,0.735-0.185,1.424-0.213,2.072c-0.031-0.048-0.112-0.1-0.145-0.148l-0.029-0.002c-0.318-0.479-0.7-0.921-1.095-1.339
			c0.457-0.355,0.998-0.736,1.416-1.136C158.124,30.451,158.2,30.641,158.2,30.823z M138.281,8.114
			c-0.002,0.009-0.003,0.021-0.005,0.03h-0.001L138.281,8.114z M196.753,44.115C196.753,44.115,196.753,44.115,196.753,44.115
			c0.001-0.001,0.002-0.002,0.002-0.002L196.753,44.115z M287.767,46.879l-0.008-0.014c0.002,0.004,0.005,0.008,0.007,0.012
			C287.767,46.878,287.767,46.878,287.767,46.879z M286.664,43.964L286.664,43.964L286.664,43.964L286.664,43.964z M281.072,24.855
			c-0.001,0.001-0.001,0.002-0.002,0.002c0,0,0,0,0,0L281.072,24.855z M260.821,37.368l0.016-0.078
			c0.215-1.209,0.516-2.14,0.825-2.78l0.003-0.004c0.042-0.088,0.086-0.165,0.129-0.248c-0.023,0.276-0.048,0.562-0.072,0.855
			C261.405,36.093,261.089,36.855,260.821,37.368z M267.962,47.414c0.001,0.001,0.002,0.001,0.003,0.002
			c0.001,0,0.001,0.001,0.001,0.001L267.962,47.414z M308.046,46.879l-0.013-0.023c0.003,0.005,0.006,0.01,0.009,0.016
			C308.044,46.873,308.044,46.876,308.046,46.879z"/>
		<polygon fill="#211915" points="294.083,24.536 294.083,24.536 294.086,24.534 		"/>
		<path fill="#211915" d="M313.587,28.592c0.002,0.007,0.003,0.015,0.005,0.023c0,0,0.001,0.001,0.001,0.002L313.587,28.592z"/>
		<polygon fill="#211915" points="293.757,48.83 293.749,48.821 293.738,48.813 		"/>
	</g>
	<g>
		<path fill="#FFFFFF" d="M9.388,28.99c0.018-1.777,0.045-3.306,0.082-4.589c0.036-1.319,0.072-2.684,0.109-4.094
			c0.037-1.41,0.046-2.748,0.027-4.012c-0.019-1.264-0.064-2.391-0.137-3.38c-0.074-0.989-0.184-1.704-0.33-2.143
			c0.806-0.513,1.594-0.86,2.363-1.044c0.402-0.11,0.806-0.183,1.209-0.22c0.513-0.036,0.897-0.008,1.154,0.083
			c0.256,0.092,0.439,0.266,0.549,0.522c0.111,0.257,0.174,0.559,0.193,0.907c0.018,0.349,0.027,0.742,0.027,1.182
			c0,0.44-0.027,1.209-0.082,2.308c-0.056,1.099-0.12,2.418-0.193,3.957c-0.073,1.539-0.129,3.234-0.164,5.083
			c-0.037,1.851-0.055,3.729-0.055,5.633c0.988-1.135,1.986-2.29,2.994-3.462c1.008-1.172,1.877-2.271,2.611-3.297
			c1.941-2.674,3.425-5.029,4.451-7.062c1.025-2.034,1.539-3.453,1.539-4.259c0.622-0.403,1.209-0.714,1.758-0.934
			c0.55-0.22,1.025-0.385,1.43-0.495c0.439-0.146,0.842-0.22,1.209-0.22c0.805,0,1.254,0.349,1.346,1.044
			c0.092,0.696,0.009,1.448-0.247,2.253c-0.257,0.696-0.741,1.64-1.456,2.83c-0.715,1.191-1.566,2.52-2.556,3.984
			c-0.989,1.466-2.089,2.995-3.298,4.589s-2.455,3.142-3.736,4.644c0.659,1.209,1.438,2.647,2.336,4.314
			c0.896,1.667,1.813,3.316,2.747,4.946s1.822,3.132,2.665,4.507c0.843,1.373,1.539,2.391,2.089,3.05
			c0.696,0.915,1.265,1.63,1.704,2.144c0.439,0.512,0.824,0.934,1.154,1.264c0.329,0.33,0.649,0.604,0.961,0.824
			c0.311,0.22,0.688,0.476,1.127,0.77c-0.623,0.293-1.236,0.513-1.842,0.66c-0.604,0.146-1.145,0.256-1.621,0.329
			c-0.586,0.073-1.117,0.11-1.594,0.11c-0.988-0.037-1.914-0.486-2.775-1.348c-0.861-0.86-1.621-1.877-2.28-3.049
			c-0.257-0.404-0.687-1.191-1.292-2.363c-0.604-1.172-1.282-2.501-2.033-3.984c-0.751-1.484-1.529-3.004-2.335-4.562
			c-0.807-1.557-1.503-2.921-2.089-4.094c-0.514,0.514-0.998,1.008-1.456,1.484c-0.458,0.477-0.944,0.917-1.456,1.319
			c0.035,1.613,0.063,3.124,0.082,4.534c0.018,1.411,0.027,2.692,0.027,3.847s-0.01,2.125-0.027,2.913
			c-0.02,0.787-0.027,1.347-0.027,1.677c0,0.439-0.109,0.852-0.33,1.236c-0.22,0.385-0.559,0.723-1.017,1.016
			s-1.081,0.514-1.868,0.66c-0.789,0.146-1.75,0.201-2.885,0.164c0.072-0.513,0.164-1.153,0.273-1.923
			c0.11-0.77,0.201-1.521,0.275-2.253c0.109-0.843,0.201-1.686,0.275-2.528c0.072-0.843,0.127-1.831,0.164-2.968
			c0.036-1.135,0.073-2.363,0.11-3.682c-0.22-0.22-0.449-0.476-0.687-0.769c-0.239-0.293-0.449-0.641-0.633-1.044
			c0.146-0.146,0.293-0.311,0.439-0.495c0.146-0.183,0.293-0.348,0.439-0.495l0.495-0.495C9.341,32.608,9.368,30.767,9.388,28.99z"
			/>
		<path fill="#FFFFFF" d="M40.19,47.043c-2.564,0-4.543-0.86-5.936-2.583c-1.393-1.722-2.088-3.976-2.088-6.76
			c0-1.941,0.283-3.765,0.852-5.468s1.328-3.178,2.281-4.424c0.952-1.245,2.061-2.226,3.324-2.94
			c1.265-0.714,2.592-1.071,3.984-1.071c1.355,0,2.51,0.486,3.463,1.456c0.952,0.971,1.429,2.354,1.429,4.149
			c0,1.173-0.257,2.335-0.77,3.49s-1.182,2.18-2.006,3.078c-0.824,0.898-1.731,1.621-2.72,2.171
			c-0.99,0.549-1.943,0.824-2.858,0.824c-0.587,0-1.081-0.073-1.483-0.22c-0.404-0.146-0.77-0.366-1.1-0.66
			c0.109,2.089,0.568,3.545,1.374,4.369s1.85,1.236,3.132,1.236c0.88,0,1.658-0.183,2.336-0.55c0.678-0.365,1.255-0.787,1.731-1.264
			c0.476-0.476,0.86-0.961,1.154-1.456c0.293-0.495,0.495-0.87,0.604-1.127c0.109-0.22,0.303-0.33,0.577-0.33s0.412,0.22,0.412,0.66
			c0,0.403-0.138,1.017-0.412,1.841s-0.724,1.648-1.347,2.473s-1.42,1.549-2.391,2.172C42.765,46.731,41.583,47.043,40.19,47.043z
			 M42.719,26.159c-0.22,0-0.632,0.229-1.236,0.687c-0.604,0.458-1.246,1.127-1.924,2.006c-0.679,0.879-1.301,1.933-1.868,3.16
			c-0.568,1.228-0.926,2.61-1.072,4.149c2.199-0.513,3.938-1.319,5.221-2.418c1.283-1.099,1.924-2.71,1.924-4.836
			c0-1.062-0.129-1.786-0.385-2.171S42.901,26.159,42.719,26.159z M45.026,11.266c0.477,0.403,0.871,0.961,1.182,1.676
			c0.312,0.714,0.339,1.401,0.083,2.061c-0.11,0.33-0.431,0.797-0.962,1.401s-1.1,1.209-1.703,1.814
			c-0.605,0.604-1.164,1.146-1.677,1.621c-0.513,0.477-0.824,0.751-0.935,0.824c-0.184,0.184-0.494,0.229-0.934,0.138
			c-0.439-0.091-0.824-0.338-1.154-0.742c-0.109-0.146-0.201-0.293-0.275-0.439c-0.073-0.146-0.137-0.302-0.191-0.467
			s-0.064-0.338-0.027-0.522c0.915-1.355,1.639-2.437,2.17-3.243c0.531-0.805,0.943-1.41,1.236-1.813l0.66-0.989
			c0.183-0.293,0.357-0.604,0.521-0.934c0.166-0.33,0.248-0.696,0.248-1.099c0.183-0.036,0.375-0.009,0.576,0.082
			c0.201,0.092,0.395,0.174,0.578,0.248C44.605,11.028,44.808,11.156,45.026,11.266z"/>
		<path fill="#FFFFFF" d="M61.459,10.716c1.062,0.074,2.015,0.33,2.858,0.77c0.732,0.404,1.391,1.036,1.979,1.896
			c0.585,0.861,0.896,2.08,0.934,3.655c-0.55,0.403-1.1,0.696-1.648,0.879c-0.55,0.184-1.045,0.312-1.484,0.384
			c-0.514,0.074-1.008,0.074-1.483,0c0.146-1.025,0.155-1.813,0.027-2.363c-0.129-0.55-0.302-0.953-0.522-1.209
			c-0.256-0.293-0.586-0.458-0.988-0.495c-1.209,0-2.099,0.907-2.666,2.72c-0.568,1.813-0.906,4.296-1.017,7.447
			c0.513-0.073,0.97-0.165,1.374-0.275c0.402-0.11,0.86-0.183,1.373-0.22c0.477-0.036,0.936-0.055,1.375-0.055
			c0.402,0,0.814,0.037,1.236,0.11c0.42,0.074,0.814,0.202,1.182,0.385c0.072,0.624,0.072,1.191,0,1.704
			c-0.074,0.514-0.184,0.971-0.33,1.374c-0.146,0.439-0.349,0.861-0.604,1.264c-0.439-0.22-0.98-0.366-1.621-0.44
			c-0.642-0.073-1.255-0.11-1.841-0.11c-0.697,0-1.411,0.037-2.144,0.11c0.036,1.686,0.073,3.27,0.11,4.754
			c0.035,1.484,0.082,2.932,0.137,4.342c0.055,1.411,0.119,2.821,0.192,4.231c0.073,1.412,0.146,2.85,0.22,4.314
			c-0.403,0.514-0.834,0.833-1.291,0.962c-0.459,0.128-0.889,0.173-1.292,0.138c-0.477-0.037-0.953-0.165-1.429-0.385
			c-0.293-2.418-0.521-4.699-0.688-6.842c-0.164-2.144-0.302-4.021-0.412-5.634c-0.146-1.868-0.256-3.59-0.329-5.166
			c-0.624,0.074-1.146,0.12-1.566,0.138c-0.422,0.019-0.742,0.009-0.962-0.027c-0.146,0-0.22-0.11-0.22-0.33l-0.055-2.583
			c0-0.146,0.073-0.22,0.22-0.22c0.256-0.073,0.595-0.155,1.017-0.247c0.421-0.091,0.925-0.21,1.511-0.357
			c0.146-4.652,0.936-8.252,2.363-10.799C56.403,11.99,58.564,10.716,61.459,10.716z"/>
		<path fill="#FFFFFF" d="M72.396,47.043c-2.564,0-4.543-0.86-5.936-2.583c-1.393-1.722-2.088-3.976-2.088-6.76
			c0-1.941,0.283-3.765,0.852-5.468c0.567-1.704,1.327-3.178,2.281-4.424c0.951-1.245,2.061-2.226,3.324-2.94
			c1.264-0.714,2.592-1.071,3.984-1.071c1.355,0,2.51,0.486,3.463,1.456c0.951,0.971,1.428,2.354,1.428,4.149
			c0,1.173-0.256,2.335-0.77,3.49c-0.513,1.154-1.182,2.18-2.006,3.078c-0.824,0.898-1.73,1.621-2.72,2.171
			c-0.989,0.549-1.942,0.824-2.858,0.824c-0.586,0-1.08-0.073-1.483-0.22c-0.403-0.146-0.769-0.366-1.099-0.66
			c0.109,2.089,0.567,3.545,1.373,4.369c0.807,0.824,1.85,1.236,3.133,1.236c0.879,0,1.658-0.183,2.336-0.55
			c0.678-0.365,1.254-0.787,1.73-1.264c0.477-0.476,0.861-0.961,1.154-1.456s0.495-0.87,0.605-1.127
			c0.109-0.22,0.302-0.33,0.576-0.33c0.275,0,0.412,0.22,0.412,0.66c0,0.403-0.137,1.017-0.412,1.841
			c-0.274,0.824-0.724,1.648-1.346,2.473c-0.624,0.824-1.421,1.549-2.391,2.172C74.969,46.731,73.787,47.043,72.396,47.043z
			 M74.923,26.159c-0.219,0-0.631,0.229-1.236,0.687c-0.604,0.458-1.246,1.127-1.924,2.006c-0.678,0.879-1.301,1.933-1.867,3.16
			c-0.569,1.228-0.926,2.61-1.072,4.149c2.198-0.513,3.938-1.319,5.221-2.418c1.282-1.099,1.924-2.71,1.924-4.836
			c0-1.062-0.129-1.786-0.385-2.171C75.326,26.352,75.106,26.159,74.923,26.159z"/>
		<path fill="#FFFFFF" d="M98.17,29.567c0,0.513-0.138,1.035-0.412,1.566c-0.274,0.532-0.614,1.036-1.017,1.511
			c-0.404,0.477-0.852,0.889-1.347,1.237c-0.495,0.349-0.962,0.559-1.401,0.632c0.293-1.135,0.385-2.015,0.275-2.638
			c-0.11-0.623-0.294-1.081-0.55-1.374c-0.294-0.33-0.659-0.513-1.1-0.55c-0.659,0-1.291,0.376-1.896,1.127
			c-0.605,0.751-1.127,1.667-1.566,2.748c-0.439,1.081-0.789,2.235-1.045,3.462c-0.256,1.228-0.385,2.336-0.385,3.325
			c-0.036,0.696-0.018,1.373,0.056,2.033c0.036,0.549,0.101,1.118,0.192,1.703c0.091,0.587,0.229,1.045,0.412,1.375
			c-0.22,0.184-0.577,0.402-1.072,0.658c-0.494,0.257-1.008,0.422-1.538,0.495c-0.532,0.073-1.009-0.019-1.429-0.274
			c-0.422-0.256-0.651-0.806-0.688-1.648c-0.074-0.806-0.119-1.713-0.137-2.721c-0.02-1.008-0.02-2.015,0-3.023
			c0.018-1.007,0.045-2.006,0.082-2.995c0.036-0.989,0.091-1.904,0.165-2.748c0.073-1.612,0.11-2.858,0.11-3.737
			s-0.02-1.722-0.056-2.528c0-0.146,0.247-0.357,0.742-0.632c0.495-0.274,1.044-0.522,1.648-0.742s1.163-0.348,1.677-0.385
			c0.512-0.036,0.77,0.074,0.77,0.33c0,0.404-0.047,1.201-0.139,2.391c-0.092,1.191-0.211,2.428-0.356,3.71
			c0.256-0.696,0.595-1.447,1.017-2.253c0.421-0.805,0.906-1.557,1.457-2.253c0.549-0.695,1.172-1.272,1.867-1.731
			c0.696-0.458,1.466-0.687,2.309-0.687c0.66,0,1.199,0.202,1.621,0.604c0.422,0.404,0.76,0.861,1.018,1.374
			c0.256,0.514,0.439,1.026,0.549,1.539C98.115,28.981,98.17,29.347,98.17,29.567z"/>
		<path fill="#FFFFFF" d="M115.812,43.636c0.073,0.257,0.184,0.495,0.33,0.714c0.109,0.184,0.266,0.357,0.467,0.522
			s0.448,0.267,0.742,0.302c-0.257,0.514-0.514,0.861-0.77,1.045c-0.146,0.109-0.275,0.184-0.385,0.22
			c-0.33,0.11-0.824,0.165-1.484,0.165c-0.658,0-1.301-0.201-1.923-0.604c-0.22-0.183-0.422-0.458-0.604-0.825
			c-0.184-0.292-0.34-0.705-0.467-1.236c-0.129-0.53-0.229-1.217-0.303-2.061c-0.514,1.1-1.09,1.97-1.73,2.61
			c-0.643,0.642-1.273,1.108-1.896,1.401c-0.697,0.404-1.411,0.641-2.144,0.715c-0.916,0.072-1.786-0.082-2.61-0.467
			s-1.521-0.971-2.088-1.76c-0.568-0.787-0.999-1.748-1.292-2.885c-0.294-1.135-0.385-2.418-0.274-3.847
			c0.109-1.502,0.402-2.839,0.879-4.012c0.476-1.172,1.044-2.216,1.703-3.132c0.66-0.916,1.355-1.694,2.089-2.336
			c0.732-0.64,1.438-1.172,2.116-1.594c0.678-0.42,1.264-0.732,1.758-0.934c0.495-0.201,0.815-0.32,0.963-0.357
			c0.402-0.11,0.75-0.146,1.043-0.11c0.293,0.037,0.551,0.202,0.77,0.495c0.073,0.11,0.166,0.239,0.275,0.385
			c0.072,0.147,0.164,0.339,0.274,0.577c0.11,0.239,0.201,0.504,0.274,0.797c-0.879,0.404-1.703,0.852-2.473,1.347
			s-1.475,1.09-2.115,1.786c-0.643,0.697-1.201,1.539-1.677,2.528c-0.477,0.989-0.843,2.198-1.099,3.627
			c-0.367,1.796-0.267,3.242,0.302,4.342c0.567,1.1,1.347,1.558,2.336,1.374c0.585-0.183,1.153-0.53,1.704-1.044
			c0.475-0.439,0.979-1.1,1.511-1.979c0.53-0.879,1.034-2.088,1.511-3.627c0.184-2.198,0.339-3.93,0.468-5.193
			c0.128-1.264,0.247-2.226,0.356-2.885c0.146-0.77,0.256-1.282,0.33-1.539c0.11-0.183,0.33-0.357,0.66-0.522
			s0.695-0.302,1.099-0.412s0.77-0.173,1.099-0.192c0.33-0.018,0.551-0.009,0.66,0.027c0.073,0.037,0.109,0.486,0.109,1.347
			c0,0.861-0.027,1.942-0.082,3.242c-0.055,1.301-0.119,2.712-0.192,4.232c-0.073,1.521-0.138,2.959-0.192,4.314
			c-0.055,1.356-0.092,2.538-0.109,3.545C115.71,42.748,115.737,43.38,115.812,43.636z"/>
		<path fill="#FFFFFF" d="M134.222,20.938c-0.514-0.146-1.035-0.375-1.566-0.687c-0.531-0.311-1.008-0.678-1.429-1.099
			c-0.421-0.421-0.741-0.888-0.962-1.401c-0.22-0.513-0.274-1.063-0.164-1.649c0.219-1.209,0.915-2.344,2.088-3.407
			c1.172-1.062,2.748-1.905,4.727-2.528v-0.165c0.035-0.403,0.303-0.815,0.797-1.236c0.494-0.421,1.107-0.705,1.841-0.852
			c0.695-0.146,1.2-0.146,1.511,0c0.312,0.147,0.468,0.349,0.468,0.604c0,0.074-0.01,0.156-0.027,0.248
			c-0.019,0.092-0.028,0.174-0.028,0.247v0.275c1.795-0.146,3.793-0.091,5.99,0.165c2.639,0.33,4.781,0.953,6.431,1.868
			c1.649,0.917,2.894,1.97,3.737,3.16c0.842,1.191,1.364,2.428,1.566,3.709c0.201,1.283,0.191,2.455-0.027,3.518
			c-0.221,1.246-0.624,2.373-1.209,3.38c-0.587,1.008-1.283,1.905-2.089,2.693c-0.806,0.788-1.704,1.475-2.692,2.061
			c-0.99,0.586-2.034,1.081-3.133,1.484c1.172,0.257,2.17,0.669,2.994,1.237c0.825,0.568,1.493,1.236,2.007,2.006
			c0.513,0.77,0.879,1.63,1.099,2.583c0.221,0.953,0.293,1.923,0.221,2.913c-0.074,1.538-0.468,2.978-1.182,4.313
			c-0.715,1.338-1.677,2.501-2.886,3.49s-2.647,1.759-4.313,2.309c-1.668,0.549-3.51,0.787-5.523,0.715h-0.66
			c-0.549,0.475-1.145,0.832-1.785,1.07c-0.643,0.238-1.256,0.413-1.842,0.523c-0.659,0.146-1.318,0.2-1.979,0.164
			c0-0.256,0.009-0.521,0.027-0.797c0.019-0.274,0.027-0.541,0.027-0.797c0-0.293,0.019-0.586,0.055-0.879
			c-0.439-0.074-0.86-0.184-1.264-0.33c-0.366-0.109-0.742-0.229-1.127-0.357c-0.384-0.129-0.723-0.266-1.016-0.412
			c-0.147-0.22-0.258-0.494-0.33-0.824c-0.074-0.293-0.119-0.613-0.138-0.961c-0.019-0.35,0.046-0.742,0.192-1.182
			c1.135,0.439,2.437,0.769,3.902,0.988c0.072-1.868,0.137-4.084,0.192-6.649c0.055-2.564,0.082-5.257,0.082-8.079
			c0-3.188,0.009-6.32,0.028-9.398c0.018-3.078,0.027-5.715,0.027-7.914c-1.063,0.549-1.889,1.301-2.474,2.253
			C133.8,18.265,133.745,19.474,134.222,20.938z M141.366,13.794c-0.074,1.869-0.109,4.086-0.109,6.65
			c0,2.565,0.035,5.423,0.109,8.573c0,0.293,0,0.577,0,0.852c0,0.274,0.018,0.559,0.055,0.852c1.319-0.11,2.693-0.43,4.122-0.962
			c1.429-0.53,2.738-1.236,3.93-2.116c1.19-0.879,2.171-1.914,2.94-3.105c0.77-1.19,1.154-2.5,1.154-3.929
			c0-1.099-0.295-2.079-0.88-2.94c-0.587-0.86-1.365-1.584-2.336-2.171c-0.972-0.585-2.089-1.025-3.353-1.319
			c-1.264-0.293-2.574-0.439-3.93-0.439c-0.293,0-0.576,0-0.852,0C141.943,13.739,141.659,13.758,141.366,13.794z M151.148,40.338
			c0.146-1.611-0.092-2.903-0.714-3.874c-0.624-0.97-1.438-1.704-2.445-2.198c-1.009-0.495-2.107-0.797-3.298-0.907
			c-1.191-0.11-2.263-0.128-3.216-0.055c0.074,3.042,0.129,5.798,0.166,8.271c0.035,2.474,0.072,4.498,0.109,6.073
			c1.135,0.036,2.234-0.092,3.297-0.385c1.063-0.294,2.024-0.751,2.886-1.374c0.86-0.623,1.585-1.401,2.171-2.336
			C150.69,42.619,151.038,41.547,151.148,40.338z"/>
		<path fill="#FFFFFF" d="M174.313,25.088c0.494-0.201,1.025-0.302,1.594-0.302c0.567,0,1.09,0.101,1.566,0.302
			c0.475,0.202,0.695,0.467,0.659,0.797c-0.037,0.256-0.073,0.761-0.11,1.511c-0.037,0.751-0.082,1.64-0.137,2.666
			c-0.055,1.026-0.119,2.125-0.193,3.297c-0.073,1.173-0.137,2.317-0.191,3.435c-0.055,1.118-0.092,2.153-0.11,3.105
			c-0.019,0.953-0.027,1.686-0.027,2.198c0,0.659,0.036,1.265,0.11,1.813c0.072,0.477,0.164,0.943,0.274,1.402
			c0.11,0.458,0.274,0.778,0.495,0.961c-0.295,0.109-0.597,0.184-0.907,0.221c-0.312,0.035-0.597,0.072-0.853,0.109
			c-0.293,0.036-0.586,0.055-0.879,0.055c-0.623,0-1.146-0.129-1.566-0.385c-0.422-0.256-0.632-0.787-0.632-1.594
			c0-0.402,0.028-0.989,0.083-1.758c0.055-0.77,0.118-1.594,0.191-2.474c-0.256,0.77-0.568,1.558-0.934,2.363
			c-0.367,0.806-0.816,1.521-1.347,2.144c-0.531,0.623-1.126,1.136-1.786,1.539c-0.659,0.402-1.41,0.604-2.253,0.604
			c-0.953,0-1.823-0.201-2.61-0.604c-0.789-0.403-1.476-0.98-2.061-1.732c-0.587-0.75-1.027-1.676-1.32-2.775
			c-0.293-1.099-0.402-2.362-0.329-3.792c0-1.099,0.019-2.271,0.056-3.517c0.035-1.063,0.09-2.29,0.164-3.682
			c0.073-1.392,0.201-2.839,0.385-4.342c0.036-0.146,0.293-0.33,0.77-0.549c0.476-0.22,1.008-0.403,1.594-0.55
			c0.586-0.146,1.154-0.201,1.703-0.165c0.551,0.037,0.953,0.256,1.209,0.659c-0.184,0.66-0.366,1.438-0.549,2.336
			c-0.184,0.898-0.349,1.823-0.494,2.775c-0.147,0.953-0.258,1.887-0.33,2.803c-0.074,0.916-0.11,1.758-0.11,2.528
			c0,0.696,0.036,1.457,0.11,2.281c0.072,0.824,0.21,1.593,0.412,2.308c0.201,0.715,0.494,1.311,0.879,1.786
			c0.385,0.477,0.889,0.714,1.512,0.714c0.695,0,1.309-0.302,1.841-0.906c0.53-0.604,0.979-1.383,1.347-2.336
			c0.365-0.952,0.678-2.042,0.934-3.27c0.256-1.227,0.468-2.446,0.633-3.655c0.164-1.209,0.274-2.372,0.33-3.49
			c0.055-1.117,0.1-2.061,0.137-2.83v-1.099C173.571,25.592,173.818,25.29,174.313,25.088z"/>
		<path fill="#FFFFFF" d="M197.038,39.514c0,0.404-0.137,1.018-0.412,1.842s-0.725,1.648-1.347,2.473
			c-0.624,0.824-1.421,1.549-2.391,2.171c-0.972,0.622-2.153,0.935-3.544,0.935c-1.979,0-3.637-0.541-4.975-1.621
			c-1.338-1.081-2.28-2.629-2.83-4.645c-0.439-1.685-0.559-3.49-0.357-5.413c0.201-1.924,0.723-3.71,1.566-5.358
			c0.843-1.649,2.015-3.05,3.518-4.204c1.502-1.154,3.334-1.786,5.496-1.896c1.099-0.036,2.014,0.165,2.748,0.604
			c0.732,0.439,1.299,1.008,1.703,1.704c0.402,0.696,0.641,1.456,0.715,2.281c0.072,0.824-0.01,1.603-0.248,2.335
			c-0.238,0.733-0.604,1.347-1.1,1.841c-0.494,0.495-1.126,0.761-1.896,0.797c-0.769,0.074-1.401-0.028-1.896-0.302
			c-0.495-0.275-0.88-0.613-1.154-1.017c-0.275-0.402-0.459-0.824-0.55-1.264c-0.092-0.44-0.101-0.825-0.027-1.154
			c0.11-0.476,0.292-0.916,0.55-1.319c0.22-0.366,0.539-0.732,0.961-1.099c0.422-0.366,0.98-0.66,1.677-0.879
			c-0.11-0.073-0.22-0.11-0.329-0.11c-0.111,0-0.221-0.018-0.33-0.055c-0.147,0-0.258-0.018-0.33-0.055
			c-0.586,0-1.256,0.202-2.006,0.604c-0.752,0.403-1.466,1.044-2.144,1.923c-0.679,0.879-1.246,2.006-1.704,3.38
			s-0.687,3.032-0.687,4.974c0,0.843,0.091,1.676,0.274,2.5s0.468,1.558,0.853,2.198c0.384,0.642,0.86,1.154,1.429,1.539
			c0.567,0.385,1.236,0.577,2.006,0.577c0.879,0,1.657-0.192,2.336-0.577c0.678-0.385,1.254-0.833,1.73-1.347
			c0.477-0.513,0.852-1.025,1.127-1.539c0.275-0.512,0.467-0.897,0.577-1.154c0.11-0.22,0.302-0.33,0.577-0.33
			S197.038,39.074,197.038,39.514z"/>
		<path fill="#FFFFFF" d="M204.842,37.81c0.439-1.319,0.815-2.436,1.126-3.352c0.312-0.916,0.578-1.649,0.797-2.198
			c0.256-0.66,0.477-1.19,0.66-1.594c0.22-0.586,0.467-1.172,0.742-1.759c0.274-0.585,0.559-1.126,0.852-1.621
			s0.567-0.907,0.824-1.237c0.256-0.33,0.477-0.549,0.66-0.659c0.146-0.073,0.484-0.073,1.016,0c0.531,0.074,1.117,0.247,1.76,0.522
			c0.641,0.275,1.244,0.651,1.813,1.126c0.568,0.477,0.963,1.063,1.182,1.759c0.221,0.843,0.293,1.942,0.221,3.297
			c-0.074,1.356-0.175,2.748-0.303,4.177c-0.129,1.429-0.22,2.785-0.275,4.066c-0.055,1.283,0.028,2.254,0.248,2.913
			c0.146,0.366,0.293,0.733,0.439,1.099c0.146,0.294,0.32,0.597,0.521,0.907c0.201,0.312,0.431,0.577,0.688,0.797
			c-1.063,0.403-1.914,0.705-2.555,0.907c-0.643,0.201-1.127,0.338-1.457,0.412c-0.404,0.109-0.678,0.127-0.824,0.055
			c-0.294-0.109-0.568-0.385-0.824-0.824c-0.257-0.439-0.477-1.135-0.66-2.088c-0.073-0.293-0.092-0.807-0.055-1.539
			c0.036-0.732,0.092-1.557,0.165-2.474c0.073-0.915,0.146-1.877,0.22-2.885c0.073-1.007,0.146-1.951,0.22-2.83
			s0.118-1.649,0.138-2.308c0.018-0.66,0.008-1.099-0.027-1.319c-0.184-0.623-0.439-1.072-0.77-1.347s-0.586-0.302-0.77-0.083
			c-0.439,0.55-0.926,1.493-1.457,2.831c-0.531,1.338-1.035,2.785-1.511,4.341c-0.477,1.558-0.889,3.104-1.236,4.644
			c-0.349,1.539-0.56,2.803-0.632,3.793c0,0.219-0.175,0.449-0.522,0.687c-0.349,0.239-0.733,0.448-1.153,0.632
			c-0.422,0.184-0.834,0.303-1.237,0.357s-0.679-0.01-0.824-0.192c-0.11-0.11-0.339-0.366-0.687-0.77
			c-0.35-0.403-0.541-1.08-0.578-2.033c-0.073-0.915-0.073-2.171,0-3.765c0.074-1.594,0.092-3.27,0.056-5.029v-4.066
			c0-1.649-0.01-3.93-0.028-6.842c-0.018-2.913-0.046-6.769-0.082-11.568c0.402-0.22,0.77-0.412,1.1-0.577s0.641-0.302,0.934-0.412
			c0.33-0.146,0.641-0.256,0.935-0.33c1.575-0.402,2.399-0.402,2.474,0c0.035,0.367,0,1.539-0.11,3.518
			c-0.036,0.843-0.092,1.905-0.165,3.188c-0.074,1.283-0.156,2.84-0.247,4.671c-0.092,1.833-0.202,3.984-0.329,6.458
			C205.181,31.737,205.024,34.586,204.842,37.81z"/>
		<path fill="#FFFFFF" d="M232.595,29.292c-0.293,0-0.613,0.156-0.961,0.467c-0.35,0.312-0.688,0.733-1.018,1.264
			c-0.33,0.532-0.659,1.118-0.988,1.759c-0.33,0.642-0.624,1.292-0.88,1.951c-0.624,1.539-1.228,3.115-1.813,4.727
			c-0.586,1.613-0.935,3.004-1.045,4.177c-0.036,0.11-0.055,0.211-0.055,0.302c0,0.092,0,0.175,0,0.248
			c-0.037,0.074-0.055,0.184-0.055,0.33c-0.074,0.513-0.174,0.925-0.303,1.236c-0.129,0.311-0.394,0.521-0.797,0.631
			c-0.439,0.074-0.879,0.129-1.318,0.166c-0.439,0.035-0.861,0-1.264-0.11c-0.258-0.073-0.449-0.21-0.578-0.412
			c-0.128-0.201-0.219-0.44-0.273-0.714c-0.056-0.275-0.093-0.541-0.11-0.797c-0.019-0.256-0.028-0.477-0.028-0.66
			c0-0.22,0.019-0.906,0.056-2.061c0.036-1.154,0.073-2.464,0.11-3.93c0.035-1.465,0.055-2.903,0.055-4.314
			c0-1.41-0.02-2.482-0.055-3.215c-0.074-0.513-0.147-0.989-0.221-1.429c-0.074-0.403-0.156-0.806-0.247-1.209
			c-0.092-0.403-0.229-0.75-0.412-1.044c0.403-0.22,0.806-0.403,1.209-0.549c0.403-0.146,0.77-0.256,1.099-0.33
			c0.403-0.11,0.77-0.183,1.1-0.22c0.879-0.073,1.566-0.073,2.061,0c0.495,0.074,0.742,0.458,0.742,1.154
			c0,0.624-0.046,1.585-0.137,2.885c-0.092,1.301-0.193,3.105-0.303,5.413c0.402-0.916,0.879-1.951,1.429-3.105
			s1.136-2.234,1.759-3.243c0.623-1.007,1.264-1.85,1.924-2.528c0.659-0.678,1.281-1.017,1.868-1.017
			c0.403,0,0.87,0.083,1.401,0.247c0.531,0.165,1.035,0.385,1.512,0.66c0.476,0.275,0.906,0.577,1.291,0.907s0.65,0.66,0.797,0.989
			c0.146,0.367,0.238,0.934,0.275,1.704c0.035,0.77,0.035,1.631,0,2.583c0.293-0.695,0.622-1.374,0.988-2.033
			c0.366-0.66,0.742-1.273,1.127-1.841c0.385-0.567,0.778-1.053,1.182-1.456c0.402-0.403,0.77-0.678,1.1-0.825
			c0.439-0.183,0.971-0.22,1.594-0.11c0.622,0.11,1.236,0.302,1.841,0.577s1.136,0.596,1.594,0.962
			c0.458,0.367,0.741,0.714,0.852,1.044c0.11,0.367,0.201,0.934,0.274,1.704c0.074,0.77,0.129,1.613,0.166,2.528
			c0.035,0.916,0.055,1.86,0.055,2.83c0,0.971-0.02,1.823-0.055,2.556c-0.074,2.125-0.056,3.801,0.055,5.028
			c0.109,1.229,0.549,2.135,1.318,2.721c-0.514,0.33-0.988,0.577-1.429,0.742c-0.439,0.165-0.824,0.283-1.153,0.357
			c-0.404,0.109-0.752,0.164-1.045,0.164c-0.403,0-0.733-0.101-0.989-0.302c-0.257-0.202-0.458-0.468-0.604-0.797
			s-0.238-0.695-0.275-1.099c-0.036-0.403-0.055-0.806-0.055-1.209c0-0.366,0.027-0.98,0.083-1.842
			c0.055-0.86,0.101-1.841,0.138-2.94c0.035-1.099,0.035-2.226,0-3.38c-0.037-1.154-0.119-2.216-0.248-3.188
			c-0.129-0.97-0.339-1.767-0.632-2.391c-0.294-0.623-0.696-0.934-1.209-0.934c-0.439,0-0.861,0.266-1.265,0.797
			c-0.402,0.531-0.787,1.228-1.153,2.088s-0.687,1.813-0.962,2.857c-0.275,1.044-0.521,2.08-0.742,3.105
			c-0.22,1.026-0.385,1.971-0.494,2.83c-0.109,0.861-0.165,1.549-0.165,2.062l-0.056-0.495c0,0.697,0.01,1.338,0.028,1.924
			s0.046,1.173,0.083,1.759c0.035,0.22-0.166,0.412-0.605,0.577c-0.439,0.164-0.926,0.238-1.456,0.22
			c-0.532-0.019-1.017-0.138-1.456-0.357s-0.66-0.585-0.66-1.099c0-0.366,0-0.916,0-1.649c0-0.732-0.01-1.557-0.027-2.473
			c-0.019-0.915-0.037-1.877-0.055-2.885c-0.02-1.007-0.047-1.969-0.082-2.885c0-0.696-0.01-1.41-0.027-2.144
			c-0.02-0.732-0.064-1.401-0.139-2.006c-0.073-0.604-0.211-1.09-0.412-1.457C233.245,29.476,232.961,29.292,232.595,29.292z"/>
		<path fill="#FFFFFF" d="M269.251,43.636c0.074,0.257,0.184,0.495,0.33,0.714c0.11,0.184,0.266,0.357,0.467,0.522
			s0.449,0.267,0.742,0.302c-0.256,0.514-0.514,0.861-0.77,1.045c-0.146,0.109-0.274,0.184-0.385,0.22
			c-0.329,0.11-0.824,0.165-1.483,0.165s-1.301-0.201-1.923-0.604c-0.221-0.183-0.422-0.458-0.605-0.825
			c-0.184-0.292-0.339-0.705-0.467-1.236c-0.129-0.53-0.229-1.217-0.303-2.061c-0.514,1.1-1.09,1.97-1.73,2.61
			c-0.642,0.642-1.273,1.108-1.896,1.401c-0.696,0.404-1.41,0.641-2.143,0.715c-0.916,0.072-1.787-0.082-2.611-0.467
			s-1.521-0.971-2.088-1.76c-0.568-0.787-0.998-1.748-1.291-2.885c-0.295-1.135-0.385-2.418-0.275-3.847
			c0.109-1.502,0.402-2.839,0.879-4.012c0.477-1.172,1.045-2.216,1.704-3.132c0.659-0.916,1.354-1.694,2.089-2.336
			c0.732-0.64,1.438-1.172,2.115-1.594c0.678-0.42,1.264-0.732,1.759-0.934c0.495-0.201,0.815-0.32,0.962-0.357
			c0.402-0.11,0.75-0.146,1.044-0.11c0.293,0.037,0.55,0.202,0.77,0.495c0.073,0.11,0.165,0.239,0.274,0.385
			c0.073,0.147,0.165,0.339,0.275,0.577c0.109,0.239,0.201,0.504,0.274,0.797c-0.88,0.404-1.704,0.852-2.474,1.347
			c-0.769,0.495-1.475,1.09-2.115,1.786c-0.642,0.697-1.201,1.539-1.676,2.528c-0.477,0.989-0.844,2.198-1.1,3.627
			c-0.367,1.796-0.266,3.242,0.303,4.342c0.567,1.1,1.346,1.558,2.336,1.374c0.585-0.183,1.153-0.53,1.703-1.044
			c0.476-0.439,0.979-1.1,1.512-1.979c0.53-0.879,1.034-2.088,1.511-3.627c0.183-2.198,0.339-3.93,0.468-5.193
			c0.127-1.264,0.246-2.226,0.356-2.885c0.146-0.77,0.256-1.282,0.33-1.539c0.11-0.183,0.329-0.357,0.659-0.522
			s0.695-0.302,1.1-0.412c0.402-0.11,0.77-0.173,1.099-0.192c0.33-0.018,0.55-0.009,0.659,0.027c0.074,0.037,0.11,0.486,0.11,1.347
			c0,0.861-0.027,1.942-0.083,3.242c-0.055,1.301-0.119,2.712-0.191,4.232c-0.074,1.521-0.138,2.959-0.193,4.314
			c-0.055,1.356-0.092,2.538-0.109,3.545C269.15,42.748,269.178,43.38,269.251,43.636z"/>
		<path fill="#FFFFFF" d="M279.693,44.955c-0.037,0.219-0.229,0.449-0.577,0.687c-0.349,0.239-0.752,0.449-1.209,0.632
			c-0.459,0.184-0.889,0.303-1.291,0.357c-0.404,0.055-0.679,0.009-0.824-0.137c-0.147-0.146-0.385-0.422-0.715-0.825
			s-0.531-1.062-0.604-1.979c-0.074-0.952-0.11-2.151-0.11-3.6c0-1.447-0.019-3.05-0.055-4.809v-2.198
			c0-0.66-0.01-1.429-0.027-2.308c-0.02-0.879-0.047-1.795-0.082-2.748c0.329-0.183,0.668-0.357,1.016-0.522
			s0.668-0.302,0.963-0.412c0.329-0.146,0.641-0.256,0.934-0.33c0.77-0.22,1.355-0.348,1.759-0.384
			c0.403-0.036,0.641,0.092,0.714,0.384c0.037,0.22,0.019,0.751-0.055,1.594c-0.074,0.733-0.164,1.841-0.274,3.325
			s-0.294,3.544-0.55,6.183c0.476-1.172,0.87-2.179,1.182-3.022c0.311-0.843,0.577-1.52,0.797-2.034
			c0.22-0.623,0.421-1.117,0.604-1.484c0.183-0.476,0.421-1.007,0.714-1.594c0.293-0.585,0.596-1.135,0.907-1.648
			c0.312-0.513,0.604-0.971,0.88-1.374c0.274-0.403,0.484-0.641,0.632-0.714c0.11-0.073,0.439-0.073,0.989,0
			c0.549,0.074,1.135,0.247,1.758,0.522s1.228,0.66,1.814,1.154c0.586,0.494,0.971,1.09,1.154,1.786
			c0.219,0.807,0.302,1.869,0.246,3.188c-0.055,1.319-0.146,2.675-0.273,4.067c-0.129,1.393-0.23,2.712-0.303,3.957
			c-0.074,1.246,0,2.198,0.22,2.857c0.073,0.367,0.183,0.697,0.329,0.99c0.074,0.293,0.174,0.559,0.303,0.797
			c0.128,0.238,0.266,0.412,0.412,0.521c-0.879,0.403-1.594,0.695-2.143,0.879c-0.551,0.184-0.972,0.311-1.265,0.385
			c-0.366,0.11-0.624,0.146-0.77,0.11c-0.329-0.11-0.614-0.385-0.852-0.825c-0.239-0.439-0.449-1.135-0.632-2.088
			c-0.074-0.293-0.102-0.777-0.082-1.456c0.018-0.678,0.063-1.446,0.137-2.308c0.073-0.861,0.155-1.759,0.248-2.693
			c0.09-0.935,0.164-1.814,0.219-2.638s0.101-1.539,0.138-2.143c0.036-0.604,0.036-1.017,0-1.237
			c-0.184-0.659-0.439-1.126-0.77-1.401c-0.329-0.275-0.587-0.302-0.769-0.083c-0.477,0.55-0.981,1.438-1.512,2.666
			c-0.531,1.228-1.035,2.565-1.512,4.012c-0.477,1.448-0.879,2.885-1.209,4.315C279.968,42.756,279.767,43.965,279.693,44.955z"/>
		<path fill="#FFFFFF" d="M299.972,44.955c-0.037,0.219-0.229,0.449-0.576,0.687c-0.35,0.239-0.752,0.449-1.209,0.632
			c-0.459,0.184-0.889,0.303-1.292,0.357s-0.679,0.009-0.824-0.137c-0.147-0.146-0.385-0.422-0.714-0.825
			c-0.33-0.403-0.532-1.062-0.605-1.979c-0.074-0.952-0.109-2.151-0.109-3.6c0-1.447-0.02-3.05-0.055-4.809v-2.198
			c0-0.66-0.01-1.429-0.027-2.308c-0.02-0.879-0.047-1.795-0.083-2.748c0.329-0.183,0.668-0.357,1.017-0.522
			c0.348-0.165,0.668-0.302,0.962-0.412c0.329-0.146,0.641-0.256,0.935-0.33c0.77-0.22,1.354-0.348,1.758-0.384
			c0.403-0.036,0.641,0.092,0.715,0.384c0.036,0.22,0.018,0.751-0.055,1.594c-0.074,0.733-0.165,1.841-0.275,3.325
			c-0.109,1.484-0.293,3.544-0.549,6.183c0.475-1.172,0.869-2.179,1.182-3.022c0.311-0.843,0.576-1.52,0.797-2.034
			c0.219-0.623,0.42-1.117,0.604-1.484c0.184-0.476,0.422-1.007,0.715-1.594c0.293-0.585,0.596-1.135,0.906-1.648
			c0.312-0.513,0.605-0.971,0.88-1.374c0.274-0.403,0.485-0.641,0.632-0.714c0.11-0.073,0.439-0.073,0.989,0
			c0.55,0.074,1.136,0.247,1.759,0.522s1.227,0.66,1.813,1.154c0.586,0.494,0.971,1.09,1.154,1.786
			c0.22,0.807,0.302,1.869,0.247,3.188c-0.055,1.319-0.146,2.675-0.274,4.067c-0.129,1.393-0.229,2.712-0.302,3.957
			c-0.074,1.246,0,2.198,0.219,2.857c0.073,0.367,0.184,0.697,0.33,0.99c0.073,0.293,0.174,0.559,0.303,0.797
			c0.127,0.238,0.266,0.412,0.412,0.521c-0.88,0.403-1.594,0.695-2.144,0.879s-0.972,0.311-1.265,0.385
			c-0.366,0.11-0.623,0.146-0.77,0.11c-0.329-0.11-0.613-0.385-0.852-0.825c-0.238-0.439-0.449-1.135-0.632-2.088
			c-0.073-0.293-0.101-0.777-0.082-1.456c0.019-0.678,0.063-1.446,0.138-2.308c0.072-0.861,0.154-1.759,0.247-2.693
			c0.091-0.935,0.165-1.814,0.22-2.638s0.1-1.539,0.137-2.143s0.037-1.017,0-1.237c-0.184-0.659-0.439-1.126-0.77-1.401
			c-0.329-0.275-0.586-0.302-0.769-0.083c-0.477,0.55-0.981,1.438-1.512,2.666c-0.531,1.228-1.035,2.565-1.511,4.012
			c-0.477,1.448-0.88,2.885-1.209,4.315C300.247,42.756,300.046,43.965,299.972,44.955z"/>
	</g>
</g>
</svg>
