<?xml version="1.0" encoding="utf-8"?>
<!-- Generator: Adobe Illustrator 16.0.0, SVG Export Plug-In . SVG Version: 6.00 Build 0)  -->
<!DOCTYPE svg PUBLIC "-//W3C//DTD SVG 1.1//EN" "http://www.w3.org/Graphics/SVG/1.1/DTD/svg11.dtd">
<svg version="1.1" id="Camada_1" xmlns="http://www.w3.org/2000/svg" xmlns:xlink="http://www.w3.org/1999/xlink" x="0px" y="0px"
	 width="146.972px" height="197.93px" viewBox="0 0 146.972 197.93" enable-background="new 0 0 146.972 197.93"
	 xml:space="preserve">
<g>
	<g>
		
			<linearGradient id="SVGID_1_" gradientUnits="userSpaceOnUse" x1="848.23" y1="615.394" x2="730.5711" y2="632.0805" gradientTransform="matrix(-0.7622 0.6473 -0.6473 -0.7622 1163.6157 64.8888)">
			<stop  offset="0" style="stop-color:#FFFFFF"/>
			<stop  offset="1" style="stop-color:#D960FF"/>
		</linearGradient>
		<path fill-rule="evenodd" clip-rule="evenodd" fill="url(#SVGID_1_)" d="M144.924,117.913c-0.955,1.078-2.561-0.59-3.114-1.496
			C142.655,115.172,144.668,117.063,144.924,117.913z"/>
		
			<linearGradient id="SVGID_2_" gradientUnits="userSpaceOnUse" x1="888.0474" y1="616.8403" x2="615.7515" y2="655.4575" gradientTransform="matrix(-0.7622 0.6473 -0.6473 -0.7622 1163.6157 64.8888)">
			<stop  offset="0" style="stop-color:#FFFFFF"/>
			<stop  offset="1" style="stop-color:#D960FF"/>
		</linearGradient>
		<path fill-rule="evenodd" clip-rule="evenodd" fill="url(#SVGID_2_)" d="M146.972,103.502c-0.268,0.666-0.622,0.992-1.025,1.168
			c-0.665-0.439-0.824-1.008-0.474-1.703C145.913,102.93,146.394,103.045,146.972,103.502z"/>
		
			<linearGradient id="SVGID_3_" gradientUnits="userSpaceOnUse" x1="911.7964" y1="616.0903" x2="763.6433" y2="637.1015" gradientTransform="matrix(-0.7622 0.6473 -0.6473 -0.7622 1163.6157 64.8888)">
			<stop  offset="0" style="stop-color:#FFFFFF"/>
			<stop  offset="1" style="stop-color:#D960FF"/>
		</linearGradient>
		<path fill-rule="evenodd" clip-rule="evenodd" fill="url(#SVGID_3_)" d="M110.369,141.411c-0.331,1.322-2.848-0.172-1.888-1.121
			C109.54,140.434,109.415,140.768,110.369,141.411z"/>
		
			<linearGradient id="SVGID_4_" gradientUnits="userSpaceOnUse" x1="871.521" y1="634.6362" x2="677.9847" y2="662.0837" gradientTransform="matrix(-0.7622 0.6473 -0.6473 -0.7622 1163.6157 64.8888)">
			<stop  offset="0" style="stop-color:#FFFFFF"/>
			<stop  offset="1" style="stop-color:#D960FF"/>
		</linearGradient>
		<path fill-rule="evenodd" clip-rule="evenodd" fill="url(#SVGID_4_)" d="M138.252,91.569c-1.116,0.275-3.111,0.863-3.865-0.168
			C135.222,90.129,137.379,90.129,138.252,91.569z"/>
		
			<linearGradient id="SVGID_5_" gradientUnits="userSpaceOnUse" x1="1027.1157" y1="595.1343" x2="672.6418" y2="645.406" gradientTransform="matrix(-0.7622 0.6473 -0.6473 -0.7622 1163.6157 64.8888)">
			<stop  offset="0" style="stop-color:#FFFFFF"/>
			<stop  offset="1" style="stop-color:#D960FF"/>
		</linearGradient>
		<path fill-rule="evenodd" clip-rule="evenodd" fill="url(#SVGID_5_)" d="M94.298,165.958c-0.631-0.68-0.785-1.475-0.024-2.504
			C95.371,163.999,95.494,165.542,94.298,165.958z"/>
		
			<linearGradient id="SVGID_6_" gradientUnits="userSpaceOnUse" x1="950.8071" y1="611.2271" x2="726.9941" y2="642.9684" gradientTransform="matrix(-0.7622 0.6473 -0.6473 -0.7622 1163.6157 64.8888)">
			<stop  offset="0" style="stop-color:#FFFFFF"/>
			<stop  offset="1" style="stop-color:#D960FF"/>
		</linearGradient>
		<path fill-rule="evenodd" clip-rule="evenodd" fill="url(#SVGID_6_)" d="M105.049,145.708c-0.367,1.15-1.87,0.258-1.075-0.639
			C104.758,144.946,104.303,145.295,105.049,145.708z"/>
		
			<linearGradient id="SVGID_7_" gradientUnits="userSpaceOnUse" x1="880.0493" y1="639.8003" x2="626.3503" y2="675.7801" gradientTransform="matrix(-0.7622 0.6473 -0.6473 -0.7622 1163.6157 64.8888)">
			<stop  offset="0" style="stop-color:#FFFFFF"/>
			<stop  offset="1" style="stop-color:#D960FF"/>
		</linearGradient>
		<path fill-rule="evenodd" clip-rule="evenodd" fill="url(#SVGID_7_)" d="M143.269,75.727c-0.776,1.252-1.914,1.2-3.21,0.58
			C140.748,74.742,141.919,74.92,143.269,75.727z"/>
		
			<linearGradient id="SVGID_8_" gradientUnits="userSpaceOnUse" x1="954.062" y1="615.2095" x2="734.2467" y2="646.3839" gradientTransform="matrix(-0.7622 0.6473 -0.6473 -0.7622 1163.6157 64.8888)">
			<stop  offset="0" style="stop-color:#FFFFFF"/>
			<stop  offset="1" style="stop-color:#D960FF"/>
		</linearGradient>
		<path fill-rule="evenodd" clip-rule="evenodd" fill="url(#SVGID_8_)" d="M99.039,141.071c1.641-0.982,4.532,2.197,3.707,3.623
			C101.545,146.772,96.14,144.684,99.039,141.071z"/>
		
			<linearGradient id="SVGID_9_" gradientUnits="userSpaceOnUse" x1="878.9692" y1="636.6802" x2="714.3481" y2="660.0269" gradientTransform="matrix(-0.7622 0.6473 -0.6473 -0.7622 1163.6157 64.8888)">
			<stop  offset="0" style="stop-color:#FFFFFF"/>
			<stop  offset="1" style="stop-color:#D960FF"/>
		</linearGradient>
		<path fill-rule="evenodd" clip-rule="evenodd" fill="url(#SVGID_9_)" d="M126.81,99.684c-0.823,0.598-2.865,0.004-3.293-0.535
			C124.41,98.799,126.123,98.219,126.81,99.684z"/>
		
			<linearGradient id="SVGID_10_" gradientUnits="userSpaceOnUse" x1="882.1938" y1="642.5503" x2="648.8354" y2="675.6454" gradientTransform="matrix(-0.7622 0.6473 -0.6473 -0.7622 1163.6157 64.8888)">
			<stop  offset="0" style="stop-color:#FFFFFF"/>
			<stop  offset="1" style="stop-color:#D960FF"/>
		</linearGradient>
		<path fill-rule="evenodd" clip-rule="evenodd" fill="url(#SVGID_10_)" d="M134.183,77.784
			C138.034,73.573,138.015,82.545,134.183,77.784L134.183,77.784z"/>
		
			<linearGradient id="SVGID_11_" gradientUnits="userSpaceOnUse" x1="945.7554" y1="631.6909" x2="660.3248" y2="672.1709" gradientTransform="matrix(-0.7622 0.6473 -0.6473 -0.7622 1163.6157 64.8888)">
			<stop  offset="0" style="stop-color:#FFFFFF"/>
			<stop  offset="1" style="stop-color:#D960FF"/>
		</linearGradient>
		<path fill-rule="evenodd" clip-rule="evenodd" fill="url(#SVGID_11_)" d="M109.827,108.057c0.098-2.066-1.466-3.514-1.006-5.215
			c1.371-5.066,7.337-6.025,10.53-3.33c3.401,2.873,1.805,7.521-1.318,10.582C114.882,110.739,113.104,110.463,109.827,108.057z"/>
		
			<linearGradient id="SVGID_12_" gradientUnits="userSpaceOnUse" x1="893.564" y1="629.7466" x2="792.0714" y2="644.1403" gradientTransform="matrix(-0.7622 0.6473 -0.6473 -0.7622 1163.6157 64.8888)">
			<stop  offset="0" style="stop-color:#FFFFFF"/>
			<stop  offset="1" style="stop-color:#D960FF"/>
		</linearGradient>
		<path fill-rule="evenodd" clip-rule="evenodd" fill="url(#SVGID_12_)" d="M105.717,131.188c-0.215,0.844-0.838,0.217-1.14,0.742
			c-0.669-1.24-1.637-1.152-2.392-2.129C103.04,129.313,105.249,130.506,105.717,131.188z"/>
		
			<linearGradient id="SVGID_13_" gradientUnits="userSpaceOnUse" x1="871.2368" y1="637.6753" x2="778.9662" y2="650.7612" gradientTransform="matrix(-0.7622 0.6473 -0.6473 -0.7622 1163.6157 64.8888)">
			<stop  offset="0" style="stop-color:#FFFFFF"/>
			<stop  offset="1" style="stop-color:#D960FF"/>
		</linearGradient>
		<path fill-rule="evenodd" clip-rule="evenodd" fill="url(#SVGID_13_)" d="M114.515,114.395c-0.995,0.732-3.57-0.752-3.082-2.186
			C112.767,112.864,113.631,113.629,114.515,114.395z"/>
		
			<linearGradient id="SVGID_14_" gradientUnits="userSpaceOnUse" x1="865.6479" y1="645.896" x2="729.5342" y2="665.1998" gradientTransform="matrix(-0.7622 0.6473 -0.6473 -0.7622 1163.6157 64.8888)">
			<stop  offset="0" style="stop-color:#FFFFFF"/>
			<stop  offset="1" style="stop-color:#D960FF"/>
		</linearGradient>
		<path fill-rule="evenodd" clip-rule="evenodd" fill="url(#SVGID_14_)" d="M124.587,90.907c-0.713,1.418-2.046-0.375-2.304-1.018
			C122.853,89.415,124.348,90.147,124.587,90.907z"/>
		
			<linearGradient id="SVGID_15_" gradientUnits="userSpaceOnUse" x1="1053.0923" y1="606.2544" x2="646.0944" y2="663.9752" gradientTransform="matrix(-0.7622 0.6473 -0.6473 -0.7622 1163.6157 64.8888)">
			<stop  offset="0" style="stop-color:#FFFFFF"/>
			<stop  offset="1" style="stop-color:#D960FF"/>
		</linearGradient>
		<path fill-rule="evenodd" clip-rule="evenodd" fill="url(#SVGID_15_)" d="M93.604,144.944c-1.207,1.852-2.597,3.047-4.412,2.703
			c-0.024-0.299-0.039-0.6,0.18-0.959C90.974,146.788,91.99,144.795,93.604,144.944z"/>
		
			<linearGradient id="SVGID_16_" gradientUnits="userSpaceOnUse" x1="921.8374" y1="657.2534" x2="694.5276" y2="689.4907" gradientTransform="matrix(-0.7622 0.6473 -0.6473 -0.7622 1163.6157 64.8888)">
			<stop  offset="0" style="stop-color:#FFFFFF"/>
			<stop  offset="1" style="stop-color:#D960FF"/>
		</linearGradient>
		<path fill-rule="evenodd" clip-rule="evenodd" fill="url(#SVGID_16_)" d="M108.246,82.256c-2.417-1.292-2.373-3.2-3.793-4.742
			c2.124-1.388,4.528-2.895,6.684-0.997C113.492,78.583,111.313,82.188,108.246,82.256z"/>
		
			<linearGradient id="SVGID_17_" gradientUnits="userSpaceOnUse" x1="943.2144" y1="662.3521" x2="566.4921" y2="715.7791" gradientTransform="matrix(-0.7622 0.6473 -0.6473 -0.7622 1163.6157 64.8888)">
			<stop  offset="0" style="stop-color:#FFFFFF"/>
			<stop  offset="1" style="stop-color:#D960FF"/>
		</linearGradient>
		<path fill-rule="evenodd" clip-rule="evenodd" fill="url(#SVGID_17_)" d="M130.862,41.714c-0.378,0.792-0.789,1.47-1.56,0.845
			C129.448,41.756,129.756,40.928,130.862,41.714z"/>
		
			<linearGradient id="SVGID_18_" gradientUnits="userSpaceOnUse" x1="1072.7427" y1="626.772" x2="624.1218" y2="690.3957" gradientTransform="matrix(-0.7622 0.6473 -0.6473 -0.7622 1163.6157 64.8888)">
			<stop  offset="0" style="stop-color:#FFFFFF"/>
			<stop  offset="1" style="stop-color:#D960FF"/>
		</linearGradient>
		<path fill-rule="evenodd" clip-rule="evenodd" fill="url(#SVGID_18_)" d="M88.952,113.764c0.153-0.781,0.403-1.809,1.441-1.273
			C90.58,113.139,89.841,114.596,88.952,113.764z"/>
		
			<linearGradient id="SVGID_19_" gradientUnits="userSpaceOnUse" x1="1125.0474" y1="612.3901" x2="650.5129" y2="679.689" gradientTransform="matrix(-0.7622 0.6473 -0.6473 -0.7622 1163.6157 64.8888)">
			<stop  offset="0" style="stop-color:#FFFFFF"/>
			<stop  offset="1" style="stop-color:#D960FF"/>
		</linearGradient>
		<path fill-rule="evenodd" clip-rule="evenodd" fill="url(#SVGID_19_)" d="M72.841,142.19c0.403-0.43,0.542-1.82,1.292-1.01
			C73.94,141.93,73.903,142.872,72.841,142.19z"/>
		
			<linearGradient id="SVGID_20_" gradientUnits="userSpaceOnUse" x1="1062.0376" y1="619.8394" x2="740.1971" y2="665.483" gradientTransform="matrix(-0.7622 0.6473 -0.6473 -0.7622 1163.6157 64.8888)">
			<stop  offset="0" style="stop-color:#FFFFFF"/>
			<stop  offset="1" style="stop-color:#D960FF"/>
		</linearGradient>
		<path fill-rule="evenodd" clip-rule="evenodd" fill="url(#SVGID_20_)" d="M65.291,152.973c-0.219-0.705-0.042-1.508,0.667-2.445
			C68.435,150.422,67.843,154.897,65.291,152.973z"/>
		
			<linearGradient id="SVGID_21_" gradientUnits="userSpaceOnUse" x1="996.1626" y1="642.395" x2="717.6332" y2="681.8962" gradientTransform="matrix(-0.7622 0.6473 -0.6473 -0.7622 1163.6157 64.8888)">
			<stop  offset="0" style="stop-color:#FFFFFF"/>
			<stop  offset="1" style="stop-color:#D960FF"/>
		</linearGradient>
		<path fill-rule="evenodd" clip-rule="evenodd" fill="url(#SVGID_21_)" d="M85.601,111.415c-0.347,0.906-0.907,1.047-1.679,0.424
			C84.268,110.932,84.826,110.792,85.601,111.415z"/>
		
			<linearGradient id="SVGID_22_" gradientUnits="userSpaceOnUse" x1="985.7651" y1="647.5034" x2="758.3086" y2="679.7615" gradientTransform="matrix(-0.7622 0.6473 -0.6473 -0.7622 1163.6157 64.8888)">
			<stop  offset="0" style="stop-color:#FFFFFF"/>
			<stop  offset="1" style="stop-color:#D960FF"/>
		</linearGradient>
		<path fill-rule="evenodd" clip-rule="evenodd" fill="url(#SVGID_22_)" d="M76.237,116.504c-0.15,0.266-0.302,0.531-0.45,0.797
			c-0.361-0.215-0.719-0.428-1.079-0.643C75.024,115.913,75.574,116.01,76.237,116.504z"/>
		
			<linearGradient id="SVGID_23_" gradientUnits="userSpaceOnUse" x1="1016.3823" y1="643.9341" x2="755.6575" y2="680.9103" gradientTransform="matrix(-0.7622 0.6473 -0.6473 -0.7622 1163.6157 64.8888)">
			<stop  offset="0" style="stop-color:#FFFFFF"/>
			<stop  offset="1" style="stop-color:#D960FF"/>
		</linearGradient>
		<path fill-rule="evenodd" clip-rule="evenodd" fill="url(#SVGID_23_)" d="M69.717,122.93c-0.316,0.746-0.87,0.648-1.529,0.154
			c0.201-0.355,0.402-0.709,0.603-1.064C69.417,122.245,69.4,122.627,69.717,122.93z"/>
		
			<linearGradient id="SVGID_24_" gradientUnits="userSpaceOnUse" x1="1046.4565" y1="639.6577" x2="772.058" y2="678.5731" gradientTransform="matrix(-0.7622 0.6473 -0.6473 -0.7622 1163.6157 64.8888)">
			<stop  offset="0" style="stop-color:#FFFFFF"/>
			<stop  offset="1" style="stop-color:#D960FF"/>
		</linearGradient>
		<path fill-rule="evenodd" clip-rule="evenodd" fill="url(#SVGID_24_)" d="M58.472,135.78c-1.005,1.037-2.035-0.494-0.773-1.174
			c0.269,0.16,0.537,0.32,0.807,0.48C58.287,135.37,58.297,135.594,58.472,135.78z"/>
		
			<linearGradient id="SVGID_25_" gradientUnits="userSpaceOnUse" x1="1075.6558" y1="641.7222" x2="727.9286" y2="691.0371" gradientTransform="matrix(-0.7622 0.6473 -0.6473 -0.7622 1163.6157 64.8888)">
			<stop  offset="0" style="stop-color:#FFFFFF"/>
			<stop  offset="1" style="stop-color:#D960FF"/>
		</linearGradient>
		<path fill-rule="evenodd" clip-rule="evenodd" fill="url(#SVGID_25_)" d="M62.856,121.692c-0.988-0.287-0.596-0.914-1.046-1.334
			c0.58-0.887,1.203-1.592,2.25-0.791C64.237,120.186,63.472,121.54,62.856,121.692z"/>
		
			<linearGradient id="SVGID_26_" gradientUnits="userSpaceOnUse" x1="1068.6694" y1="643.9565" x2="743.9193" y2="690.0128" gradientTransform="matrix(-0.7622 0.6473 -0.6473 -0.7622 1163.6157 64.8888)">
			<stop  offset="0" style="stop-color:#FFFFFF"/>
			<stop  offset="1" style="stop-color:#D960FF"/>
		</linearGradient>
		<path fill-rule="evenodd" clip-rule="evenodd" fill="url(#SVGID_26_)" d="M59.586,123.653c-0.125-0.35-0.447-0.646-0.928-0.906
			c-0.198-0.635,0.535-1.5,0.936-2.285C61.084,121.239,61.208,123.434,59.586,123.653z"/>
		
			<linearGradient id="SVGID_27_" gradientUnits="userSpaceOnUse" x1="996.229" y1="696.2505" x2="585.8955" y2="754.4443" gradientTransform="matrix(-0.7622 0.6473 -0.6473 -0.7622 1163.6157 64.8888)">
			<stop  offset="0" style="stop-color:#FFFFFF"/>
			<stop  offset="1" style="stop-color:#D960FF"/>
		</linearGradient>
		<path fill-rule="evenodd" clip-rule="evenodd" fill="url(#SVGID_27_)" d="M109.084,3.906c-0.021-0.711-0.042-2.013,0.935-2.288
			c0.36,0.213,0.72,0.428,1.078,0.639C110.75,3.412,110.436,4.623,109.084,3.906z"/>
		
			<linearGradient id="SVGID_28_" gradientUnits="userSpaceOnUse" x1="928.1479" y1="698.1792" x2="827.6993" y2="712.4249" gradientTransform="matrix(-0.7622 0.6473 -0.6473 -0.7622 1163.6157 64.8888)">
			<stop  offset="0" style="stop-color:#FFFFFF"/>
			<stop  offset="1" style="stop-color:#D960FF"/>
		</linearGradient>
		<path fill-rule="evenodd" clip-rule="evenodd" fill="url(#SVGID_28_)" d="M51.567,84.434c-0.133,0.334-0.328,0.439-0.572,0.371
			c-2.121-0.219-2.146-2.752-3.974-3.786C49.382,79.182,49.84,83.36,51.567,84.434z"/>
		
			<linearGradient id="SVGID_29_" gradientUnits="userSpaceOnUse" x1="1197.9155" y1="652.6372" x2="774.5587" y2="712.678" gradientTransform="matrix(-0.7622 0.6473 -0.6473 -0.7622 1163.6157 64.8888)">
			<stop  offset="0" style="stop-color:#FFFFFF"/>
			<stop  offset="1" style="stop-color:#D960FF"/>
		</linearGradient>
		<path fill-rule="evenodd" clip-rule="evenodd" fill="url(#SVGID_29_)" d="M24.89,120.073c0.768-2.342,2.381-1.662,3.572-2.49
			C29.052,118.985,26.338,120.795,24.89,120.073z"/>
		
			<linearGradient id="SVGID_30_" gradientUnits="userSpaceOnUse" x1="1132.9673" y1="670.7007" x2="748.8459" y2="725.1771" gradientTransform="matrix(-0.7622 0.6473 -0.6473 -0.7622 1163.6157 64.8888)">
			<stop  offset="0" style="stop-color:#FFFFFF"/>
			<stop  offset="1" style="stop-color:#D960FF"/>
		</linearGradient>
		<path fill-rule="evenodd" clip-rule="evenodd" fill="url(#SVGID_30_)" d="M42.924,88.885c-0.464-0.32-0.753-0.012-1.227-0.375
			c-0.214-0.996,0.91-2.082,1.861-1.381C43.688,87.627,43.33,88.252,42.924,88.885z"/>
		
			<linearGradient id="SVGID_31_" gradientUnits="userSpaceOnUse" x1="991.5347" y1="697.1479" x2="792.2487" y2="725.4108" gradientTransform="matrix(-0.7622 0.6473 -0.6473 -0.7622 1163.6157 64.8888)">
			<stop  offset="0" style="stop-color:#FFFFFF"/>
			<stop  offset="1" style="stop-color:#D960FF"/>
		</linearGradient>
		<path fill-rule="evenodd" clip-rule="evenodd" fill="url(#SVGID_31_)" d="M50.763,71.877c-1.334,0.854-2.868,1-4.708,0.045
			C47.289,70.704,48.886,70.792,50.763,71.877z"/>
		
			<linearGradient id="SVGID_32_" gradientUnits="userSpaceOnUse" x1="995.7837" y1="710.4536" x2="768.179" y2="742.7327" gradientTransform="matrix(-0.7622 0.6473 -0.6473 -0.7622 1163.6157 64.8888)">
			<stop  offset="0" style="stop-color:#FFFFFF"/>
			<stop  offset="1" style="stop-color:#D960FF"/>
		</linearGradient>
		<path fill-rule="evenodd" clip-rule="evenodd" fill="url(#SVGID_32_)" d="M53.553,47.257c-0.971,1.252-2.931-0.039-2.002-1.549
			c0.307,0.026,0.612,0.053,0.839-0.21C53.562,45.885,52.98,46.716,53.553,47.257z"/>
		
			<linearGradient id="SVGID_33_" gradientUnits="userSpaceOnUse" x1="1033.3403" y1="714.605" x2="692.0004" y2="763.014" gradientTransform="matrix(-0.7622 0.6473 -0.6473 -0.7622 1163.6157 64.8888)">
			<stop  offset="0" style="stop-color:#FFFFFF"/>
			<stop  offset="1" style="stop-color:#D960FF"/>
		</linearGradient>
		<path fill-rule="evenodd" clip-rule="evenodd" fill="url(#SVGID_33_)" d="M71.06,12.554c-0.358-0.212-0.719-0.427-1.076-0.641
			c0.377-0.792,0.785-1.469,1.559-0.848C71.594,11.507,71.494,11.988,71.06,12.554z"/>
		
			<linearGradient id="SVGID_34_" gradientUnits="userSpaceOnUse" x1="972.3774" y1="730.8413" x2="716.7239" y2="767.0983" gradientTransform="matrix(-0.7622 0.6473 -0.6473 -0.7622 1163.6157 64.8888)">
			<stop  offset="0" style="stop-color:#FFFFFF"/>
			<stop  offset="1" style="stop-color:#D960FF"/>
		</linearGradient>
		<path fill-rule="evenodd" clip-rule="evenodd" fill="url(#SVGID_34_)" d="M69.145,0.05C69.49-0.048,69.971,0.331,70.252,0
			C74.828,2.496,66.385,4.384,69.145,0.05z"/>
		
			<linearGradient id="SVGID_35_" gradientUnits="userSpaceOnUse" x1="976.519" y1="724.689" x2="748.2281" y2="757.0654" gradientTransform="matrix(-0.7622 0.6473 -0.6473 -0.7622 1163.6157 64.8888)">
			<stop  offset="0" style="stop-color:#FFFFFF"/>
			<stop  offset="1" style="stop-color:#D960FF"/>
		</linearGradient>
		<path fill-rule="evenodd" clip-rule="evenodd" fill="url(#SVGID_35_)" d="M60.547,21.578c-0.606,1.364-1.981,0.839-2.07-0.164
			c0.216-0.843,0.838-0.217,1.143-0.741C60.123,20.924,60.003,21.333,60.547,21.578z"/>
		
			<linearGradient id="SVGID_36_" gradientUnits="userSpaceOnUse" x1="1133.3511" y1="683.1704" x2="854.8069" y2="722.6738" gradientTransform="matrix(-0.7622 0.6473 -0.6473 -0.7622 1163.6157 64.8888)">
			<stop  offset="0" style="stop-color:#FFFFFF"/>
			<stop  offset="1" style="stop-color:#D960FF"/>
		</linearGradient>
		<path fill-rule="evenodd" clip-rule="evenodd" fill="url(#SVGID_36_)" d="M7.979,111.797c-2.477,1.332-4.758,3.354-7.979,2.006
			C2.443,112.354,4.947,111.135,7.979,111.797z"/>
		
			<linearGradient id="SVGID_37_" gradientUnits="userSpaceOnUse" x1="995.9419" y1="711.73" x2="848.2567" y2="732.6748" gradientTransform="matrix(-0.7622 0.6473 -0.6473 -0.7622 1163.6157 64.8888)">
			<stop  offset="0" style="stop-color:#FFFFFF"/>
			<stop  offset="1" style="stop-color:#D960FF"/>
		</linearGradient>
		<path fill-rule="evenodd" clip-rule="evenodd" fill="url(#SVGID_37_)" d="M22.082,81.823c-1.139,0.469-2.62-0.267-4.101-1.018
			C18.729,78.516,21.649,80.581,22.082,81.823z"/>
		
			<linearGradient id="SVGID_38_" gradientUnits="userSpaceOnUse" x1="1020.3413" y1="720.6138" x2="789.5058" y2="753.351" gradientTransform="matrix(-0.7622 0.6473 -0.6473 -0.7622 1163.6157 64.8888)">
			<stop  offset="0" style="stop-color:#FFFFFF"/>
			<stop  offset="1" style="stop-color:#D960FF"/>
		</linearGradient>
		<path fill-rule="evenodd" clip-rule="evenodd" fill="url(#SVGID_38_)" d="M34.923,43.283c2.004,1.547,2.926-0.79,4.704-0.043
			C39.463,44.515,34.709,45.668,34.923,43.283z"/>
		
			<linearGradient id="SVGID_39_" gradientUnits="userSpaceOnUse" x1="991.3042" y1="729.519" x2="832.9523" y2="751.9766" gradientTransform="matrix(-0.7622 0.6473 -0.6473 -0.7622 1163.6157 64.8888)">
			<stop  offset="0" style="stop-color:#FFFFFF"/>
			<stop  offset="1" style="stop-color:#D960FF"/>
		</linearGradient>
		<path fill-rule="evenodd" clip-rule="evenodd" fill="url(#SVGID_39_)" d="M21.795,55.012c-0.415,0.663-1.201-0.008-1.919-0.429
			C20.217,53.443,21.616,54.36,21.795,55.012z"/>
		
			<linearGradient id="SVGID_40_" gradientUnits="userSpaceOnUse" x1="-5.6431" y1="651.105" x2="399.3919" y2="708.5472" gradientTransform="matrix(0.7622 -0.6473 -0.6473 -0.7622 364.4767 743.1973)">
			<stop  offset="0" style="stop-color:#FFFFFF"/>
			<stop  offset="1" style="stop-color:#D960FF"/>
		</linearGradient>
		<path fill-rule="evenodd" clip-rule="evenodd" fill="url(#SVGID_40_)" d="M59.782,83.28c-0.403,0.436-0.96,0.32-1.291,1.008
			c-0.354,0.695,0.603,1.064,1.314,1.492c1.113-2.939-0.665-5.148-0.609-7.821c-0.926-0.901-1.26,0.312-2.183-0.588
			c0.602-0.76,0.205-1.268,0.362-1.915c-5.052-2.982-2.583-7.856-5.003-11.5c0.333-0.957,0.884-1.129,1.323-1.7
			c0.287-0.752-0.351-1.278,0.096-2.072c-0.874-0.618-2.3-1.095-2.544-1.868c1.251-0.995,0.833-1.738,1.387-3.084
			c1.16-0.293,0.993,0.908,1.734,1.389c3-0.681,0.718-3.564-0.614-4.628c0.251-0.442,0.502-0.886,0.754-1.33
			c1.376,0.02,1.064,1.054,2.271,1.707c0.884,0.221,1.355-1.043,2.132-1.22c0.772-1.407-1.56-2.039-0.112-3.616
			c4.324,2.752,5.079-2.991,8.192-3.652c-0.46-1.557-0.467-3.227,0.792-5.217c1.769-0.456,2.542-1.067,3.628-0.682
			c4.13,1.456,2.409,8.435,8.167,5.921c1.103,1.795,3.464,1.892,4.643,1.339c0.526,1.563,2.143,2.532,3.77,2.24
			c1.092,0.864,1.174,1.984,1.939,2.93c0.923,0.354,1.614-0.117,2.486,0.058c0.914,0.757,0.406,1.874,1.403,2.609
			c1.713,0.772,2.586-1.463,4.08-1.481c0.091-2.167,0.643-4.55-2.385-5.325c0.35-1.165,1.194-0.555,1.712-1.113
			c-0.857-3.728,1.775-6,3.052-9.196c2.03,1.238,4.553,0.405,4.919-1.692c-1.248-1.254-1.544,0.905-2.638,0.208
			c-0.107-0.886,1.064-2.091,0.544-2.874c-0.535-0.319-1.073-0.638-1.614-0.961c0.391-1.692-0.13-3.155-1.877-4.311
			c0.483-0.958,1.422-0.275,2.101-0.525c0.385-1.61,0.439-4.823,2.41-4.255c0.392-0.934-1.129-1.386-0.445-2.393
			c2.975,1.002,5.239-0.546,7.915-0.623c0.438,1.467,1.777,0.96,2.692,1.6c3.056,2.142,3.512,5.192,4.743,8.147
			c-1.626,1.121-0.539,2.044-0.849,3.405c-1.77,0.903-2.912,4.049-5.014,3.765c-0.362,0.625,0.021,1.06-0.634,1.757
			c2.347,2.049,3.258,5.661,4.024,8.783c-1.222,2.052-1.969,3.987-2.625,5.899c-2.038,1.82-4.77,1.159-6.661,3.498
			c-1.714-0.812-2.864-0.843-4.074-1.71c-0.68,1.992,0.325,3.563-1.513,5.848c-0.956,0.331-1.825,0.984-2.819,1.167
			c1.04,1.409-0.331,3.423-0.374,5.103c1.042,1.106,2.72,1.103,3.619,2.508c-0.852,1.512-2.348,0.705-3.392,1.537
			c-0.544,1.655,1.524,2.654,2.027,4.045c-0.757,1.046-1.967,0.467-2.82,1.166c0.024,2.5,3.114,4.229,2.591,6.867
			c2.496,2.244,3.388-1.265,5.9,1.022c-0.879,0.345-1.635,1.134-1.204,2.126c1.36,0.58,2.167-0.82,3.595,0.004
			c0.457,1.852-1.705,1.961-3.003,2.123c0.394,2.18,1.047,4.293,1.782,6.389c2.04,1.67,3.207,0.211,5.3,2.084
			c-1.959,0.23-4.214-0.611-6.204-0.49c-0.617,3.268-2.001,6.732,1.386,8.99c0.089,2.334,0.781,4.512-0.891,7.285
			c-0.346,0.91-1.122,0.273-1.559,0.848c-0.266,1.137,0.097,3.309,1.79,3.197c1.328,2.553,0.752,5.58,0.576,8.51
			c-1.959,0.068-1.659,1.471-2.613,2.709c-1.105-0.006-1.076-0.959-2.038-0.855c-1.068,0.178-1.681,1.471-0.936,2.289
			c-1.449,0.236-2.444,2.393-2.257,3.982c0.707,0.391,0.927-0.969,1.797,0.004c-3.023,0.666-2.872,4.248-2.235,6.484
			c-1.625,1.691-3.851,1.225-5.641,2.328c-0.649,0.984,1.209,2.092,0.023,2.504c-1.03-1.115-2.616-1.352-4.133-0.328
			c-0.685,1.006-0.135,1.703-0.816,2.711c-1.614-0.002-1.166-1.402-1.553-2.344c-2.493,2.199-5.786-3.471-8.122-0.92
			c-1.157-0.621-0.092-1.799-1.549-2.344c-1.223-0.895-1.565,1.367-2.789,0.473c0.153-1.006,1.093-1.305,0.663-2.445
			c-2.732-0.83-1.439-2.676-2.866-3.834c-0.82,0.277-1.331,1.666-2.161,1.91c-0.917-1.58,1.031-3.463,2.256-3.984
			c0.261-1.039-0.425-0.428-1.194-1.066c1.352-0.723,2.567-3.68,1.363-5.584c0.623-0.18,1.062-1.023,1.709-1.113
			c0.245-0.971-0.382-1.727,0.128-2.768c1.038-0.361,0.986,0.367,2.306,1.018c0.933-0.92,0.02-1.373,0.515-2.182
			c1.849,0.818,2.836-1.426,2.345-2.867c1.326-0.309,0.597,1.188,1.583,1.65c1.516,0.125,0.107-1.391,1.322-1.699
			c2.789,2.229,4.794-1.813,6.893,0.547c-0.201-1.709,1.014-4.678,2.86-5.049c1.809,0.686,1.967,1.785,2.78,2.719
			c1.354,0.289,1.759-2.82,2.916-3.238c-0.353-2.191-2.81-3.852-3.039-6.072c-2.15-0.262-2.064-1.92-4.161-2.824
			c-1.581-2.791-0.812-5.477-1.565-8.037c0.454-0.789,1.212-0.488,1.709-1.111c0.366-1.232,0.338-2.365-0.258-3.354
			c-3.23-1.271-6.111-3.496-6.639-6.076c-1.479-0.207-2.256,2.105-3.689,2.068c0.589,1.824,1.291,3.623,1.962,5.428
			c1.951,1.965,3.996,0.627,5.147,2.35c-1.027,1.949-2.967,0.637-4.229,1.75c-0.87,2.494-0.42,4.66,1.781,6.385
			c-1.135,1.568-2.638,1.822-3.993,2.6c-0.264,1.584-1.331,3.371,0.769,4.363c-1.292,0.475-2.776,0.25-4.05,0.789
			c-1.815,3.826-6.316,4.633-9.19,7.324c-0.916-0.377-0.306-1.139-0.894-1.6c-1-0.088-1.836,0.408-2.433,1.752
			c-1.469-0.012-1.215-1.207-2.123-1.971c-0.917,0.736-2.344-0.35-3.088,1.004c-2.323-1.619-4.21-1.666-6.14-1.875
			c-0.931,2.309-2.51,2.281-3.755,3.451c-1.23-1.203,1.197-2.072,0.577-3.564c0.667-1.1,1.735-0.764,2.551-1.324
			c-1.874-2.344-6.09-1.416-8.562-3.314c-3.001-2.305-2.352-7.135-1.018-10.906c0.862-0.396,1.85-0.338,2.549-1.324
			c0.144-2.645-3.895-3.742-6.162-4.373c-0.737,0.793-0.177,1.26-0.784,2.02c-0.827,0.527-1.854,0.334-2.787,0.473
			c-1.494-1.445-1.396-3.297-1.846-5.004c3.354-0.428,8.436,1.398,11.859,3.854c2.011-0.027,3.095-3.391,5.251-2.916
			c-0.738-2.662-5.995-3.059-7.629-5.602c3.573-0.887,9.777,7.668,11.835,1.355c-0.936-0.805-3.368-1.654-4.007-3.094
			c0.497-1.711,1.775-0.613,2.432-1.752c-0.135-1.181-1.219-2.121-1.371-3.301C55.933,79,57.413,82.917,59.782,83.28z M55.971,84.92
			c-0.196,0.371-0.456,0.51-0.722,0.637c0.064,1.016,2.094,2.332,2.847,1.338C57.97,86.088,57.093,85.475,55.971,84.92z"/>
	</g>
	<g opacity="0.78">
		<path fill-rule="evenodd" clip-rule="evenodd" fill="#BA00FF" d="M63.608,51.24c-0.373,0.29-0.271,0.553-0.416,0.827
			c0.428,0.29,0.862,0.596,1.234-0.077C64.152,51.741,63.878,51.492,63.608,51.24z"/>
		<path fill-rule="evenodd" clip-rule="evenodd" fill="#BA00FF" d="M53.381,63.537c-0.174,0.844,0.569,0.709,1.167,1.365
			C54.742,64.391,53.936,63.52,53.381,63.537z"/>
		<path fill-rule="evenodd" clip-rule="evenodd" fill="#BA00FF" d="M6.957,118.473c-0.513,0.354,0.032,0.639-0.25,0.982
			c0.425,0.201,0.845,0.303,1.213-0.398C7.587,118.653,7.269,118.508,6.957,118.473z"/>
		<path fill-rule="evenodd" clip-rule="evenodd" fill="#BA00FF" d="M42.487,80.02c-0.38,0.4-0.725,0.791-0.702,1.166
			c0.38,0.392,0.764,0.745,1.123,0.728C43.09,81.265,43.147,80.622,42.487,80.02z"/>
		<path fill-rule="evenodd" clip-rule="evenodd" fill="#BA00FF" d="M38.101,89.243c-0.511,0.346,0.036,0.635-0.248,0.973
			c1.075,0.842,1.545,1.717,2.167,2.582C40.969,91.583,39.192,89.325,38.101,89.243z"/>
		<path fill-rule="evenodd" clip-rule="evenodd" fill="#BA00FF" d="M23.001,110.301C26.188,112.799,24.541,106.44,23.001,110.301
			L23.001,110.301z"/>
		<path fill-rule="evenodd" clip-rule="evenodd" fill="#BA00FF" d="M44.992,85.62c1.88,1.229,3.591-0.299,5.439,0.469
			C50.282,84.071,45.923,84.313,44.992,85.62z"/>
		<path fill-rule="evenodd" clip-rule="evenodd" fill="#BA00FF" d="M41.239,90.004c-0.211,0.34-0.047,0.646,0.367,0.939
			c0.145-0.168,0.29-0.338,0.435-0.51C41.756,90.053,41.505,90.157,41.239,90.004z"/>
		<path fill-rule="evenodd" clip-rule="evenodd" fill="#BA00FF" d="M9.835,130.124c-0.128,0.33-0.123,0.648-0.249,0.977
			c0.607,0.68,1.181,0.771,1.703,0.055C11.226,130.471,10.312,130.026,9.835,130.124z"/>
		<path fill-rule="evenodd" clip-rule="evenodd" fill="#BA00FF" d="M69.943,66.352c1.007-0.079,1.093-0.996,1.278-1.831
			C70.108,63.544,68.626,65.399,69.943,66.352z"/>
		<path fill-rule="evenodd" clip-rule="evenodd" fill="#BA00FF" d="M15.346,139.375c0.827-0.301,1.499-0.684,1.915-1.557
			c-0.345-0.588-0.37-0.609-0.979-0.896C15.486,137.524,13.686,138.407,15.346,139.375z"/>
		<path fill-rule="evenodd" clip-rule="evenodd" fill="#BA00FF" d="M9.269,146.141c0.219,0.197,0.436,0.398,0.654,0.596
			c0.708-0.09,1.189-1.133,0.52-1.629C9.834,145.133,9.481,145.438,9.269,146.141z"/>
		<path fill-rule="evenodd" clip-rule="evenodd" fill="#BA00FF" d="M84.704,60.017c-0.277,0.283-0.103,0.537-0.411,0.824
			c0.335,0.769,1.052,1.925,1.968,1.794C86.687,61.704,85.616,60.866,84.704,60.017z"/>
		<path fill-rule="evenodd" clip-rule="evenodd" fill="#BA00FF" d="M101.85,42.028c-0.194,0.225-0.384,0.448-0.576,0.674
			c0.271,0.246,0.546,0.496,0.818,0.748c0.559-0.414,0.393-0.219,0.721-0.844C102.481,42.206,102.162,42.059,101.85,42.028z"/>
		<path fill-rule="evenodd" clip-rule="evenodd" fill="#BA00FF" d="M90.271,59.997C92.848,58.786,88.185,57.793,90.271,59.997
			L90.271,59.997z"/>
		<path fill-rule="evenodd" clip-rule="evenodd" fill="#BA00FF" d="M32.899,140.696c0.533-0.711,1.43-0.813,1.136-1.67
			C33.23,138.354,32.185,140.1,32.899,140.696z"/>
		<path fill-rule="evenodd" clip-rule="evenodd" fill="#BA00FF" d="M105.933,55.679c0.326,0.299,0.654,0.6,0.982,0.898
			c0.717,0.113,1.787-1.132,1.589-1.855C107.319,53.278,105.673,54.306,105.933,55.679z"/>
		<path fill-rule="evenodd" clip-rule="evenodd" fill="#BA00FF" d="M31.415,149.258c0.272,0.248,0.542,0.498,0.818,0.75
			c0.399-0.195,0.803-0.369,1.196-0.715C33.518,147.725,31.168,147.567,31.415,149.258z"/>
		<path fill-rule="evenodd" clip-rule="evenodd" fill="#BA00FF" d="M108.42,60.959c1.182-0.598,2.151-2.441,2.723-3.522
			C110.163,57.614,107.483,59.728,108.42,60.959z"/>
		<path fill-rule="evenodd" clip-rule="evenodd" fill="#BA00FF" d="M104.094,66.019c-0.553,0.567-0.756,1.111-0.521,1.629
			c0.49,0.449,0.948,0.327,1.396,0.072C105.65,67.105,104.816,66.053,104.094,66.019z"/>
		<path fill-rule="evenodd" clip-rule="evenodd" fill="#BA00FF" d="M119.011,49.604c-0.375,0.504-0.328,0.98,0.242,1.424
			c0.238-0.323,0.508-0.172,0.74-0.525C119.985,50.082,119.42,49.566,119.011,49.604z"/>
		<path fill-rule="evenodd" clip-rule="evenodd" fill="#BA00FF" d="M38.71,147.213C40.443,148.098,39.102,145.137,38.71,147.213
			L38.71,147.213z"/>
		<path fill-rule="evenodd" clip-rule="evenodd" fill="#BA00FF" d="M43.285,148.69c1.182-1.928,1.667-4.35,2.998-6.578
			c-0.501-0.639-0.958-0.527-1.434-0.711C43.98,143.85,42.447,146.342,43.285,148.69z"/>
		<path fill-rule="evenodd" clip-rule="evenodd" fill="#BA00FF" d="M38.667,154.083c-0.63,0.68-1.262,1.359-1.115,1.99
			c0.975,0.314,0.917-0.568,1.771-1.391C39.104,154.483,38.888,154.284,38.667,154.083z"/>
		<path fill-rule="evenodd" clip-rule="evenodd" fill="#BA00FF" d="M111.857,71.615c-0.242,0.285-0.481,0.561-0.723,0.84
			C111.528,73.233,112.889,72.041,111.857,71.615z"/>
		<path fill-rule="evenodd" clip-rule="evenodd" fill="#BA00FF" d="M125.749,61.178c-0.855,0.745,0.819,1.334-0.336,2.095
			c0.334,0.404,0.655,0.55,0.965,0.581c0.371-0.926,0.592-1.845,1.221-2.793C126.949,60.574,126.355,60.958,125.749,61.178z"/>
		<path fill-rule="evenodd" clip-rule="evenodd" fill="#BA00FF" d="M26.479,182.321c0.839-0.311,0.695-0.973,1.443-1.689
			C26.67,178.708,24.788,181.393,26.479,182.321z"/>
		<path fill-rule="evenodd" clip-rule="evenodd" fill="#BA00FF" d="M117.835,75.884c-0.483,1.31-0.871,2.609,0.237,3.819
			C118.72,78.467,119.065,76.484,117.835,75.884z"/>
		<path fill-rule="evenodd" clip-rule="evenodd" fill="#BA00FF" d="M116.858,80.099c-0.245,0.602-0.087,1.177,0.26,1.739
			c0.552-1.107,1.189-0.75,1.793-1.068C118.227,80.563,117.53,80.139,116.858,80.099z"/>
		<path fill-rule="evenodd" clip-rule="evenodd" fill="#BA00FF" d="M131.155,66.117c0.544,1.069,1.904-0.327,1.029-0.86
			C131.825,65.285,131.487,65.682,131.155,66.117z"/>
		<path fill-rule="evenodd" clip-rule="evenodd" fill="#BA00FF" d="M76.61,129.868c0.57,1.998,0.13,3.734,1.237,5.039
			c3.155,3.711,7.484-2.125,4.206-4.574C80.415,129.112,78.581,131.129,76.61,129.868z"/>
		<path fill-rule="evenodd" clip-rule="evenodd" fill="#BA00FF" d="M118.075,84.817c0.684,0.098,1.471-0.826,1.3-1.518
			C117.815,81.547,115.978,83.461,118.075,84.817z"/>
		<path fill-rule="evenodd" clip-rule="evenodd" fill="#BA00FF" d="M131.839,69.752c0.837,0.362,2.258-0.731,1.753-1.705
			C132.77,67.49,131.262,68.851,131.839,69.752z"/>
		<path fill-rule="evenodd" clip-rule="evenodd" fill="#BA00FF" d="M123.774,87.024c-1.182-4.265-6.684-1.59-4.582,0.922
			C120.246,89.2,122.484,88.625,123.774,87.024z"/>
		<path fill-rule="evenodd" clip-rule="evenodd" fill="#BA00FF" d="M112.799,97.125c0.422-0.4,0.561-0.781,0.087-1.119
			C112.311,96.327,112.086,96.551,112.799,97.125z"/>
		<path fill-rule="evenodd" clip-rule="evenodd" fill="#BA00FF" d="M114.483,96.864c-0.777,0.641,0.546,1.494,1,1.215
			C116.075,97.575,115.001,96.356,114.483,96.864z"/>
		<path fill-rule="evenodd" clip-rule="evenodd" fill="#BA00FF" d="M86.834,130.198c0.528,0.68,1.414,0.59,1.379-0.242
			C87.726,129.565,87.267,129.608,86.834,130.198z"/>
		<path fill-rule="evenodd" clip-rule="evenodd" fill="#BA00FF" d="M106.666,125.79c0.574-1.74,0.592-3.445,1.23-5.193
			c-0.816-1.229-2.063-2.43-2.393-3.686c-1.035-0.076-2.044,0.246-3.157-1.086c-1.946,0.99-3.898,0.707-5.248,2.719
			c-1.584,2.371-0.575,5.668,0.798,7.941c1.065,0.586,2.082,0.314,3.198,1.723C103.292,128.795,104.827,126.2,106.666,125.79z"/>
		<path fill-rule="evenodd" clip-rule="evenodd" fill="#BA00FF" d="M125.026,87.268c-0.192,0.225-0.385,0.445-0.576,0.674
			c0.501,0.58,0.975,0.805,1.395,0.074C125.573,87.768,125.3,87.518,125.026,87.268z"/>
		<path fill-rule="evenodd" clip-rule="evenodd" fill="#BA00FF" d="M104.081,113.799c1.528,1.428,2.952,1.18,4.407,1.33
			c-0.321-1.641-2.932-0.994-3.873-2.639C103.966,112.526,104.246,113.323,104.081,113.799z"/>
		<path fill-rule="evenodd" clip-rule="evenodd" fill="#BA00FF" d="M108.069,110.838c0.193-0.223,0.385-0.447,0.579-0.674
			C108.132,109.458,107.328,110.395,108.069,110.838z"/>
		<path fill-rule="evenodd" clip-rule="evenodd" fill="#BA00FF" d="M124.204,94.028c-0.144,0.17-0.289,0.342-0.434,0.508
			c0.357,1.258,1.751,0.814,2.504,0.486C125.582,94.696,124.913,94.68,124.204,94.028z"/>
		<path fill-rule="evenodd" clip-rule="evenodd" fill="#BA00FF" d="M112.968,107.504c0.313,1.313,2.019,0.84,2.138-0.451
			C114.351,105.84,113.094,106.422,112.968,107.504z"/>
		<path fill-rule="evenodd" clip-rule="evenodd" fill="#BA00FF" d="M134.671,83.161c0.012,0.43,0.566,0.818,1.001,1.221
			c0.435-0.295,1.195-0.723,1.156-1.352C136.072,82.44,135.351,82.487,134.671,83.161z"/>
		<path fill-rule="evenodd" clip-rule="evenodd" fill="#BA00FF" d="M66.748,163.229c0.585,2.693,4.498,3.566,6.278,1.535
			c-0.155-0.15,0.05-0.324,0.125-0.488C72.039,161.657,68.56,160.77,66.748,163.229z"/>
		<path fill-rule="evenodd" clip-rule="evenodd" fill="#BA00FF" d="M113.486,113.385
			C109.827,108.118,110.403,118.038,113.486,113.385L113.486,113.385z"/>
		<path fill-rule="evenodd" clip-rule="evenodd" fill="#BA00FF" d="M115.656,108.459c0.682,0.549,1.294-0.053,1.5-0.732
			c-0.164-0.148-0.328-0.303-0.492-0.449C116.24,107.288,115.616,108.02,115.656,108.459z"/>
		<path fill-rule="evenodd" clip-rule="evenodd" fill="#BA00FF" d="M84.508,145.206c-0.743,0.576-0.129,1.07-0.21,1.607
			c0.315,0.137,0.624,0.129,0.944,0.26C85.904,146.418,85.369,145.266,84.508,145.206z"/>
		<path fill-rule="evenodd" clip-rule="evenodd" fill="#BA00FF" d="M47.042,192.405c1.287-1.412,1.112-2.732,2.068-4.123
			C47.433,188.03,46.186,191.28,47.042,192.405z"/>
		<path fill-rule="evenodd" clip-rule="evenodd" fill="#BA00FF" d="M95.282,134.313c-1.882,2.58,1.671,2.352,3.13,3.164
			C98.396,135.922,96.15,135.719,95.282,134.313z"/>
		<path fill-rule="evenodd" clip-rule="evenodd" fill="#BA00FF" d="M128.875,97.1c-0.189,0.225-0.384,0.449-0.577,0.676
			c0.279,0.383,0.534,0.277,0.8,0.43C129.527,97.805,129.345,97.44,128.875,97.1z"/>
		<path fill-rule="evenodd" clip-rule="evenodd" fill="#BA00FF" d="M116.046,114.827c0.406-0.313,1.063-0.564,1.012-1.182
			C116.057,112.188,114.612,113.979,116.046,114.827z"/>
		<path fill-rule="evenodd" clip-rule="evenodd" fill="#BA00FF" d="M66.168,171.418c-0.526,0.455-0.114,0.855,0.383,1.25
			C67.319,172.157,66.761,171.377,66.168,171.418z"/>
		<path fill-rule="evenodd" clip-rule="evenodd" fill="#BA00FF" d="M120.439,108.321c0.646,0.406,1.306,1.115,1.871,0.207
			C121.645,107.805,121.022,107.721,120.439,108.321z"/>
		<path fill-rule="evenodd" clip-rule="evenodd" fill="#BA00FF" d="M102.646,130.831c-0.806,1.391,1.705,2.363,2.659,3.029
			C105.986,132.768,103.39,131.342,102.646,130.831z"/>
		<path fill-rule="evenodd" clip-rule="evenodd" fill="#BA00FF" d="M105.07,130.038c0.474-0.027,1.283-0.887,0.54-1.311
			C105.138,128.756,104.331,129.616,105.07,130.038z"/>
		<path fill-rule="evenodd" clip-rule="evenodd" fill="#BA00FF" d="M111.76,125.631c0.05,0.91,0.884,2.729,2.167,2.59
			C115.489,126.786,113.47,123.389,111.76,125.631z"/>
		<path fill-rule="evenodd" clip-rule="evenodd" fill="#BA00FF" d="M120.699,117.577c-0.18,0.346,0.477,1.439,1.001,1.215
			C122.373,118.284,120.957,117.555,120.699,117.577z"/>
		<path fill-rule="evenodd" clip-rule="evenodd" fill="#BA00FF" d="M127.184,112.385c-0.192,0.225-0.384,0.449-0.578,0.674
			C127.006,113.776,128.173,112.813,127.184,112.385z"/>
		<path fill-rule="evenodd" clip-rule="evenodd" fill="#BA00FF" d="M94.133,153.405c0.023,0.922,1.104,2.301,2.146,2.266
			C97.733,154.233,95.663,151.258,94.133,153.405z"/>
		<path fill-rule="evenodd" clip-rule="evenodd" fill="#BA00FF" d="M132.131,112.401c0.448-0.238,0.917-0.186,1.338-0.883
			C132.962,109.276,129.929,111.026,132.131,112.401z"/>
		<path fill-rule="evenodd" clip-rule="evenodd" fill="#BA00FF" d="M102.128,145.084c0.62,0.875,1.154,0.361,1.722,0.369
			c0.986,0.791,1.463,2.199,2.599,2.08c0.717-0.896-0.567-1.67-1.388-2.471c0.866-0.477,2.251-0.691,2.201-1.895
			C105.498,142.926,103.782,143.536,102.128,145.084z"/>
		<path fill-rule="evenodd" clip-rule="evenodd" fill="#BA00FF" d="M96.582,158.045c-0.234,1.111,0.619,2.902,2.063,3.387
			C98.56,160.342,98.095,158.532,96.582,158.045z"/>
		<path fill-rule="evenodd" clip-rule="evenodd" fill="#BA00FF" d="M127.335,122.44c-0.308,0.873-0.716,1.75,0.462,2.529
			C128.708,124.116,127.901,122.696,127.335,122.44z"/>
		<path fill-rule="evenodd" clip-rule="evenodd" fill="#BA00FF" d="M130.226,124.186c0.373-0.504,0.327-0.984-0.242-1.426
			C128.934,122.971,129.313,124.153,130.226,124.186z"/>
		<path fill-rule="evenodd" clip-rule="evenodd" fill="#BA00FF" d="M140.592,111.723c0.88,0.902,1.687,0.584,2.467-0.154
			C142.704,110.631,140.791,110.538,140.592,111.723z"/>
		<path fill-rule="evenodd" clip-rule="evenodd" fill="#BA00FF" d="M83.859,180.081c0.317,0.135,0.625,0.127,0.943,0.262
			c0.536-0.621,0.92-1.229,0.355-1.779C84.292,177.899,83.519,179.479,83.859,180.081z"/>
		<path fill-rule="evenodd" clip-rule="evenodd" fill="#BA00FF" d="M125.795,135.161c0.791,0.689,2.862,1.719,4.042,0.393
			C128.441,134.627,127.12,134.918,125.795,135.161z"/>
		<path fill-rule="evenodd" clip-rule="evenodd" fill="#BA00FF" d="M138.799,120.301c0.06,0.9,0.792,1.764,1.242,2.639
			C141.107,122.032,139.864,120.571,138.799,120.301z"/>
		<path fill-rule="evenodd" clip-rule="evenodd" fill="#BA00FF" d="M129.067,133.043c1.462,1.189,2.861,1.332,4.245,1.18
			C134.117,132.194,128.952,130.436,129.067,133.043z"/>
		<path fill-rule="evenodd" clip-rule="evenodd" fill="#BA00FF" d="M119.86,146.868c0.451-0.018,1.184-0.879,1.155-1.348
			C120.051,144.467,118.264,145.803,119.86,146.868z"/>
		<path fill-rule="evenodd" clip-rule="evenodd" fill="#BA00FF" d="M143.017,118.446c0.047,0.498,0.99,1.355,1.472,1.346
			C146.017,118.772,143.808,116.754,143.017,118.446z"/>
		<path fill-rule="evenodd" clip-rule="evenodd" fill="#BA00FF" d="M123.223,148.741c0.141-0.219,0.294-0.266,0.452-0.186
			c0.624-0.945,0.153-1.82-0.627-2.68C121.333,145.301,121.77,148.518,123.223,148.741z"/>
		<path fill-rule="evenodd" clip-rule="evenodd" fill="#BA00FF" d="M142.411,133.823c0.753,1.193,1.923-0.809,2.077-1.404
			C143.378,131.692,143.28,132.977,142.411,133.823z"/>
		<path fill-rule="evenodd" clip-rule="evenodd" fill="#BA00FF" d="M89.899,197.93c0.686-0.064,0.961-1.002,0.375-1.465
			C89.683,196.52,88.966,197.483,89.899,197.93z"/>
		<path fill-rule="evenodd" clip-rule="evenodd" fill="#BA00FF" d="M120.73,176.221c1.562-0.621,0.99-2.369,0.875-3.406
			C119.448,171.807,119.333,175.083,120.73,176.221z"/>
		<path fill-rule="evenodd" clip-rule="evenodd" fill="#BA00FF" d="M47.801,68.352c1.492-3.42,6.208,1.335,2.822,3.181
			c0.232,0.199,0.291,0.411,0.348,0.62c2.277,0.376,4.696,3.392,6.298,1.852c1.124-1.083,0.229-1.526,0.005-2.396
			c-0.353-1.425,1.021-2.534,0.693-3.878c0.773,0.022,1.564,0.312,2.3-0.301c3.064-5.877,8.094-0.549,12.192,2.128
			c0.868-0.906,0.077-1.712-0.466-2.528c1.498-1.263,1.444-2.433,1.944-3.635c1.298,1.322,0.712,4.099,0.371,6.051
			c0.903,0.436,1.826,1.272,2.705,1.271c3.078-2.745,6.202-4.755,9.383-5.849c0.326-0.634,0.116-1.806,0.806-1.966
			c1.516,0.149,0.31,1.627,1.227,2.32c1.852,1.223,4.049,0.881,5.863,2.359c1.285,1.044,1.848,2.532,3.219,2.039
			c0.287-0.335,0.573-0.672,0.864-1.009c1.486,1.209-0.581,1.757-0.317,2.417c0.586,0.303,1.172,0.595,1.726,0.372
			c0.693-0.576,0.665-1.109,1.137-1.667c0.977,0.77,1.419,1.602,2.85,1.102c0.371-0.556-0.307-1.046,0.517-1.631
			c0.314,1.492,1.896,3.378,3.813,1.683c-0.163,1.703,1.505,3.813,3.257,2.679c1.638,1.071,1.767,2.233,2.37,3.371
			c0.735,0.238,1.367-1.278,2.08-1.406c1.551,1.342-1.675,2.978-0.818,4.362c0.325,0.727,0.753,1.446,1.369,2.154
			c-0.274,0.816-1.125,1.666-0.316,2.418c0.53,0.215,1.047,0.258,1.601,0.861c0.41,1.559-1.296,1.74-1.242,2.473
			c0.453,0.637,0.797-0.494,1.25,0.242c0.363,1.02,0.308,2.264-1.055,2.941c-0.576-0.385-0.975-1.637-2.012-0.035
			c0.029,0.721,0.688,0.525,1.147,1.047c-0.311,0.926-0.509,1.842-1.221,2.793c-0.724-0.043-1.535-1.525-2.213-0.826
			c0.015,1.129-0.594,0.588-1.299,1.516c0.634,0.975,0.438,2.002,0.031,3.039c0.491,0.449,0.982,0.9,1.474,1.346
			c-0.021,1.313-0.669,2.564-1.51,3.131c0.664,0.6,1.224,1.203,1.042,1.852c-1.245-0.232-1.856,0.832-2.042,2.043
			c-1.273,0.369-2.941,1.455-3.686,2.943c-0.587-0.361-1.193-1.018-1.723-0.375c-0.075,0.645,0.822,1.229-0.188,1.93
			c-0.588,0.502-1.279-0.639-1.869-0.205c-1.494,1.371,0.258,2.543-0.383,3.859c-0.555-0.652-1.084-0.859-1.58-0.543
			c-1.716,3.252-5.123,0.342-7.362,3.488c0.391,0.563,0.829,1.121,0.571,1.723c-0.636-0.27-1.31-1.195-1.907-0.844
			c-2.803,2.514,0.675,3.949,1.293,5.994c-1.109-0.457-2.256-1.521-3.379-2.191c-1.727,1.305-3.497,1.848-5.267,2.404
			c0.02,1.332,1.518,2.568,0.399,3.971c-1.529,0.182-1.213-1.611-1.696-2.453c-0.63-0.18-1.27-0.514-1.829,0.432
			c-0.292,0.441,0.692,0.813,0.078,1.273c-0.542,0.4-1.135-0.033-1.742-0.693c-0.109-0.582,0.677-1.209,0.661-1.799
			c-1.261,0.52-2.385-1.449-3.917-0.879c-1.076,2.605-3.638,0.6-5.323,1.447c-0.396,1.088,0.312,2.111,1.119,3.127
			c-1.367,1.275-2.89-0.014-4.255,1.219c-0.423,1.145,1.254,2.162,0.667,3.314c-0.935,0.75-1.947,0.193-2.997-0.936
			c-0.712,0.135-1.407,0.578-2.08,1.408c-0.184,0.492,0.584,0.92,0.243,1.422c-0.832-0.105-1.645,0.045-2.443,0.469
			c1.66,2.586,0.366,6.467-2.939,7.531c0.229,0.201,0.29,0.408,0.346,0.617c0.661,0.693,1.219-0.297,1.867,0.207
			c0.438,0.451-0.482,0.99,0.241,1.424c0.453-0.203,0.908-0.361,1.355-0.563c0.752,1.436-0.694,3.523,1.508,4.381
			c-0.333,1.246-0.599,2.486,0.685,3.637c-1.618,1.32-2.489,3.701-2.915,5.449c-1.174,0.291-2.45,0.158-3.125,1.947
			c-1.858-0.018-3.649,1.021-5.584-0.291c-0.749,0.896-0.589,1.738-1.076,2.617c1.406,2.156,0.224,4.465,0.1,6.707
			c-0.507,0.119-1.055-0.385-1.541,0.094c-0.198,0.703,0.371,1.363-0.335,2.102c-0.614,0.051-1.264-0.422-1.848,0.111
			c-2.006,2.584-4.28,0.811-6.409,1.354c-0.647-1.576-1.724-1.064-2.71-1.275c-0.663-1.822-2.846-3.551-2.649-5.43
			c-0.659-0.635-1.234,0.074-1.909-0.842c0.552-1.088,1.25,0.207,1.813-0.75c0.626-0.781-0.208-1.479-0.449-2.209
			c0.408-0.959,0.933,0.064,1.36-0.561c-0.029-0.84,0.174-2.043,1.241-2.477c0.235-0.547-0.927-1.008-0.406-1.574
			c0.984,0.125,1.979,0.365,2.917-0.336c0.125-1.016,0.562-2.555,1.819-3.148c1.076,0.838-0.149,1.82,0.932,2.658
			c1.48-0.289,0.271-1.547,1.098-2.305c1.325,0.205-0.323,1.777,1.386,2.475c0.146-0.174,0.304-0.08,0.456-0.189
			c1.042-1.568-0.131-4.113-1.978-4.514c-0.016-0.586,0.834-1.223,1.279-1.836c-0.172-0.734-0.457-1.463-0.444-2.209
			c1.555-0.396,1.666-1.957,2.126-3.168c0.552-0.25,1.136,0.031,1.665-0.582c0.357-0.768-0.833-1.439-0.137-2.225
			c1.404,1.023,2.748,1.094,3.985-0.566c0.708-0.229,1.51,1.111,2.196,0.502c0.496-0.828-0.786-1.547-1.532-2.301
			c0.285-1.295,0.381-2.58-0.235-3.822c-1,0.475-2.004,0.912-3.022,1.143c-0.694-0.596-0.772-1.229-1.659-1.814
			c-0.933-0.094-1.852-0.023-2.75,0.488c-0.248,1.459-0.871,2.93-1.432,4.4c-1.26-2.104,1.072-4.43-0.552-6.516
			c-0.853-0.436-1.595,0.896-2.466,0.154c-0.593-0.604-0.014-1.277-0.731-1.875c-0.979-0.783-1.876-0.322-2.832-0.787
			c-0.569-1.029-1.404-2.043-2.661-3.031c-1.225,0.186-2.448,0.408-3.618,1.504c-2.26,0.256-4.129-2.373-4.442-4.367
			c0.663-1.422,2.17-2.824,3.318-3.875c-0.108-0.846-0.756-1.658-0.771-2.51c0.657-0.295,1.073-0.859,0.683-1.48
			c-0.718-0.246-0.58-0.465-1.147-1.051c0.232-0.705,1.152-1.457,0.643-2.117c-0.597-0.689-1.646-0.389-1.781-1.326
			c-0.021-1.084,1.022-0.125,1.48-1.051c-0.363-1.422-1.731-0.523-2.561-1.439c0.041-1.184,1.207-0.822,1.75-1.705
			c-0.147-0.814-1.172-0.643-1.021-1.535c1.308-1.359,2.802,0.297,4.149-0.414c0.343-0.982,0.731-1.965,0.441-2.906
			c-0.743,0.494-1.794,0.764-2.196-0.506c1.597-0.49,0.909-1.434,1.693-2.658c0.697-0.398,1.518,1.207,2.235,1.141
			c0.446-0.377,1.085-1.316,1.914-1.555c0.084-0.699-0.088-1.381,0.029-2.082c1.667-0.553,3.96-0.258,4.628-2.68
			c2.578-1.623,6.039,0.488,8.055-2.246c0.878,0.527,0.687,1.125,1.184,1.68c1.117-0.076,1.245-0.807,2.205-1.891
			c0.802-0.117,0.792,1.137,1.456,1.025c0.057-0.479,0.809-1.008,0.681-1.479c-0.45,0.031-1.282-0.732-1.31-1.197
			c0.757-0.953,1.427,0.535,1.89,0.523c0.474-0.748,1.8-0.676,1.75-1.705c-2.741-1.346-4.915,2.738-7.292-0.354
			c-0.485-0.391-0.888,0.617-1.393-0.072c0.58-1.99,2.622-0.531,3.745-1.984c0.079-0.807-0.356-1.582-0.303-2.383
			c1.39-1.74,3.042,0.875,4.539,0.84c1.263-1.242-0.021-1.865-0.629-2.678c0.588-0.941,0.755-1.857-0.323-2.695
			c-2.457,0.215-5.031-1.377-7.587-2.733c0.121-0.857-0.277-1.686-0.772-2.51c0.542-0.418,1.102-0.525,1.704,0.06
			c0.131,0.523-1.057,1.128-0.518,1.627c2.47,1.589,4.811,1.122,7.319,3.388c0.39-0.353,0.836,0.206,1.211-0.396
			c-0.953-1.752,0.106-3.627-0.329-5.412c-3.548-0.964-8.082-4.427-10.51-7.506c0.144-0.171,0.287-0.338,0.433-0.507
			C46.649,68.073,47.263,68.841,47.801,68.352z M58.875,72.466c0.561,0.86,2.194-1.047,1.298-1.519
			C59.691,70.997,58.861,71.967,58.875,72.466z M29.838,110.842c0.207,0.029,0.415,0.064,0.632,0.279
			c0.446-0.453,0.812-0.9,0.232-1.289C30.296,109.84,29.798,110.42,29.838,110.842z M52.743,88.504
			c1.203,1.424,1.987,1.873,3.304,0.916C55.443,87.909,53.688,87.385,52.743,88.504z"/>
	</g>
	<g opacity="0.78">
		
			<linearGradient id="SVGID_41_" gradientUnits="userSpaceOnUse" x1="1037.5142" y1="110.5513" x2="1037.5142" y2="6.5859" gradientTransform="matrix(-0.9982 0.0595 0.0595 0.9982 1130.9943 -29.6037)">
			<stop  offset="0" style="stop-color:#0000FF"/>
			<stop  offset="0.1248" style="stop-color:#2605E3"/>
			<stop  offset="0.3613" style="stop-color:#690CB3"/>
			<stop  offset="0.5756" style="stop-color:#9E138D"/>
			<stop  offset="0.7601" style="stop-color:#C41772"/>
			<stop  offset="0.9078" style="stop-color:#DB1A61"/>
			<stop  offset="1" style="stop-color:#E41B5B"/>
		</linearGradient>
		<path fill="url(#SVGID_41_)" d="M53.305,55.678c0.108-0.141,0.515-0.574,0.187-0.827c-0.092-0.072-0.508-0.018-0.579,0.077
			c-0.072,0.093-0.169,0.317-0.16,0.399c-0.097,0.223-0.038,0.343,0.102,0.45C53.042,55.92,53.198,55.816,53.305,55.678z
			 M61.027,58.917c0.107-0.139-0.087-0.662-0.183-0.734c-0.609-0.468-0.97,0.001-1.313,0.259c0.103,0.153,0.376,0.287,0.232,0.474
			C60.208,59.111,60.667,59.388,61.027,58.917z M56.066,98.407c-0.289,0.375-0.289,0.375,0.016,0.756
			c0.036-0.045,1.267-0.293,1.315-0.256c0.131-0.271,0.348-0.553,0.48-0.822C57.385,97.852,56.319,98.079,56.066,98.407z
			 M80.223,40.114c0.071-0.094,0.025-0.129-0.163-0.272c-0.235-0.18-0.281-0.215-0.315-0.17l0.046,0.034
			c-0.037,0.049-0.083,0.014-0.131-0.024c-0.025,0.13-0.095,0.224-0.121,0.356c0.046,0.035,0.129,0.022,0.129,0.022
			c0.047,0.038,0.058,0.122-0.015,0.214C80.044,40.348,80.115,40.256,80.223,40.114z M103.433,59.786
			c0.214,0.012,0.369-0.093,0.441-0.187c0.18-0.234,0.207-0.66,0.315-0.8c-0.166,0.021-0.191,0.153-0.332,0.045
			c-0.071,0.093-0.05,0.258-0.124,0.353c-0.033,0.046-0.246,0.033-0.319,0.128C103.344,59.418,103.412,59.617,103.433,59.786z
			 M99.588,53.628c0.394-0.515,0.187-0.825-0.249-1.231c-0.035,0.045-0.235,0.115-0.344,0.257c-0.109,0.14-0.136,0.565,0.025,0.839
			c0.096,0.072,0.15,0.192,0.197,0.229C99.36,53.829,99.481,53.769,99.588,53.628z M102.784,52.279
			c-0.095-0.071-0.106-0.152-0.07-0.202c0,0,0.045,0.038,0.081-0.008c0.073-0.097-0.147-0.49-0.382-0.669
			c-0.467-0.359-1.064-0.069-1.157-0.14c-0.081,0.009-0.154,0.104-0.19,0.149c-0.324,0.424,0.037,0.924,0.41,1.212
			C101.899,52.947,102.328,52.678,102.784,52.279z M94.259,44.548c0.034-0.045,0.158-0.4-0.171-0.652
			c-0.328-0.251-0.515-0.395-0.839,0.027c-0.18,0.234-0.313,0.504-0.103,0.813C93.567,45.061,93.936,44.971,94.259,44.548z
			 M100.673,52.6c-0.107,0.142,0.092,0.367,0.243,0.561l0.36-0.467C101.088,52.547,100.891,52.319,100.673,52.6z M79.857,49.818
			c-1.219-0.937-2.263,0.423-2.356,0.352c-0.396,0.517-0.716,1.615,0.41,2.476c0.844,0.648,1.168,0.226,1.731,0.658
			c0.07-0.094,0.194-0.447,0.302-0.588c0.145-0.19,0.165-0.022,0.309-0.211C81.188,51.287,80.608,50.394,79.857,49.818z
			 M57.486,75.577c0.108-0.142-0.043-0.332-0.148-0.486c-0.108,0.141-0.394,0.221-0.584,0.371
			C56.848,75.534,57.235,75.905,57.486,75.577z M67.419,89.53c0.532,0.186,0.843-0.318,1.131-0.695
			C68.269,88.62,67.599,89.297,67.419,89.53z M55.209,77.183c0.267-0.541,0.602-0.879,0.122-1.322
			c-0.143,0.187-0.835-0.27-1.972,0.724c-0.215,0.282-0.11,0.436-0.149,0.778c0.469,0.361,0.969-0.001,1.251,0.214
			C54.605,77.389,55.021,77.039,55.209,77.183z M81.943,50.303c0.504-0.656,0.852-0.916-0.319-1.814
			c-0.287,0.081-0.49,0.148-0.772,0.226c0.046,0.039,0.082-0.006,0.082-0.006c0.047,0.035-0.443,0.479-0.139,0.859
			c0.031,0.25,0.09,0.366,0.184,0.437C81.261,50.222,81.663,50.087,81.943,50.303z M55.42,89.34
			c-0.536,0.41-1.008,0.346-1.332,0.768c-0.396,0.516-0.368,1.059-0.086,1.275c0.375,0.287,1.255-0.08,1.65-0.596
			c0.072-0.094,0.108-0.141,0.133-0.271C56.041,89.891,55.888,89.702,55.42,89.34z M72.071,103.086
			c-0.199,0.068-0.427,0.268-0.607,0.504c-0.143,0.188-0.208,0.66-0.069,0.768c0.377,0.287,0.975-0.299,1.01-0.346
			c0.288-0.375,0.447-0.775,0.65-1.139C72.681,102.584,72.465,102.866,72.071,103.086z M52.504,124.514
			c-0.145,0.186-0.042,0.635,0.24,0.854c0.187,0.143,0.569-0.16,0.676-0.301c0.109-0.141,0.133-0.27,0.055-0.555
			c0.071-0.096,0.025-0.131-0.023-0.166C53.029,124.022,52.756,124.186,52.504,124.514z M69.688,103.569
			c0.19,0.145,0.273,0.133,0.273,0.133c0.036-0.045-0.011-0.082-0.059-0.119C69.81,103.512,69.727,103.522,69.688,103.569z
			 M61.4,117.776c-0.18,0.234-0.727,1.529-0.823,2.723c0.436,0.111,0.496-0.066,0.879-0.369c-0.094-0.072-0.033-0.248,0.075-0.389
			c0.108-0.143,0.262-0.248,0.299-0.295c0.171-0.613,0.593-1.258,0.138-1.828C61.688,117.401,61.616,117.495,61.4,117.776z
			 M72.082,98.995c-0.457,0.695-0.146,1.453-0.426,2.207l0.188,0.145c0.266-0.539,0.127-0.943,0.488-1.414
			C72.62,99.557,72.315,99.174,72.082,98.995z M142.174,84.368c-0.108,0.141-0.168,0.318-0.219,0.576
			c0.141,0.109,0.187,0.145,0.149,0.191l-0.046-0.035c-0.037,0.047,0.01,0.084,0.059,0.117c0.073-0.094,0.155-0.104,0.247-0.031
			c0.047,0.037,0.107,0.154,0.199,0.225c0.192-0.15,0.311-0.207,0.418-0.346c0.108-0.141,0.085-0.309-0.027-0.547
			c-0.013-0.082-0.107-0.152-0.2-0.227C142.567,84.147,142.318,84.18,142.174,84.368z M59.34,105.016
			c-0.144,0.189-0.324,0.424-0.35,0.553c0.53,0.184,0.652-0.168,1.023-0.557c-0.094-0.072-0.068-0.201,0.004-0.295
			c0.071-0.094,0.226-0.199,0.261-0.246c0.073-0.094,0.088-0.309,0.088-0.309c-0.037,0.051-0.249,0.035-0.501,0.365
			c-0.071,0.092-0.144,0.186-0.132,0.27C59.594,104.688,59.484,104.831,59.34,105.016z M58.541,127.133
			c-0.791,1.031-2.181,2.648-0.773,3.729c0.093,0.07,1.419-0.104,2.679-1.744c0.792-1.031,0.913-2.357,0.022-3.041
			C59.823,125.657,59.081,126.428,58.541,127.133z M74.663,90.096c-0.145,0.188-0.183,0.531,0.099,0.748
			c0.235,0.178,0.662-0.09,0.914-0.418c0.072-0.094,0.134-0.27,0.169-0.316c-0.047-0.035-0.129-0.025-0.129-0.025
			c-0.048-0.037-0.06-0.119-0.022-0.166c0,0,0.037-0.047,0.119-0.057C75.447,89.655,74.915,89.768,74.663,90.096z M72.976,92.975
			c0.094,0.072,0.105,0.156,0.033,0.25c-0.024,0.033-0.059,0.031-0.085,0.039c0.035,0.188-0.649,1.855,0.164,2.479
			c0.469,0.359,0.56-0.537,0.982-0.215c0,0,0.013,0.086-0.025,0.133c0.941,0.424,1.448,0.736,2.6-0.766
			c0.323-0.422-0.226-1.066,0.098-1.488c-1.126-0.863-2.024,0.309-2.588-0.123c-0.235-0.182-0.149-0.486-0.383-0.666
			C73.443,92.364,73.264,92.598,72.976,92.975z M76.552,85.883c-0.179,0.232-0.373,0.684-0.045,0.936
			c0.282,0.215,0.931,0.34,1.22-0.033c0.145-0.191,0.064-0.475-0.015-0.758c-0.105-0.156-0.164-0.275-0.258-0.346
			C77.22,85.5,76.805,85.553,76.552,85.883z M64.465,107.756c-0.14-0.107-0.598,0.586-0.705,0.725
			c0.212,0.018,0.248-0.031,0.404-0.135c-0.095-0.072-0.07-0.203,0.039-0.344C64.274,107.909,64.43,107.805,64.465,107.756z
			 M72.889,93.28c0,0,0.024-0.014,0.036-0.016c0-0.008,0.004-0.027,0.001-0.029C72.925,93.235,72.925,93.235,72.889,93.28z
			 M65.109,106.241c0.093,0.068-0.271,0.834-0.378,0.975c-0.073,0.096-0.166,0.023-0.31,0.211c-0.036,0.047-0.024,0.129,0.022,0.166
			c0.094,0.072,0.285-0.08,0.429-0.268c0.145-0.188,0.242-0.412,0.148-0.484c0.144-0.186,0.346-0.256,0.454-0.396
			c0.073-0.094,0.049-0.258-0.102-0.451C65.299,106.088,65.181,106.145,65.109,106.241z M70.923,60.102
			c-0.65,0.846-0.732,0.856-0.205,1.335c0.181-0.235,1.534,0.433,2.503-0.835c0.182-0.235,0.231-0.495-0.144-0.784
			c-0.233-0.179-0.611-0.171-0.922,0.039C71.709,59.662,71.306,59.799,70.923,60.102z M124.608,81.622
			c-0.468-0.359-1.629-1.178-2.094-0.863C123.031,81.153,124.144,81.934,124.608,81.622z M133.453,70.972
			c-0.048-0.038-0.079-0.286-0.174-0.359c-0.047-0.035-0.083,0.01-0.155,0.105l-0.374-0.287c-0.77,0.225-1.854-0.306-3.195,0.082
			c0.893,0.685,1.692,0.03,2.3,0.497c0.144-0.186,0.504,0.315,0.688,0.079C132.881,71.13,133.19,71.214,133.453,70.972z
			 M117.798,82.729c0.503,0.314,1.035,0.496,1.529,0.725c0.324-0.42-0.071-0.877-0.591-1.272c-0.232-0.18-0.457-0.276-0.845-0.351
			c-0.179-0.06-0.3-0.002-0.332,0.043C117.378,82.11,117.612,82.585,117.798,82.729z M111.742,80.618
			c0.253-0.328,0.182-0.529-0.098-0.747c-0.274,0.163-0.579,0.076-0.758,0.31c-0.11,0.143-0.172,0.317-0.243,0.412
			c-0.18,0.234-0.429,0.268-0.762,0.607c0.188,0.143,0.438-0.184,0.641-0.252C111.005,81.094,111.454,80.991,111.742,80.618z
			 M110.994,84.215c-0.178-0.063-0.094-0.072-0.258-0.051C110.829,84.235,110.886,84.356,110.994,84.215z M107.995,92.497
			c-0.009-0.008,0.001-0.014-0.007-0.021c-0.045-0.025-0.08-0.047-0.088-0.051C107.899,92.424,107.948,92.459,107.995,92.497z
			 M84.656,53.276c-0.177-0.061-0.093-0.072-0.258-0.05C84.491,53.297,84.549,53.417,84.656,53.276z M146.608,82.181
			c0.25-0.325,0.11-0.437-0.077-0.58c-0.188-0.144-0.258-0.051-0.354-0.121c-0.046-0.036-0.104-0.155-0.15-0.192
			c-0.047-0.035-1.507-0.561-1.794-0.186c-0.038,0.049-0.11,0.142-0.1,0.225C144.958,81.808,145.467,81.825,146.608,82.181z
			 M108.754,79.366c0.096-0.224,0.158-0.4,0.265-0.541c0.094,0.07,0.31-0.211,0.525-0.493c0.36-0.468,0.303-0.584,0.067-0.765
			c-0.328-0.25-0.481-0.148-0.662,0.088c-0.324,0.42-0.153,1.075-0.289,1.638L108.754,79.366z M116.439,70.805
			c-0.093-0.071-0.153-0.188-0.245-0.26c-0.142-0.108-0.223-0.099-0.295-0.003c0.129,0.023-1.606-0.339-1.784-0.104l0.082-0.01
			c0.047,0.036-0.024,0.131-0.062,0.177l0.375,0.289c0.203-0.07,0.416-0.058,0.674-0.008
			C115.668,71.034,116.022,71.156,116.439,70.805z M113.312,61.478c-0.704-0.245-1.496,0.492-2.061,0.354
			c0,0,0.047,0.037,0.012,0.085c0.092,0.071,1.379,0.239,2.071-0.275c-0.046-0.035-0.143-0.108-0.105-0.156L113.312,61.478z
			 M110.556,61.672l-0.188-0.144c-0.145,0.189-0.336,0.338-0.527,0.492C110.125,62.236,110.294,61.623,110.556,61.672z
			 M113.478,60.485c0.179-0.234,0.049-0.259-0.068-0.496c-0.539,0.702-1.431,0.02-2.438,1.334c0.565,0.135,1.849-0.369,2.174-0.793
			C113.286,60.637,113.358,60.545,113.478,60.485z M104.438,61.001c0.072-0.093,0.094-0.224,0.203-0.364
			c0.073-0.093,0.229-0.197,0.302-0.293c0.071-0.092,0.058-0.175-0.13-0.32c-0.179,0.235-0.368,0.387-0.548,0.619
			c-0.072,0.096-0.135,0.271-0.207,0.365C104.246,61.154,104.364,61.098,104.438,61.001z M106.895,63.334
			c0.107-0.142,0.125-0.353,0.028-0.426c-0.375-0.289-1.024,0.559-1.275,0.886C105.836,63.938,106.749,63.523,106.895,63.334z
			 M119.226,58.044c0.54-0.706-0.007-1.351,0.026-1.396l-0.327-0.25c0.073-0.096,0.109-0.143,0.06-0.178l-0.081,0.009
			c0.238-0.112,0.392-0.22,0.618-0.418c-0.092-0.07-0.15-0.192-0.209-0.308c-0.071,0.093-0.382,0.303-0.475,0.231
			c-0.106,0.138-0.097,0.221-0.133,0.269c-0.108,0.142-0.989-0.46-1.636,0.385c-0.649,0.844-0.086,1.275-0.197,1.712
			c0.271,0.133,0.505,0.314,0.776,0.445C118.153,58.856,119.133,57.971,119.226,58.044z M105.943,71.472
			c0.14,0.106,0.021,0.164-0.123,0.353c0.233,0.181,0.715,0.622,0.929,0.341c0.253-0.329,0.128-0.65-0.014-0.758
			C106.502,71.228,106.169,71.274,105.943,71.472z M104.731,76.353c-0.141-0.107-0.437-0.11-0.581,0.077
			c-0.108,0.142-0.05,0.26-0.112,0.437l0.208,0.31c0.109-0.141,0.591,0.006,0.736-0.181c0.073-0.095,0.063-0.177-0.054-0.415
			C104.871,76.462,104.825,76.427,104.731,76.353z M81.122,136.647l0.096-0.012c0.054,0.039-0.029,0.152-0.072,0.203
			c0.273,0.211,0.423,0.238,0.423,0.238c0.042-0.055-0.037-0.287-0.201-0.41C81.313,136.622,81.163,136.592,81.122,136.647z
			 M82.116,137.497c-0.165-0.125-0.37-0.199-0.534-0.322c-0.167,0.219,0.25,0.797,0.523,1.008
			C82.357,137.854,82.331,137.663,82.116,137.497z M92.972,128.225c0.014-0.004,0.032-0.012,0.052,0.008
			c-0.042,0.053-0.085,0.109-0.125,0.162c0.205,0.072,0.722,0.297,0.807,0.188c0.083-0.111,0.071-0.203,0.156-0.313
			C93.575,128.215,93.23,128.045,92.972,128.225z M76.804,126.506c0.277-0.479,0.43-0.795,0.08-1.236
			C76.509,125.76,76.3,126.034,76.804,126.506z M70.196,133.536c-0.083,0.109-0.004,0.344-0.034,0.496
			c0.27,0.207,0.56,0.17,0.644,0.061c0.083-0.109,0.06-0.301-0.117-0.523c0.084-0.107,0.084-0.107,0.029-0.148
			C70.664,133.377,70.196,133.536,70.196,133.536z M86.045,141.721c-0.053-0.041-0.162-0.123-0.205-0.07
			c-0.042,0.055-0.029,0.152-0.07,0.205C85.96,141.831,85.866,141.844,86.045,141.721z M65.528,79.903
			c-0.208,0.273-0.044,0.398,0.144,0.717c-0.084,0.107-0.028,0.15,0.081,0.234c0.598,0.459,1.013,0.26,1.371,0.014
			c-0.271-0.208-0.129-0.617-0.62-0.994C66.122,79.581,65.82,79.523,65.528,79.903z M85.829,142.68
			c-0.25,0.326-0.237,0.422-0.34,0.779c0.194-0.025,0.29-0.041,0.375-0.148C85.988,143.149,85.909,142.913,85.829,142.68z
			 M92.818,129.629c-0.109-0.084-0.301-0.059-0.495-0.033c0.013,0.096,0.068,0.139,0.123,0.18c0.054,0.041,0.205,0.072,0.313,0.154
			C92.885,129.766,92.87,129.672,92.818,129.629z M130.748,91.909c0.408,0.484,0.29,1.086,0.792,1.561
			c0.377-0.492,0.332-2.686-0.484-3.313C130.595,90.754,131.083,91.473,130.748,91.909z M86.647,136.997
			c-0.25,0.326-0.188,0.807-0.232,1.205c0.093-0.014,0.137-0.07,0.177-0.123C86.801,137.807,86.726,137.231,86.647,136.997z
			 M85.924,141.542c0.251-0.324,0.42-2.01,0.381-2.299c-0.419,0.543-0.331,1.561-0.476,2.314
			C85.883,141.598,85.924,141.542,85.924,141.542z M85.821,142.243c-0.085,0.109-0.113,0.256-0.101,0.355
			c0.052,0.039,0.152,0.027,0.192-0.027C85.954,142.518,85.929,142.325,85.821,142.243z M106.433,58.815
			c0.208-0.271,0.32-0.529,0.093-0.793c-0.383-0.292-1.048,0.235-1.394,0.576c0.109,0.083-0.074,0.546-0.119,0.601
			C105.559,59.616,105.932,59.468,106.433,58.815z M109.357,113.704c0.041-0.055,0.083-0.107-0.024-0.189
			c-0.382-0.293-0.496-0.033-0.704,0.236C108.957,114.004,109.065,114.086,109.357,113.704z M70.414,97.313
			c-0.042,0.055-0.083,0.109-0.07,0.203c0.434,0.332,2.04,1.395,2.164,1.232c0.043-0.055-0.064-0.139-0.228-0.262
			c-0.164-0.125-0.622-0.654-1.059-0.988C70.894,97.249,70.582,97.094,70.414,97.313z M83.264,90.141
			c-0.143,0.408-0.063,0.643,0.277,0.99C83.681,90.721,83.604,90.487,83.264,90.141z M118.899,92.932
			c0.112-0.262,0.159-0.658,0.365-0.93c0.126-0.162,0.483-0.061,0.691-0.334c0.084-0.109,0.013-0.248-0.093-0.33
			c-0.11-0.084-0.258-0.113-0.368-0.197c-0.217-0.166-0.255-0.457-0.048-0.729c0.125-0.16,0.636-0.377,0.636-0.377
			c-0.164-0.125-0.485-1.842-0.65-1.969c-0.272-0.209-0.506-0.129-0.669-0.254c-0.108-0.082,0.065-0.988-0.382-1.416
			c-0.425,0.105-0.48,0.064-0.862-0.229c-0.383-0.293-0.035-0.631-0.523-1.008c-0.219-0.166-0.438,0.01-0.822-0.283
			c-0.164-0.125-0.229-0.264-0.212-0.51c-0.943-0.465-0.651,0.625-1.498,0.146c0.084-0.109,0.126-0.162,0.017-0.248
			c-0.218-0.166-0.368-0.193-0.454-0.084c-0.041,0.053-0.07,0.203-0.194,0.367c-0.252,0.326-0.618,0.133-0.987-0.066
			c0.082-0.107,0.015-0.248-0.038-0.287c-0.11-0.082-0.262-0.111-0.316-0.154c-0.124,0.162-0.141,0.408-0.267,0.574
			c-0.21,0.273-0.925,0.264-1.562,0.398c-0.011-0.088-0.017-0.152-0.006-0.164c0.036-0.045,0.156-0.104,0.308-0.209
			c-0.092-0.072-0.141-0.107-0.176-0.063l0.012,0.084c-0.036,0.047-0.084,0.01-0.178-0.061c-0.093-0.074-0.138-0.109-0.104-0.156
			c0,0,0.046,0.035,0.081-0.012c0,0-0.045-0.033-0.091-0.07c0.109-0.141,0.3-0.293,0.443-0.48c-0.094-0.072-0.094-0.072-0.059-0.119
			c0.037-0.045,0.074-0.094,0.157-0.104c-0.224-0.098-0.365-0.205-0.506-0.314c-0.245-0.262,0.04-0.342-0.16-0.568
			c-0.104-0.155-0.114-0.236-0.079-0.285c0.324-0.422,2.063,1.586,2.999,0.365c0.108-0.143-0.006-0.381-0.102-0.451
			c-0.374-0.288-1.229-0.051-1.989,0.262c-0.151-0.189-0.164-0.274-0.091-0.367c0.073-0.095,0.321-0.127,0.501-0.363
			c-0.625-0.253-0.879,0.37-1.77-0.313c-0.095-0.071-0.152-0.192-0.044-0.332c-0.176-0.063-0.484-0.146-0.671-0.29
			c-0.092-0.071-0.15-0.19-0.042-0.331c0.324-0.425,0.945-0.843,1.231-1.219c0.071-0.093,0.063-0.176-0.054-0.414l-1.634,1.354
			c-0.043-0.331,0.021-0.804,0.021-0.804c-0.049-0.036-0.049-0.036-0.049-0.036c-0.073,0.094-0.156,0.4-0.227,0.494
			c0,0,0.034-0.047,0.082-0.012c-0.037,0.049-0.073,0.095-0.108,0.142l-0.657-0.503c-0.47-0.359,0.4-0.813,0.07-1.064
			c0.072-0.093,0.192-0.151,0.299-0.293c0.145-0.188,0.482-0.82,0.106-1.109c-0.234-0.181-0.544,0.031-0.653,0.17
			c-0.612,0.799,0.288,0.595-0.223,2.139c-0.188-0.144-0.567-0.138-0.919-0.259c0.577-0.751-0.973-1.939-0.217-2.923
			c0.361-0.47,0.71-1.022,0.333-1.311c-0.045-0.036-0.533,0.114-0.75,0.394c-1.078,1.409,0.165,2.214-0.233,3.027
			c-0.575,0.749-2.184,0.708-3.136,1.171c-0.115-0.239,0.055-0.556-0.086-0.664l0.432-0.563c-0.281-0.216,0.182-0.53-0.005-0.675
			c-0.145-0.113-0.317-0.202-0.497-0.279c0.056-0.106,0.118-0.212,0.213-0.335l-0.925-0.71c-0.026-0.193,0.05-0.74-0.115-0.865
			c-0.109-0.084-0.258-0.112-0.369-0.196c-0.018-0.016-0.019-0.031-0.035-0.047c0.027-0.015,0.054-0.046,0.089-0.091
			c0,0,0,0-0.049-0.035c0.071-0.094,0.596-0.292,3.456-0.328c0.253-0.329,0.011-0.888-0.458-1.247
			c-0.107,0.14-0.47-0.36-0.795,0.062c-0.106,0.141-0.037,0.342-0.11,0.436c-0.144,0.188-1.921,0.463-2.342,0.139
			c0.597-0.583,1.23-1.216,1.83-1.801c0.718-0.938,1.023-0.555,1.639-0.974c-0.045-0.035-0.14-0.108-0.104-0.156
			c0.037-0.048,0.073-0.094,0.156-0.104c-0.234-0.18-0.166-1.243,0.232-1.759c0.107-0.141,0.335-0.339,0.479-0.526
			c0.323-0.421,0.519-0.871,0.143-1.158c-0.938-0.721,0.319-3.333-0.197-3.727c-0.13-0.101-0.452-0.284-0.647-0.426
			c0.094-0.16-1.475-2.542-1.753-2.756c-0.047-0.038-0.047-0.038-0.047-0.038c0.036-0.046,0.166-0.02,0.239-0.115
			c-0.095-0.074,0.793-1.329-0.042-2.566c-0.146,0.189-0.654,0.172-0.797,0.357c-0.108,0.141,0.029,0.547-0.079,0.688
			c-0.323,0.419-0.559,0.24-0.885-0.013c0.07-0.093-0.328-0.544-0.291-0.593c0.936-1.219,1.654,0.077,2.735-1.331
			c-0.078-0.58-0.285-0.889-0.661-1.179c-0.515-0.394-0.744-0.193-0.995,0.132c0.037-0.048-0.899,1.173-0.431,1.533
			c-0.191,0.15-0.298,0.292-0.454,0.397c-0.328-0.251-0.935-1.014-0.719-1.296c0.038-0.047,0.155-0.106,0.272-0.162
			c-0.01-0.084-0.054-0.12-0.103-0.157c-0.093-0.07-0.155,0.106-0.226,0.198c-0.142-0.108,0.025-0.129-0.116-0.237
			c0.203-0.068,0.356-0.174,0.465-0.315c0.323-0.42,0.222-0.873,0.365-1.061c-0.034,0.046-0.034,0.046-0.034,0.046
			c-0.049-0.035,0.614-1.091,0.019-1.772c-0.434,0.563-1.414,1.453-2.024,0.984c0.218-0.283-0.051-0.712-0.095-1.041l-0.421-0.323
			c0.073-0.095,0.108-0.143,0.061-0.178c0.047,0.036-1.43,0.021-1.478-0.018c-0.375-0.286-0.368-0.877-0.883-1.273
			c-0.095-0.072,0.321-2.362,0.063-2.707c-0.07,0.093-0.108,0.141-0.154,0.105c-0.046-0.035,0.352-0.849,0.293-0.966
			c0,0-0.211-0.016-0.319,0.126c-0.251,0.327-0.685,0.891-0.45,1.072c0.047,0.036,0.13,0.022,0.259,0.05
			c-0.322,0.421,0.146,0.778-0.142,1.154c-0.108,0.143-0.263,0.248-0.405,0.435c-0.146,0.187,0.064,0.496-0.116,0.732
			c-0.145,0.188-0.347,0.256-0.535,0.112c0.184-0.531,1.002-1.986,0.77-2.166c-0.395,0.513-1.056,1.572-1.193,2.138
			c-0.095-0.072-1.54,0.161-1.915-0.127c-0.188-0.144,0.131-0.27-0.052-0.71c-0.037,0.05-0.037,0.05-0.037,0.05
			c0.074-0.097,1.508-2.646,0.663-3.293c-0.215,0.278-0.343,0.928-0.2,1.038c-0.036,0.045-0.155,0.102-0.191,0.15
			c-0.216,0.282-0.339,1.9-0.479,2.765c-0.048-0.039-0.012-0.086-0.012-0.086c-0.047-0.035-0.083,0.013-0.153,0.105
			c-0.211-0.308-0.204-0.899-0.392-1.044c-0.376-0.288-0.614-0.174-0.94-0.425c-0.141-0.107-0.867-0.813-0.688-1.047
			c0.074-0.096,0.156-0.105,0.229-0.2c0.241-0.413,0.02-0.802-0.403-1.127c-0.152,0.104-0.344,0.257-0.488,0.442
			c-0.216,0.281-0.159,0.401-0.064,0.475c0.092,0.072,0.225,0.095,0.366,0.205c0.233,0.18,0.394,0.453,0.149,1.159
			c-0.179,0.234-0.464,0.313-0.746,0.101c-0.281-0.218-0.275-0.808-0.603-1.061c-0.189-0.142-0.848-0.354-1.101-0.023
			c-0.214,0.28-0.289,0.668-0.506,0.952c-0.216,0.282-0.739,0.477-0.989,0.804c-0.145,0.19-0.041,0.342-0.221,0.576
			c-0.046-0.036-0.046-0.036-0.046-0.036c-0.073,0.097,0.541,1.236,0.326,1.519c-0.215,0.283-0.248,0.034-0.428,0.268
			c-0.07,0.093-0.098,0.225-0.17,0.318c-0.233-0.181-0.965,0.674-1.274,0.885c0.094,0.071,0.107,0.154,0.034,0.248
			c-0.108,0.14-0.393,0.221-0.43,0.269c0.093,0.072-0.074,0.386-0.253,0.622c-0.9,1.174-0.573,0.161-1.147,0.912
			c-0.252,0.328-0.227,2.433,0.06,3.322c0.116,0.237-0.196,0.447-0.055,0.554c-0.227,0.2-0.394,0.518-0.677,0.302
			c0.505-0.657,0.564-0.836,0.191-1.123c-0.141-0.107-1.231-0.048-1.807,0.703c-0.179,0.234-0.206,0.364-0.017,0.508
			c0.188,0.144,0.542,0.266,0.684,0.374c-0.243,0.412-0.485,0.823-0.808,1.245c-0.083,0.012-0.343-0.04-0.436-0.113
			c-0.094-0.072,0.015-0.211-0.033-0.246c-0.141-0.108-0.259-0.05-0.354-0.123c-0.28-0.216,0.486-1.117,0.111-1.405
			c-0.471-0.361-1.148-0.06-1.922,0.464c-0.324,0.421-0.324,0.421-0.02,0.803c0.169-0.222,0.922,0.336,1.167,0.522
			c0.231,0.18,0.096,0.744,0.238,0.852c-0.433,0.563-0.794,0.062-1.287-0.167c-1.08,1.408,0.717,1.298-0.182,2.469
			c-0.142,0.188-1.234,1.513-2.002,1.447c-0.259-0.053-1.139-0.653-1.357-0.371c-0.18,0.233,0.132,0.995,0.273,1.102
			c0.094,0.071,0.223,0.096,0.317,0.169c0.751,0.576,0.606,0.764,0.147,1.75c-0.188-0.143-1.212,0.414-1.26,0.377
			c-0.182,0.529,0.482,1.413,0.304,1.647c-0.433,0.563-1.199,0.2-1.522,0.622c-0.035,0.045,0.799,1.582,1.066,2.009
			c-0.108,0.142-0.144,0.188-0.098,0.225c0.049,0.036,0.404-0.138,0.452-0.101c0.008,0.377,0.301,0.676,0.106,1.123
			c-0.093-0.071-0.178-0.06-0.249,0.033c-0.073,0.094-0.096,0.225-0.169,0.318c-0.484-0.149-1.269,0.292-1.408,0.185
			c-0.325,0.421-1.48-0.017-2.029,0.604c0.528,0.184,1.443-0.231,1.906-0.251c0.326,0.251,1.387-0.351,1.998,0.117
			c0.328,0.252,0.332,0.926,0.504,1.283c-0.251,0.328-0.298,0.292-0.713,0.346c-1.294,0.422-1.674,0.727-2.345,1.405l0.354,0.122
			c-0.036,0.048-0.025,0.13,0.067,0.202c0.188,0.144,0.802,0.317,0.896,0.388c0.072-0.094,0.119-0.057,0.167-0.021
			c0.046,0.035,0.15,0.191,0.244,0.264c0.703,0.539,1.571-0.883,1.852-0.667c0.094,0.071,0.044,0.331-0.1,0.517
			c-0.18,0.238-0.762,0.314-1.012,0.642c-0.108,0.142-0.123,0.354,0.112,0.535c0.61,0.468,0.965-0.675,1.715-0.101
			c0.47,0.359,0.685,1.047,0.507,1.283c-0.145,0.187-0.501,0.361-0.789,0.736c-0.252,0.328-0.112,0.436-0.057,0.852
			c0.271,0.135,0.591,0.004,0.86,0.139c-0.122,0.354,0.03,0.543,0.313,0.762c0.201-0.07,0.45-0.104,0.63-0.338
			c0.143-0.188,0.063-0.473,0.197-0.742l0.516,0.396c0.094,0.07,0.156-0.104,0.297,0.002c0.091,0.072-0.155,1.074,0.126,1.291
			c0.422,0.324,0.512-0.277,1.24,0.131c-0.061,0.178-0.317,0.801-0.269,0.838c-0.468,0.609-0.703,0.43-1.027,0.852
			c-0.145,0.188-0.289,0.375-0.381,0.305c-0.123,0.35-0.246,0.707-0.367,1.057c0.482,0.148,0.885,0.012,1.101-0.27
			c0.038-0.047,0.027-0.129,0.062-0.178c0.048,0.037,0.13,0.025,0.204-0.068c0.071-0.094,0.131-0.27,0.203-0.365l0.349-0.551
			c0.141,0.107,0.816-0.193,0.816-0.193c0.109-0.139,0.28-0.457,0.351-0.549c0.073-0.096,0.404-0.141,0.875,0.221
			c-0.095-0.072,0.513,1.662,0.333,1.896c0.045,0.035,0.081-0.012,0.128,0.023c0.047,0.037-0.06,1.146,0.551,1.615
			c0.282,0.217,0.707,0.244,1.031-0.178c0.215-0.281-0.809-1.664-0.233-2.414c0.233,0.178,0.641-0.254,1.11,0.105
			c0,0,0.075,1.846,0.167,1.916c0.33,0.252,0.675-0.004,0.782-0.143c0,0,0.425-0.941,0.296-1.264
			c0.455-0.396,0.563-0.537,1.125-0.105c-0.143,0.188,0.268,0.428,0.374,0.584c0,0,0.568-0.16,0.803,0.021
			c-0.047-0.037,0.351,1.387-0.009,1.855c-0.035,0.049-0.12,0.057-0.213-0.016c-0.097,0.225-0.24,0.412-0.302,0.588
			c-0.469-0.359-0.871-0.221-1.449,0.529c0.059,0.121,0.103,0.451,0.243,0.559c0.484,0.148,0.627-0.041,1.002,0.246
			c-0.062,0.18-0.337,0.637-0.01,0.887c0.025,0.02,0.055,0.02,0.084,0.021c-0.485,0.01-1.099,0.385-1.722-0.094
			c-0.329-0.25-0.596-0.803-1.066-1.77c-0.166,0.219-0.247,1.109-0.455,1.381c-0.085,0.109-0.177,0.123-0.23,0.08
			c-0.085,0.109-0.074,0.205-0.115,0.26c-0.207,0.275-0.697-0.104-1.115,0.443c-0.293,0.381-0.196,1.49-0.53,1.926
			c-1.168,1.523-2.597-0.785-3.767,0.74c-0.082,0.107-0.187,3.4-0.242,3.359c-0.138,0.068-0.277,0.133-0.36,0.242
			c0.107,0.086-0.057,0.303-0.225,0.521c-0.792,1.033-1.627-0.473-2.126,0.18c-0.127,0.162,0.102,0.768,0.154,0.811
			c0.054,0.043,0.26,0.111,0.532,0.322c0.326,0.25,0.068,1.264,0.025,1.318c-0.055-0.043-0.964,0.469-0.964,0.469
			c-0.041,0.055-0.113,0.26-0.154,0.313c-0.085,0.109-0.234,0.082-0.274,0.137c-0.127,0.162,0.103,0.426-0.064,0.643
			c-0.667,0.871-2.845,0.668-2.845,0.668c-0.126,0.162-0.238,0.422,0.088,0.672c0.436,0.336,1.946-0.059,2.655,0.482
			c0.654,0.504-0.628,2.287-0.628,2.287c-0.292,0.379-0.948,0.221-1.199,0.547c-0.167,0.219-0.129,0.506,0.155,0.811
			c0.25-0.326,1.586,0.525,1.696,0.609c-0.072,0.205-0.157,0.313-0.239,0.422c-0.584,0.762-2.351-0.768-3.349,0.195
			c0.572,0.27,0.826-0.057,1.259,0.275c0.013,0.1-0.03,0.152-0.111,0.262c-0.085,0.107-0.266,0.229-0.39,0.391
			c0.914,0.271,1.304-0.123,2.229,0.588c0.871,0.668,0.956,1.684,0.409,2.734c-0.409-0.141-0.767,0.102-1.019,0.428
			c-0.166,0.219-0.224,0.52-0.006,0.688c0.759,0.582,1.586-0.945,2.076-0.568c0.801,0.613,0.054,1.619-0.044,2.172
			c0.18,0.033,1.009,0.037,1.512,0.424c0.38,0.293,0.653,0.5,0.067,1.262c-0.084,0.109-0.125,0.162-0.233,0.078l-0.377,0.492
			c-0.291,0.381,0.093,0.328-0.199,0.709l0.379,0.293c0.181-0.123,0.418-0.545,0.637-0.377c0.042-0.055,0.058-0.299,0.143-0.408
			c0.459-0.6,0.977-0.375,1.412-0.039c-0.208,0.271,1.526,0.822,0.818,1.748c-0.125,0.164-0.306,0.287-0.388,0.395
			c-0.058,0.303,0.201,0.416,0.076,0.58c0.819,0.281,1.22-1.141,2.09-0.473c0.217,0.166,0.306,1.963,0.577,2.174
			c0.493,0.375,1.591-0.945,2.678-0.109c0.164,0.127-0.086,1.576,0.35,1.912c0.436,0.332,0.567-0.516,0.838-0.307
			c0.098-0.342,0.293-0.615,0.505-1.092c0.199,0.105,1.699-0.416,2.073-0.129c0.981,0.752-0.816,4.559,0,5.186
			c0.219-0.178,0.387-0.395,0.61-0.572c-0.057-0.041,0.119-0.943,0.04-1.176c0.055,0.039,0.055,0.039,0.055,0.039
			s-0.31-1.621,0.399-2.545l0.667-0.871c0.48-0.064,0.961-0.127,1.456-0.094l1.057-0.141c0.412-0.201,0.442-0.352,0.824-0.059
			c0.816,0.627,1.458,2.154,2.522,3.924c0.125-0.166,0.186-1.932-0.342-2.598c0.401-0.297,0.867-0.111,1.252-0.506
			c-0.435-0.334-1.181,0.303-1.508,0.051c-0.164-0.125-0.385-1.416-0.216-1.635c0.208-0.271,1.034-0.33,1.627-0.652
			c0.273,0.207-0.087,0.449,0.458,0.869c0.161,0.123,0.313,0.152,0.576-0.078c0.375-0.488-0.268-0.549-0.2-0.756
			c0.127-0.162,1.013,0.258,1.264-0.068c0.21-0.273,0.082-1.232,0.292-1.506c0.167-0.219,2.223-0.195,3.027-0.789
			c-0.437-0.336-0.34-1.816,0.163-2.469c0.472-0.502,1.118-0.439,1.606-0.064c0.271,0.209,0.363,0.539,0.606,0.898
			c-0.042,0.055,0.876-0.018,0.934,0.025c0.217,0.168-0.03,0.15,0.188,0.316c0.085-0.107,0.179-0.123,0.291-0.039
			c0.107,0.084,0.174,0.223,0.281,0.305c0.164,0.127,0.261,0.111,0.261,0.111c0.041-0.053-0.012-0.094-0.231-0.262l-0.763-0.584
			c0.126-0.164-0.049-0.387-0.322-0.594c-0.38-0.293-0.679-0.35-1.007-0.6c-0.491-0.377-0.66-0.941-0.271-1.678
			c0.169-0.219,0.348-0.34,0.472-0.502c0.209-0.271,0.247-1.107,0.331-1.215c0.167-0.219,1.091,0.49,1.508-0.055
			c0.167-0.217-0.105-0.424,0.062-0.643c0,0,0.481-0.064,0.839-0.307c0.182-0.121,0.319-0.189,0.403-0.299
			c0.167-0.217-0.01-0.438-0.339-0.689c-0.271-0.207-0.636-0.404-0.853-0.57c-0.275-0.211-0.375-0.979-0.222-1.293
			c0.044-0.057,1.028-2.238,0.73-2.641c0.221-0.174,0.375-0.488,0.651-0.621c0.328-0.094,0.847,0.131,1.154-0.154
			c0,0,0.266-0.572-0.17-0.906c-0.433-0.334-0.771,0.443-1.752-0.309c-0.271-0.207-0.775-1.803-0.357-2.35
			c0.209-0.27,0.688-0.334,0.939-0.66c0.374-0.49,0.007-0.686-0.222-0.947c-0.086,0.105-0.524,0.115-0.716,0.143
			c-0.056-0.043-0.012-0.096-0.012-0.096s-0.543,0.195-0.783,0.068c-0.058-0.162-1.002-1.367-0.203-2.729
			c0.499-0.654-1.229-1.895-1.621-2.281c-0.167,0.217-0.397-0.045-0.603-0.117l0.25-0.326l0.011,0.098
			c0.055,0.039,0.097-0.016,0.152,0.029c0.084-0.109-0.231-0.266-0.283-0.307l0.052,0.041l-0.376,0.49
			c-0.12-0.178-0.284-0.303-0.406-0.484c-0.041,0.057-0.136,0.068-0.136,0.068c-0.054-0.043-0.014-0.098-0.069-0.139
			c0,0-0.093,0.014-0.179,0.123c-0.013-0.014-0.034-0.029-0.051-0.041c-0.172-0.49-0.332-1.07-0.051-1.436
			c0.212,0.016,0.402-0.137,0.513-0.277c0.178-0.234,0.265-0.541,0.445-0.775c-0.036,0.047,0.902-0.203,0.948-0.168
			c0.504-0.656,0.067-2.033,0.392-2.457c0.216-0.279,0.573-0.455,0.715-0.344c0.093,0.07,0.149,0.189,0.292,0.299
			c0.181-0.234,1.269-0.295,1.81-0.025c0.297,0.115,0.432-0.303,0.946-0.172l-0.346,0.449c-0.109-0.084-0.109-0.084-0.109-0.084
			c-0.044,0.059-0.044,0.059,0.066,0.141c-0.319,0.188-0.415,0.199-0.457,0.254c-0.041,0.055,0.013,0.096-0.279,0.477
			c-0.25,0.326-0.805,0.938-1.929,2.064c0.272,0.209,0.425-0.104,0.592-0.324c0.11,0.088,2.23-2.006,2.606-2.496
			c0.212-0.275,0.377-0.137,0.514-0.119c0.009,0.008,0.015,0.008,0.023,0.014c0.04,0.033-0.033,0.084,0.015,0.146
			c0.065,0.033,0.166,0.078,0.312,0.121c0.1,0.381,0.008,0.91-0.096,1.207c0.217,0.166,0.56,0.168,0.832,0.379
			c0.326,0.248,0.033,0.629,0.252,0.797c0.124-0.162,0.742,0.051,0.851,0.133c0.107,0.084,0.078,0.234-0.035,0.496
			c0.491,0.375,1.194,0.135,1.464,0.34c0.22,0.17,0.117,0.525,0.444,0.777c0.38,0.291,0.56-0.955,1.485-0.246
			c0.108,0.084,0.175,0.223,0.063,0.482c0.218,0.168,0.247,0.016,0.411,0.141c0.08-0.162,0.163-0.299,0.245-0.438
			c-0.02,0.078-0.042,0.156-0.072,0.252l0.027-0.006c-0.045,0.234,0.36,1.271,1.334,2.02c1.359,1.041,3.126-0.584,3.365-0.697
			c-0.234-0.182,0.136-0.568-0.051-0.713c0.144-0.188,0.309-0.207,0.382-0.305c0.145-0.186-0.204-0.896-0.402-1.125
			c0.183-0.529-0.438-1.08-0.859-1.404c-0.064-0.047-0.134-0.068-0.201-0.107c0.393-0.467,0.641-0.551,1.377-0.355
			C119.343,93.704,118.715,93.395,118.899,92.932z M76.482,83.743c-0.166,0.021-0.036,0.045-0.259-0.051
			C76.388,83.67,76.258,83.645,76.482,83.743z M86.549,93.459c0.062-0.014,0.133-0.053,0.206-0.104
			c-0.023,0.035-0.045,0.068-0.071,0.104C86.641,93.448,86.592,93.461,86.549,93.459z M87.991,91.758
			c-0.06-0.072-0.116-0.152-0.19-0.211c-0.043-0.031-0.076-0.031-0.116-0.053c0.02-0.027,0.039-0.064,0.054-0.084
			c0.045,0.035,0.093,0.072,0.165-0.023C87.953,91.477,87.978,91.612,87.991,91.758z M87.043,93.215
			c-0.03-0.023-0.053-0.027-0.079-0.031c-0.007-0.037,0.078-0.283,0.2-0.59C87.17,92.815,87.154,93.032,87.043,93.215z
			 M101.802,80.364c-0.254,0.331-0.429,0.269-0.788,0.443c-0.013-0.043-0.026-0.121-0.037-0.199c0.12,0.04,0.227,0.008,0.292-0.078
			c0.07-0.09,0.121-0.226,0.169-0.37c0,0-0.001-0.001,0-0.002c0.092-0.286,0.158-0.618,0.271-0.763
			c0.044-0.056,0.138-0.066,0.248,0.017c0.005-0.007,0.005-0.013,0.01-0.02C101.927,79.89,101.818,80.342,101.802,80.364z
			 M106.883,121.663c-0.024-0.191-0.188-0.318-0.351-0.443c-0.164-0.127-0.328-0.252-0.465-0.182L106.883,121.663z M95.113,129.229
			c-0.209,0.271,0.26,1.236,0.448,1.555C95.686,130.622,95.409,129.631,95.113,129.229z M74.517,118.44
			c0.002-0.012,0.008-0.021,0.008-0.035c-0.015,0-0.056-0.004-0.063-0.008L74.517,118.44z M72.794,99.053
			c0.054,0.041,0.458,0.527,0.569,0.609c0.053,0.041,0.053,0.041,0.096-0.012c0.292-0.383,0.102-0.357,0.143-0.41
			c0.085-0.111,0.23,0.264,0.398,0.043c0.082-0.107,0.156-0.313,0.197-0.365c0.098-0.359,1.256-1.977,0.383-2.645
			c-0.327-0.252-0.563,0.174-0.869,0.455c0.166,0.129,0.067,0.141-0.142,0.41c0,0,0.225,0.949-0.065,2.111
			c-0.107-0.082-0.121-0.178-0.121-0.178c-0.109-0.082-0.013-0.098-0.18,0.121c-0.162-0.123-0.23-0.264-0.337-0.346
			c-0.109-0.086-0.207-0.07-0.374,0.145C72.657,99.122,72.711,99.161,72.794,99.053z M110.929,114.135
			c0.043-0.053,0.143-0.412,0.087-0.453c-0.162-0.127-0.41-0.141-0.561-0.17c-0.069,0.205-0.151,0.313-0.183,0.463
			C110.478,114.049,110.846,114.243,110.929,114.135z M124.759,95.094c0.542-0.707,0.787-1.471,0.133-1.975
			c-0.11-0.084-0.232-0.162-0.356-0.234c0.132,0.018,0.167-0.023,0.307-0.207c-0.231-0.475-0.206-0.604-0.628-0.928
			c-0.282-0.217-0.399-0.158-0.727-0.41l-0.375-0.289c0.072-0.092,0.025-0.127,0.025-0.127c-0.047-0.037-0.071,0.092-0.213-0.016
			c-0.092-0.072-0.01-0.082-0.02-0.166c-0.143-0.107-0.308-0.086-0.448-0.193c-0.149,0.482,0.75,1.545,1.454,2.086
			c0.028,0.02,0.068,0.027,0.099,0.045c-0.42-0.086-0.875,0.027-1.301,0.582c-0.416,0.541-0.194,1.492,0.31,1.965
			c0.271,0.209,0.615,0.211,0.956,0.217C124.261,95.407,124.594,94.971,124.759,95.094z M102.452,96.565
			c0.289-0.039,0.414-0.203,0.58-0.42C102.815,95.979,102.66,96.295,102.452,96.565z M128.563,82.366
			c-0.165-0.125-0.215-0.512-0.284-0.646c-0.123,0.16-0.575,0.072-0.785,0.346c0.039,0.289,0.054,0.383,0.271,0.551
			C128.092,82.866,128.313,82.69,128.563,82.366z M114.208,104.116c0.083-0.109,0.389-0.395,0.171-0.561
			c-0.109-0.084-0.164-0.125-0.247-0.018C114.09,103.592,114.116,103.786,114.208,104.116z"/>
	</g>
	<g opacity="0.78">
		<path fill-rule="evenodd" clip-rule="evenodd" fill="#FF66FF" d="M63.705,134.454c-0.019-0.875,0.553-0.936,0.89-1.318
			c0.331,0.172,0.65,0.348,0.984,0.516c-0.003,0.393,0.13,0.678,0.081,1.105C65.229,135.208,64.021,134.959,63.705,134.454z"/>
		<path fill-rule="evenodd" clip-rule="evenodd" fill="#FF66FF" d="M59.762,133.239c0.133-0.479,0.558-0.551,1.119-0.432
			C60.874,133.459,60.325,133.36,59.762,133.239z"/>
		<path fill-rule="evenodd" clip-rule="evenodd" fill="#FF66FF" d="M62.575,132.459c0.482,0.055,0.966,0.109,1.117,0.416
			C63.602,134.141,62.236,133.499,62.575,132.459z"/>
		<path fill-rule="evenodd" clip-rule="evenodd" fill="#FF66FF" d="M61.636,133.286c-0.41-0.039-0.49-0.652-0.228-0.885
			C62.038,132.364,61.805,132.987,61.636,133.286z"/>
		<path fill-rule="evenodd" clip-rule="evenodd" fill="#FF66FF" d="M76.198,134.198c-0.484-0.191-0.576-0.689-0.523-1.293
			C75.912,133.288,76.366,133.506,76.198,134.198z"/>
		<path fill-rule="evenodd" clip-rule="evenodd" fill="#FF66FF" d="M70.289,131.102c-0.386-0.199-0.681-0.469-0.557-1.059
			C70.232,130.129,70.546,130.774,70.289,131.102z"/>
		<path fill-rule="evenodd" clip-rule="evenodd" fill="#FF66FF" d="M75.335,130.303c0.462,0.088,0.66,0.826,0.212,1.004
			C75.168,131.211,75.301,130.717,75.335,130.303z"/>
		<path fill-rule="evenodd" clip-rule="evenodd" fill="#FF66FF" d="M78.293,131.002c-0.136-0.178-0.042-0.533,0.002-0.85
			c0.531,0.018,0.727,0.289,0.589,0.82C78.737,131.051,78.555,131.083,78.293,131.002z"/>
		<path fill-rule="evenodd" clip-rule="evenodd" fill="#FF66FF" d="M75.335,130.303c-0.547-0.109-0.86-0.4-0.671-1.074
			c0.155-0.115,0.426-0.07,0.707-0.012C75.501,129.471,75.64,130.04,75.335,130.303z"/>
		<path fill-rule="evenodd" clip-rule="evenodd" fill="#FF66FF" d="M53.566,126.334c0.015-0.545,0.279-0.748,0.79-0.605
			C54.7,126.252,53.952,126.827,53.566,126.334z"/>
		<path fill-rule="evenodd" clip-rule="evenodd" fill="#FF66FF" d="M88.863,131.055c-0.001-0.379,0.298-0.342,0.624-0.266
			c-0.015,0.117-0.033,0.238-0.05,0.355C89.264,131.274,88.992,131.231,88.863,131.055z"/>
		<path fill-rule="evenodd" clip-rule="evenodd" fill="#FF66FF" d="M95.091,131.895c-0.344-0.09-0.373-0.742-0.097-0.984
			c0.272,0.002,0.439,0.088,0.559,0.207C95.54,131.577,95.247,131.641,95.091,131.895z"/>
		<path fill-rule="evenodd" clip-rule="evenodd" fill="#FF66FF" d="M77.248,128.415c0.027-0.197,0.056-0.396,0.083-0.594
			c0.264-0.182,0.987-0.232,1.283,0.074C79.11,129.098,77.507,129.344,77.248,128.415z"/>
		<path fill-rule="evenodd" clip-rule="evenodd" fill="#FF66FF" d="M84.035,128.61c0.035-0.238,0.068-0.473,0.1-0.711
			c0.543-0.416,1.643,0.102,1.66,0.74C85.641,129.43,84.295,129.135,84.035,128.61z"/>
		<path fill-rule="evenodd" clip-rule="evenodd" fill="#FF66FF" d="M78.683,126.573c-0.381-0.873-0.918-1.627-1.294-2.508
			C78.613,123.823,78.959,125.668,78.683,126.573z"/>
		<path fill-rule="evenodd" clip-rule="evenodd" fill="#FF66FF" d="M49.392,119.258c-0.367-0.252-0.458-0.686-0.095-0.986
			C49.85,118.321,49.749,119.086,49.392,119.258z"/>
		<path fill-rule="evenodd" clip-rule="evenodd" fill="#FF66FF" d="M85.69,124.375c0.025-0.389,0.216-0.549,0.544-0.52
			C86.21,124.245,86.016,124.407,85.69,124.375z"/>
		<path fill-rule="evenodd" clip-rule="evenodd" fill="#FF66FF" d="M88.222,123.918c-0.5-0.074-1.04-0.119-1.364-0.332
			c-0.041-0.377-0.225-1.021,0.07-1.324C87.564,122.659,88.124,123.112,88.222,123.918z"/>
		<path fill-rule="evenodd" clip-rule="evenodd" fill="#FF66FF" d="M93.949,121.647c0.18,0.99,1.237,1.311,1.44,2.283
			c-0.565,0.303-0.706-0.473-1.215-0.549c-0.352,0.309-0.553,1.453-1.186,0.91C93.126,123.157,93.39,122.194,93.949,121.647z"/>
		<path fill-rule="evenodd" clip-rule="evenodd" fill="#FF66FF" d="M49.795,115.559c0.649-0.275,1.1,0.396,1.165,0.908
			C50.617,116.51,49.742,116.161,49.795,115.559z"/>
		<path fill-rule="evenodd" clip-rule="evenodd" fill="#FF66FF" d="M40.072,112.846c0.195-0.736,1.657-0.799,1.495,0.229
			C41.027,113.165,40.417,113.18,40.072,112.846z"/>
		<path fill-rule="evenodd" clip-rule="evenodd" fill="#FF66FF" d="M36.131,110.78c0.414-0.916,1.8-0.244,1.823,0.404
			C38.004,112.51,36.371,112.096,36.131,110.78z"/>
		<path fill-rule="evenodd" clip-rule="evenodd" fill="#FF66FF" d="M94.824,120.446c-0.611-0.133-0.271-0.992-0.376-1.514
			C95.297,118.844,95.107,120.008,94.824,120.446z"/>
		<path fill-rule="evenodd" clip-rule="evenodd" fill="#FF66FF" d="M50.722,113.153c-0.115-0.016-0.23-0.035-0.344-0.051
			c0.011-0.316,0.113-0.506,0.412-0.424C50.766,112.836,50.745,112.995,50.722,113.153z"/>
		<path fill-rule="evenodd" clip-rule="evenodd" fill="#FF66FF" d="M100.582,117.938c0.405,0.189,1.548,0.057,1.396,0.943
			C101.354,119.018,100.559,118.624,100.582,117.938z"/>
		<path fill-rule="evenodd" clip-rule="evenodd" fill="#FF66FF" d="M97.922,116.799c0.664,0.162,1.166,0.447,1.132,1.146
			C98.443,118.893,96.982,117.569,97.922,116.799z"/>
		<path fill-rule="evenodd" clip-rule="evenodd" fill="#FF66FF" d="M51.213,107.163c0.245-0.105,0.699-0.293,0.937,0.021
			C52.19,108.159,50.827,108.346,51.213,107.163z"/>
		<path fill-rule="evenodd" clip-rule="evenodd" fill="#FF66FF" d="M44.595,104.926c-0.511-0.133-0.393-0.615-0.114-0.869
			C44.787,104.157,44.877,104.7,44.595,104.926z"/>
		<path fill-rule="evenodd" clip-rule="evenodd" fill="#FF66FF" d="M39.899,102.381c0.51,0.586,0.923-0.084,1.743,0.146
			c0.017,0.234,0.206,0.336,0.146,0.631C40.914,103.221,40.026,103.502,39.899,102.381z"/>
		<path fill-rule="evenodd" clip-rule="evenodd" fill="#FF66FF" d="M43.417,102.44c0.172-0.096,0.274-0.283,0.412-0.424
			c0.335,0.096,0.539,0.293,0.623,0.584C44.362,103.383,43.323,103.141,43.417,102.44z"/>
		<path fill-rule="evenodd" clip-rule="evenodd" fill="#FF66FF" d="M105.643,112.043c0.421,0.023,0.58-0.094,0.921,0.143
			C106.566,112.774,105.574,112.434,105.643,112.043z"/>
		<path fill-rule="evenodd" clip-rule="evenodd" fill="#FF66FF" d="M104.575,112.122c0.138-0.354-0.282-0.275-0.146-0.629
			c0.498,0.041,0.737,0.283,0.985,0.518C105.22,112.167,104.929,112.188,104.575,112.122z"/>
		<path fill-rule="evenodd" clip-rule="evenodd" fill="#FF66FF" d="M100.222,110.479c-0.038-0.338,0.263-0.203,0.298-0.439
			c0.291,0.059,0.421,0.242,0.393,0.547C100.64,110.581,100.406,110.745,100.222,110.479z"/>
		<path fill-rule="evenodd" clip-rule="evenodd" fill="#FF66FF" d="M47.677,101.397c-0.332-0.027-0.629-0.082-0.524-0.443
			C47.408,100.754,47.875,100.936,47.677,101.397z"/>
		<path fill-rule="evenodd" clip-rule="evenodd" fill="#FF66FF" d="M110.495,110.973c-0.035-0.285-0.127-0.752,0.133-0.951
			c0.412-0.033,0.469,0.207,0.657,0.344C111.27,110.915,111.006,111.116,110.495,110.973z"/>
		<path fill-rule="evenodd" clip-rule="evenodd" fill="#FF66FF" d="M51.539,101.508c-0.925-0.916-2.663-1.207-2.919-2.637
			c1.026,0.732,2.333,1.25,3.366,1.977C51.841,101.073,51.684,101.28,51.539,101.508z"/>
		<path fill-rule="evenodd" clip-rule="evenodd" fill="#FF66FF" d="M43.643,97.499c0.435,0.16,0.847,0.338,1.083,0.652
			C44.308,98.696,43.738,97.868,43.643,97.499z"/>
		<path fill-rule="evenodd" clip-rule="evenodd" fill="#FF66FF" d="M43.551,94.813c1.104-0.127,2.239,0.604,2.496,1.477
			C45.306,96.891,43.673,95.715,43.551,94.813z"/>
		<path fill-rule="evenodd" clip-rule="evenodd" fill="#FF66FF" d="M102.537,104.889c-1.214-0.305-1.133-1.604-1.654-2.439
			c0.309-0.518,0.752-0.85,1.219-1.146C103.107,101.86,103.893,104.116,102.537,104.889z"/>
		<path fill-rule="evenodd" clip-rule="evenodd" fill="#FF66FF" d="M61.499,95.885c-0.442-0.016-0.507-0.318-0.754-0.482
			c0.269-1.068-0.54-1.824,0.04-2.785C61.726,93.168,61.109,94.911,61.499,95.885z"/>
		<path fill-rule="evenodd" clip-rule="evenodd" fill="#FF66FF" d="M56.816,94.918c-0.115-0.018-0.23-0.035-0.346-0.053
			c-0.112-0.16-0.07-0.439-0.015-0.732C57.053,94.036,57.118,94.657,56.816,94.918z"/>
		<path fill-rule="evenodd" clip-rule="evenodd" fill="#FF66FF" d="M106.36,101.108c-0.115-0.016-0.229-0.031-0.345-0.051
			c0.025-0.344,0.078-0.652,0.429-0.541C106.571,100.694,106.53,100.979,106.36,101.108z"/>
		<path fill-rule="evenodd" clip-rule="evenodd" fill="#FF66FF" d="M100.381,99.336c-0.117-0.514-0.165-0.664,0.15-1.068
			c0.512-0.006,0.606,0.311,0.738,0.602C101.181,99.313,100.88,99.463,100.381,99.336z"/>
		<path fill-rule="evenodd" clip-rule="evenodd" fill="#FF66FF" d="M108.911,100.534c-0.116-0.02-0.231-0.035-0.347-0.055
			c0.089-0.164-0.046-0.633,0.199-0.576C109.167,99.84,108.891,100.301,108.911,100.534z"/>
		<path fill-rule="evenodd" clip-rule="evenodd" fill="#FF66FF" d="M58.09,91.717c0.1-0.336,0.32-0.504,0.658-0.506
			C59.095,91.684,58.393,92.149,58.09,91.717z"/>
		<path fill-rule="evenodd" clip-rule="evenodd" fill="#FF66FF" d="M62.634,88.657c0.831-0.287,0.872,0.863,1.625,0.979
			C63.828,90.446,62.654,89.422,62.634,88.657z"/>
		<path fill-rule="evenodd" clip-rule="evenodd" fill="#FF66FF" d="M89.637,90.518c0.848-1.094,2.485-1.09,3.555-1.879
			c0.042-0.277-0.148-0.379-0.015-0.73c0.303-0.148,0.438-0.527,0.889-0.469c-0.584,1.318-1.247,2.529-2.621,2.752
			C92.137,91.706,89.907,91.36,89.637,90.518z"/>
		<path fill-rule="evenodd" clip-rule="evenodd" fill="#FF66FF" d="M107.793,93.444c-0.192-0.207-0.473-0.346-0.359-0.785
			c0.243-0.26,0.734-0.172,1.052,0.043C108.407,93.159,108.062,93.247,107.793,93.444z"/>
		<path fill-rule="evenodd" clip-rule="evenodd" fill="#FF66FF" d="M53.191,84.772c-0.981-1.256,1.185-3.877,2.456-2.414
			C55.528,83.629,54.73,85.016,53.191,84.772z"/>
		<path fill-rule="evenodd" clip-rule="evenodd" fill="#FF66FF" d="M66.324,85.829c-0.372-0.139-0.583-0.402-0.458-0.92
			C66.488,84.596,66.887,85.538,66.324,85.829z"/>
		<path fill-rule="evenodd" clip-rule="evenodd" fill="#FF66FF" d="M97.134,89.856c-0.198-0.061-0.234-0.244-0.163-0.51
			c0.115,0.016,0.23,0.035,0.346,0.053C97.329,89.655,97.192,89.702,97.134,89.856z"/>
		<path fill-rule="evenodd" clip-rule="evenodd" fill="#FF66FF" d="M89.332,87.68c-0.113-0.391,0.024-0.543,0.232-0.813
			C90.398,86.932,90.303,88.063,89.332,87.68z"/>
		<path fill-rule="evenodd" clip-rule="evenodd" fill="#FF66FF" d="M114.178,90.665c-0.116-0.018-0.23-0.035-0.345-0.053
			c-0.003-0.758,0.606-1.275,1.071-0.926C114.858,90.286,114.247,90.098,114.178,90.665z"/>
		<path fill-rule="evenodd" clip-rule="evenodd" fill="#FF66FF" d="M95.942,86.637c0.125-0.535,0.402-0.861,0.841-0.963
			C97.023,86.225,96.483,86.721,95.942,86.637z"/>
		<path fill-rule="evenodd" clip-rule="evenodd" fill="#FF66FF" d="M88.14,84.461c-0.19,0.006-0.184-0.143-0.328-0.172
			c-0.001-0.615,0.592-0.406,0.806-0.723C89.099,83.852,88.245,84.114,88.14,84.461z"/>
		<path fill-rule="evenodd" clip-rule="evenodd" fill="#FF66FF" d="M94.633,84.252c-0.248,0.012-0.292-0.129-0.444-0.191
			c0.058-0.348,0.136-0.664,0.544-0.523C94.95,83.825,94.628,83.87,94.633,84.252z"/>
		<path fill-rule="evenodd" clip-rule="evenodd" fill="#FF66FF" d="M72.123,80.534c0.034-0.474,0.16-0.818,0.479-0.897
			c0.208,0.017,0.222,0.183,0.443,0.188C73.44,80.488,72.622,81.116,72.123,80.534z"/>
		<path fill-rule="evenodd" clip-rule="evenodd" fill="#FF66FF" d="M92.45,83.065c0.125-0.447,0.54-0.578,0.871-0.352
			C93.782,83.745,92.46,84.071,92.45,83.065z"/>
		<path fill-rule="evenodd" clip-rule="evenodd" fill="#FF66FF" d="M96.674,83.11c0.027-0.483,0.125-0.87,0.478-0.896
			c0.29,0.024,0.331,0.24,0.542,0.326C97.83,83.354,97.075,83.491,96.674,83.11z"/>
		<path fill-rule="evenodd" clip-rule="evenodd" fill="#FF66FF" d="M73.67,79.559c0.438-0.813,1.608-1.362,2.599-0.934
			C76.043,79.192,74.571,79.928,73.67,79.559z"/>
		<path fill-rule="evenodd" clip-rule="evenodd" fill="#FF66FF" d="M110.82,79.469c0.41,1.425,0.003,5.375-1.918,4.436
			C108.358,82.393,108.306,78.41,110.82,79.469z"/>
		<path fill-rule="evenodd" clip-rule="evenodd" fill="#FF66FF" d="M91.373,79.864c-0.53-0.092-0.894-0.744-0.672-1.075
			C91.276,78.877,91.498,79.239,91.373,79.864z"/>
		<path fill-rule="evenodd" clip-rule="evenodd" fill="#FF66FF" d="M92.312,79.038c-0.695-0.019-0.588-0.786,0.085-0.596
			C92.522,78.622,92.481,78.904,92.312,79.038z"/>
		<path fill-rule="evenodd" clip-rule="evenodd" fill="#FF66FF" d="M67.419,74.709c0.383-0.079,0.263,0.03,0.691,0.106
			c-0.018,0.12-0.034,0.239-0.05,0.357C67.801,75.356,67.188,75.219,67.419,74.709z"/>
		<path fill-rule="evenodd" clip-rule="evenodd" fill="#FF66FF" d="M66.68,74.96c0.081-0.561-0.886-0.752-0.54-1.176
			c0.483,0.195,0.497,0.749,1.182,0.79C67.259,74.913,67.097,75.116,66.68,74.96z"/>
		<path fill-rule="evenodd" clip-rule="evenodd" fill="#FF66FF" d="M100.448,79.686c0.077-0.554,0.274-0.942,0.822-0.844
			C101.521,79.374,100.937,80.154,100.448,79.686z"/>
		<path fill-rule="evenodd" clip-rule="evenodd" fill="#FF66FF" d="M96.609,76.061c-0.256-0.137-0.384-0.647-0.113-0.868
			C97.166,75.144,96.894,75.934,96.609,76.061z"/>
		<path fill-rule="evenodd" clip-rule="evenodd" fill="#FF66FF" d="M99.52,76.267c-0.327-0.104-0.49-0.333-0.492-0.684
			c0.085-0.4,0.332-0.577,0.772-0.485C99.906,75.479,99.848,76.104,99.52,76.267z"/>
		<path fill-rule="evenodd" clip-rule="evenodd" fill="#FF66FF" d="M58.878,132.01c-0.01-0.58,0.484-0.465,0.495-1.016
			c-0.017-0.41-0.497-0.467-0.985-0.516c-0.697-0.453-0.615-1.506-0.98-2.215c-0.593-0.039-0.872-0.32-1.214-0.551
			c0.631-1.27-0.284-1.381-0.933-1.723c0.229-0.344,0.829-0.174,0.725-0.98c0.013-0.363-0.611-0.238-0.623-0.582
			c0.052-0.637,0.506-0.717,0.643-1.236c0.002-0.281-0.044-0.527-0.261-0.646c-0.479-0.049-0.451,0.604-1.003,0.451
			c0.108-0.322,0.255-0.588,0.364-0.914c-1.21-1.402-2.141-3.02-2.849-4.809c-0.44,0.023-1.077,0.113-1.117-0.414
			c0.194-0.535,0.937-0.311,1.169-0.791c-0.083-0.668,0.363-1.066,0.349-1.645c-0.004-0.174-0.363-0.77-0.359-0.785
			c0.105-0.6,0.875-0.799,1.153-1.52c0.113-0.475-0.236-0.596-0.342-0.904c0.146-0.553,0.824-0.367,1.053-0.807
			c0.049-0.463-0.4-0.541-0.458-0.92c-0.675,0.385-1.555,0.492-2.63,0.322c0.292-0.779,1.131-0.797,1.499-1.467
			c0.521-0.051,0.321,0.459,0.756,0.48c0.233-0.104,0.308-0.426,0.543-0.523c-0.985-1.568-4.012-3.381-2.124-5.789
			c0.137-0.424-0.184-0.496-0.113-0.867c0.268-0.252,0.521,0.283,0.822,0.006c0.151-0.436-0.06-0.59,0.02-0.969
			c0.61,0.135,0.782-0.334,1.135-0.555c0.788,0.102,1.743,0.432,2.022-0.172c0.065-1.604-0.828-2.475-1.635-3.408
			c-0.396-0.029-0.401,0.484-0.676,0.623c-2.459-0.045-1.108-2.154-1.059-3.318c1.955,1.467,3.363,3.354,4.392,5.533
			c0.867-0.254,1.84-0.316,2.729-0.188c-0.37-1.799-1.522-2.998-1.911-4.783c1.462,0.578,1.598,3.078,2.553,4.398
			c0.489,0.158,0.667-0.117,0.872-0.352c0.486,0.053,0.274,0.639,0.853,0.617c1.278-0.354-0.091-1.467-0.439-1.889
			c0.015-0.82,0.808-1.193,1.399-0.754c0.825-0.148,0.271-1.484,0.778-2.186c1.582,1.129,0.806,2.723,0.859,4.744
			c0.451-0.084,0.573-0.627,0.841-0.963c0.017-0.436-0.588-0.395-0.326-1.02c0.637-0.102,0.445,0.434,0.606,0.697
			c0.438,0.088,0.442-0.426,0.676-0.623c0.078-0.377-0.371-0.352-0.508-0.563c0.221-0.547,0.867-0.5,0.892-1.318
			c0.025-0.41-0.745-0.207-0.741-0.6c-0.017-0.641,0.478-0.568,0.612-0.998c-0.451-0.891-0.152-2.355,0.059-3.754
			c0.999-0.16,1.051-1.256,1.156-2.369c0.852-0.051,1.315-0.637,1.713-1.314c0.047-0.6-0.671-0.615-0.522-1.295
			c0.515-0.229,0.945-0.58,1.417-0.875c0.352,0.189,0.478,0.553,0.309,1.141c0.656,0.109,1.016-0.195,1.365-0.516
			c0.149-0.795-0.653-1.596,0.071-2.174c0.459-0.036,0.368,0.353,0.64,0.463c0.396-0.211,0.345-1.035,0.956-0.946
			c0.369,0.318,0.06,1.157,0.77,1.212c0.521,0.004-0.077-0.664,0.445-0.659c0.697-0.005,0.456,0.71,0.935,0.874
			c0.457,0.064,0.605-0.299,0.889-0.47c0.519-0.011,0.417,0.456,0.738,0.599c0.517-0.41,1.054-0.574,1.908-0.191
			c0.62-0.653,1.061-1.555,1.911-1.889c0.975,0.203,1.96,0.401,2.051,1.286c0.44,0.044,0.507-0.432,0.987-0.334
			c0.837,0.067,1.097,1.53,0.325,1.87c-0.613,0.047-0.556-0.418-0.722-0.717c-1.428,0.943-0.716,3.275,0.929,3.422
			c-0.082,0.732,0.331,1.088,0.472,1.648c0.308,0.047,0.615,0.094,0.92,0.143c-0.222,1.229,0.561,2.402,1.69,1.354
			c-0.007-0.523-0.367-0.781-0.145-1.479c1.119-0.973,1.233,0.746,1.312,1.539c-0.468,0.486-0.991,0.896-1.68,1.074
			c-0.025,0.295-0.062,0.574-0.214,0.693c0.243,0.627,0.8,1.014,1.063,1.623c1.706,0.383,2.364-1.299,3.668-1.012
			c0.514-1.572,2.469-2.08,3.918-2.793c0.084,1.004,1.042,0.816,1.708,1.232c0.247-0.084,0.52-0.129,0.641-0.387
			c-0.082-0.678-0.536-1.068-0.438-1.887c-0.378-0.057-0.6,0.111-1.051-0.039c0.195-1.012,1.175-0.926,1.629-1.57
			c0.139-0.496,0.029-0.799,0.053-1.207c0.886-0.238,1.864-0.344,2.189-1.361c0.383-0.01,0.525,0.166,0.788,0.244
			c0.534-0.033,0.436-0.811,0.415-1.271c0.537-0.096,0.589,1.008,1.115,1.266c0.296,0.033,0.558,0.016,0.724-0.131
			c0.652,0.416,0.994,1.072,1.935,1.27c0.266,0.859,1.611,3.678,0.12,4.992c-0.028,0.412,0.21,0.617,0.08,1.105
			c-0.279,0.133-0.777-0.037-0.97,0.215c-0.034,0.238-0.067,0.477-0.101,0.715c-1.357,0.678-3.237,0.162-4.554,0.631
			c0.426,1.26,0.57,3.344-0.488,4.293c-0.055,0.467,0.399,0.541,0.59,0.82c-0.255,0.352-0.997,0.898-1.331,0.279
			c-0.6,0.398-1.321,0.627-1.812,1.176c0.437,0.656,0.96,1.24,0.718,2.416c-0.407,0.195-0.873,0.305-1.35,0.4
			c-0.331,1.311,1.008,2.186-0.09,3.141c0.042,0.639,0.776,0.748,0.999,1.248c-0.161,0.613-0.402,0.271-0.969,0.213
			c-0.303,1.115,0.949,1.037,1.294,1.656c-0.223,0.494-0.576,0.17-1.069,0.076c0.262,2.365-0.163,6.023-1.876,7.48
			c-0.058,0.643,0.564,0.768,0.507,1.412c-0.546,0.41-0.832-0.162-1.101-0.535c-1.265,0.66-2.793,0.947-4.49,1.008
			c-0.039,0.488,0.345,0.654,0.179,1.24c-0.506-0.035-0.558-0.42-0.59-0.818c-1.408-0.758-3.378-1.082-4.138-2.338
			c-0.305-0.049-0.613-0.096-0.918-0.141c-0.666-0.354-0.949-1.514-2.07-1.17c0.064,1.012,0.991,1.359,1.212,2.248
			c-0.871-0.178-1.108-0.844-1.576-1.334c-0.729-0.115-1.129,0.232-1.497,0.617c-0.084,0.49,0.166,0.721,0.327,1.021
			c-1.46-0.666-1.937,1.627-1.19,2.609c0.825-0.746,1.962-1.063,3.126-1.34c1.744,0.322,2.214,1.623,2.902,2.756
			c0.013,1.531-0.926,1.742-1.124,2.98c-1.008,0.115-1.742,0.613-2.698,0.797c-1.278-0.818-2.318-1.824-2.573-3.43
			c0.081-0.455,0.466-0.488,0.497-1.016c0.137-0.354-0.284-0.277-0.147-0.629c-0.832,0.34-1.177,1.271-1.023,2.268
			c-0.606-0.359-1.086-0.096-1.645-0.012c-0.25,0.688,0.306,0.756,0.16,1.361c-0.197,0.293-0.79,0.037-1.084,0.197
			c-0.195,0.502,0.335,0.449,0.229,0.885c-0.418,0.697-1.152,0.955-1.238,2.115c-0.592,0.078-0.934,0.504-1.105,1.162
			c-0.489-0.014-0.458-0.422-1.002-0.396c-0.285,0.457-0.709,0.721-1.282,0.771c-0.521,0.012-0.418-0.457-0.74-0.598
			c-0.992,0.088-1.937,0.246-2.483,0.951c-0.071,0.514,0.511,0.527,0.44,1.039c-0.187,0.545-0.742,0.578-1.169,0.791
			c-0.474,0.01-0.211-0.545-0.623-0.582c-0.632,0.201,0.005,0.793-0.052,1.205c-0.155,0.494-0.47,0.768-1.037,0.689
			c-0.435-0.02-0.132-0.605-0.491-0.684c-0.438,0.15-0.664,0.596-1.055,0.809c-0.651-0.1-0.324-0.949-0.902-1.109
			c-0.547-0.145-0.645,0.334-0.708,0.861c-0.716-0.412-0.633-0.945-1.378-1.063C60.155,131.235,59.564,132.684,58.878,132.01z
			 M54.896,101.053c-0.396,0.021-0.669,0.209-0.695,0.742C54.706,101.928,54.871,101.59,54.896,101.053z M62.647,96.911
			c-0.397,0.762,0.031,1.619,0.933,1.723C63.72,97.711,63.381,97.159,62.647,96.911z M96.697,100.467
			c-0.153-0.023-0.308-0.047-0.46-0.072c-0.15,0.293-0.194,0.852,0.211,1.006C96.789,101.186,96.704,100.918,96.697,100.467z
			 M90.416,94.159c-0.002,0.18,0.265,0.152,0.444,0.189C91.167,93.95,90.351,93.721,90.416,94.159z"/>
	</g>
	<path fill-rule="evenodd" clip-rule="evenodd" fill="#FF66FF" d="M61.563,124.696c0,0,1.676,42.123,2.417,50.07
		c0.342,3.658-2.923,3.406-2.558-0.219c0.369-3.623-0.424-43.279-2.572-49.688L61.563,124.696z"/>
</g>
</svg>
